<?xml version="1.0" standalone="no"?>
<!DOCTYPE svg PUBLIC "-//W3C//DTD SVG 20010904//EN"
 "http://www.w3.org/TR/2001/REC-SVG-20010904/DTD/svg10.dtd">
<svg version="1.0" xmlns="http://www.w3.org/2000/svg"
 width="50.000000pt" height="50.000000pt" viewBox="0 0 1920.000000 1920.000000"
 preserveAspectRatio="xMidYMid meet">

<g transform="translate(0.000000,1920.000000) scale(0.100000,-0.100000)"
fill="#000000" stroke="none">
<path d="M4090 13443 c0 -5 154 -183 343 -398 546 -622 1963 -2235 2550 -2903
296 -337 537 -617 535 -622 -3 -9 -158 -186 -1633 -1865 -1660 -1890 -1790
-2038 -1793 -2046 -2 -5 593 -9 1350 -9 l1353 0 446 508 c245 279 706 804
1025 1167 2188 2491 1977 2246 1956 2269 -10 12 -230 262 -488 556 -847 965
-1914 2180 -2134 2430 -119 135 -346 394 -505 575 -159 182 -294 333 -300 337
-13 10 -2705 10 -2705 1z"/>
<path d="M8231 13414 c14 -16 88 -99 165 -184 77 -85 406 -451 732 -812 579
-644 1349 -1498 2185 -2426 230 -255 417 -468 415 -472 -2 -4 -712 -795 -1578
-1756 -866 -962 -1658 -1840 -1759 -1953 -102 -112 -178 -202 -170 -199 8 3
664 366 1459 808 795 441 2378 1319 3518 1952 l2073 1151 -93 52 c-51 29 -975
542 -2053 1140 -1078 598 -2306 1280 -2730 1515 -1359 755 -2139 1187 -2165
1200 l-25 13 26 -29z"/>
</g>
</svg>
