<?xml version="1.0" standalone="no"?>
<!DOCTYPE svg PUBLIC "-//W3C//DTD SVG 20010904//EN"
 "http://www.w3.org/TR/2001/REC-SVG-20010904/DTD/svg10.dtd">
<svg version="1.0" xmlns="http://www.w3.org/2000/svg"
 width="30.000000pt" height="30.000000pt" viewBox="0 0 512.000000 512.000000"
 preserveAspectRatio="xMidYMid meet">

<g transform="translate(0.000000,512.000000) scale(0.100000,-0.100000)"
fill="#000000" stroke="none">
<path d="M420 4494 c-45 -20 -68 -41 -91 -86 -37 -73 -14 -160 58 -215 l36
-28 323 -3 323 -3 20 -62 c11 -34 162 -527 336 -1096 174 -569 320 -1041 325
-1050 16 -31 67 -71 101 -81 21 -6 427 -10 1084 -10 999 0 1052 1 1090 19 22
10 51 30 64 44 27 30 708 1643 718 1699 12 75 -42 162 -116 187 -46 15 -2147
16 -2188 0 -34 -13 -80 -55 -99 -91 -39 -74 -2 -184 75 -225 l44 -23 924 0
c507 0 923 -1 923 -3 0 -2 -118 -284 -263 -628 l-262 -624 -908 -3 c-499 -1
-907 0 -907 2 0 26 -676 2207 -691 2227 -10 15 -39 37 -62 48 -42 20 -58 21
-433 21 -324 -1 -395 -3 -424 -16z"/>
<path d="M1659 1386 c-128 -46 -209 -156 -209 -287 0 -96 23 -154 89 -220 65
-65 124 -89 216 -89 81 0 144 23 200 72 172 152 122 438 -90 517 -63 24 -151
27 -206 7z"/>
<path d="M3936 1383 c-66 -23 -147 -99 -177 -165 -32 -72 -32 -183 -1 -248 35
-72 77 -116 144 -149 52 -27 72 -31 137 -31 128 1 218 56 273 168 28 57 33 77
32 137 -1 120 -61 217 -169 272 -65 34 -168 41 -239 16z"/>
</g>
</svg>
