<?xml version="1.0" standalone="no"?>
<!DOCTYPE svg PUBLIC "-//W3C//DTD SVG 20010904//EN"
 "http://www.w3.org/TR/2001/REC-SVG-20010904/DTD/svg10.dtd">
<svg version="1.0" xmlns="http://www.w3.org/2000/svg"
 width="50.000000pt" height="50.000000pt" viewBox="0 0 386.000000 360.000000"
 preserveAspectRatio="xMidYMid meet">

<g transform="translate(0.000000,360.000000) scale(0.100000,-0.100000)"
fill="#000000" stroke="none">
<path d="M724 3574 c-169 -115 -703 -519 -712 -540 -20 -42 -14 -68 27 -126
28 -38 37 -58 30 -69 -11 -18 -12 -76 0 -83 5 -4 5 -18 -1 -34 -16 -43 -5 -71
69 -168 80 -104 104 -117 160 -89 53 27 61 30 36 10 -27 -19 -30 -60 -6 -69
10 -4 28 2 46 14 23 18 31 19 43 9 13 -11 12 -15 -12 -34 -32 -25 -30 -58 4
-63 13 -2 32 4 43 14 18 16 21 16 35 2 14 -13 13 -17 -10 -32 -29 -19 -34 -53
-10 -63 9 -3 32 2 51 12 27 15 36 16 46 6 9 -10 6 -17 -15 -33 -32 -22 -35
-40 -12 -59 13 -11 21 -10 50 6 26 14 37 16 46 7 9 -9 5 -18 -16 -37 -29 -27
-30 -42 -3 -59 12 -8 23 -5 46 11 26 20 31 20 42 7 10 -12 8 -18 -9 -30 -26
-18 -29 -59 -5 -68 10 -4 28 1 45 14 33 24 34 24 42 4 4 -11 -1 -22 -14 -31
-28 -20 -23 -57 8 -61 13 -2 32 4 42 13 19 17 40 13 40 -8 0 -7 -9 -18 -20
-25 -24 -15 -26 -50 -3 -59 9 -4 30 1 46 11 26 14 32 15 44 3 12 -12 10 -16
-11 -31 -30 -19 -33 -38 -10 -57 14 -11 21 -10 46 4 23 13 34 15 44 6 12 -10
10 -16 -11 -35 -21 -20 -24 -27 -15 -44 13 -24 24 -25 61 -3 23 14 31 15 41 5
10 -10 7 -15 -10 -28 -26 -18 -29 -59 -6 -68 9 -3 29 2 45 11 23 14 31 15 41
5 10 -10 7 -16 -10 -28 -30 -21 -26 -58 6 -62 13 -2 32 4 41 12 26 23 34 7 11
-22 -29 -36 -25 -59 25 -136 l45 -69 -40 -29 c-44 -33 -56 -58 -41 -87 17 -30
15 -31 -44 -31 -46 0 -60 -4 -80 -25 -24 -24 -25 -28 -25 -180 l0 -155 35 0
35 0 0 -230 c0 -219 1 -230 20 -240 17 -9 20 -21 20 -74 0 -88 22 -116 91
-116 58 0 89 24 89 70 l0 30 79 0 79 0 7 -62 c11 -93 45 -151 110 -186 46 -26
530 -31 612 -7 75 22 148 91 159 150 5 27 22 56 54 92 26 28 64 77 86 110 41
61 103 204 104 238 0 29 10 40 53 60 125 59 103 220 -50 374 l-65 65 33 68
c29 60 31 70 20 92 -15 27 -14 30 57 139 49 77 56 115 27 147 -23 25 -12 39
13 17 26 -24 59 -21 68 5 5 16 1 27 -16 40 -19 15 -20 21 -10 33 12 14 15 14
31 -1 9 -8 28 -14 41 -12 32 4 36 37 7 59 -19 14 -22 20 -11 31 10 10 18 9 43
-6 24 -14 33 -15 44 -6 22 18 18 45 -7 63 -19 12 -21 18 -10 28 10 11 18 10
43 -5 16 -10 37 -15 45 -12 21 8 17 51 -6 67 -15 10 -17 18 -10 29 8 12 13 13
27 2 32 -22 45 -25 61 -15 26 16 25 31 -2 56 -23 22 -24 26 -11 37 13 10 19
10 34 -4 11 -10 30 -16 43 -14 34 5 36 38 4 63 -24 19 -25 23 -11 35 13 11 19
10 34 -4 11 -10 30 -16 43 -14 31 4 37 43 9 58 -22 11 -28 35 -11 45 5 3 22
-3 38 -15 17 -12 35 -18 45 -14 24 9 21 49 -5 67 -19 12 -21 18 -10 28 10 11
17 10 41 -4 37 -22 48 -21 61 3 9 17 6 24 -16 45 -21 20 -25 28 -15 38 9 9 15
9 29 -1 30 -22 44 -25 60 -15 26 16 25 31 -3 57 -26 25 -27 46 -1 46 8 0 19
-7 26 -16 8 -8 25 -14 39 -12 37 4 40 41 7 64 -14 9 -26 20 -26 25 0 20 31 20
56 0 20 -16 31 -18 45 -10 27 14 24 39 -8 66 -25 22 -23 21 23 -4 45 -24 54
-26 81 -14 18 7 53 44 90 94 78 104 88 127 76 163 -6 19 -6 38 1 56 7 20 7 37
-1 59 -11 29 -10 35 17 69 42 53 53 86 40 125 -9 26 -73 78 -362 291 -193 142
-360 264 -372 271 -51 30 -110 2 -157 -73 -18 -30 -26 -34 -46 -29 -16 4 -37
-1 -60 -15 -19 -11 -47 -20 -62 -20 -37 0 -57 -18 -130 -119 -76 -105 -80
-136 -23 -188 22 -21 28 -31 15 -24 -13 6 -47 44 -76 84 -131 177 -291 276
-497 308 -243 38 -522 -72 -668 -264 -26 -33 -62 -76 -81 -93 -31 -29 -37 -31
-55 -19 -17 13 -24 12 -55 -6 l-36 -21 33 29 c21 18 35 40 38 63 5 31 -1 45
-51 115 -75 106 -107 135 -149 135 -18 0 -39 7 -46 15 -7 9 -29 15 -51 15 -33
0 -41 5 -71 46 -34 47 -72 74 -106 74 -11 0 -37 -12 -58 -26z m2726 -297 c251
-184 346 -260 348 -276 4 -26 -44 -101 -64 -101 -18 0 -17 20 1 44 8 11 15 23
15 27 0 4 -32 31 -71 60 l-72 53 -23 -29 -23 -28 -56 38 c-31 22 -59 43 -61
47 -3 5 4 21 15 37 l21 29 -69 51 c-38 28 -73 51 -79 51 -6 0 -19 -12 -30 -27
l-19 -26 -62 47 -61 47 20 29 c11 15 20 32 20 37 0 4 -35 33 -77 63 -53 37
-72 56 -60 58 10 2 39 -8 65 -23 l47 -26 -35 30 c-19 17 -43 33 -53 37 -21 7
-58 -22 -51 -40 6 -16 -31 -50 -46 -41 -13 8 46 92 69 98 9 2 23 0 31 -4 8 -4
170 -122 360 -262z m-2611 224 c17 -21 31 -44 31 -50 0 -20 -27 -11 -44 14 -9
14 -21 25 -27 25 -8 0 -103 -67 -142 -100 -4 -4 2 -18 13 -32 11 -15 20 -31
20 -37 0 -5 -26 -28 -57 -51 l-58 -41 -20 25 c-12 14 -25 26 -29 26 -10 0
-146 -100 -146 -107 0 -3 9 -17 21 -31 l20 -26 -23 -18 c-13 -10 -40 -30 -62
-45 l-38 -27 -23 28 -23 29 -74 -53 c-40 -29 -75 -54 -76 -56 -2 -1 6 -16 19
-33 23 -31 21 -48 -3 -38 -8 2 -27 23 -42 46 -29 42 -29 42 -10 66 31 41 696
525 721 525 13 0 33 -15 52 -39z m1121 -51 c-169 -12 -291 -63 -398 -167 -33
-32 -42 -44 -22 -29 135 101 255 146 405 153 195 10 349 -50 509 -196 38 -35
39 -35 19 -6 -22 32 -96 103 -148 143 l-30 23 45 -23 c24 -13 83 -61 130 -108
168 -166 234 -371 185 -578 -41 -173 -190 -368 -348 -456 -148 -82 -328 -107
-485 -68 -248 63 -432 247 -497 497 -20 78 -20 224 0 311 42 184 190 372 357
453 94 46 160 60 278 59 l105 -1 -105 -7z m143 -7 c-7 -2 -19 -2 -25 0 -7 3
-2 5 12 5 14 0 19 -2 13 -5z m957 -14 c-7 -11 -14 -18 -17 -15 -3 3 0 12 7 21
18 21 23 19 10 -6z m-2249 -6 c13 -16 12 -17 -3 -4 -10 7 -18 15 -18 17 0 8 8
3 21 -13z m144 -12 c-39 -37 -839 -621 -844 -616 -3 3 4 14 15 25 39 39 819
609 834 610 11 0 10 -5 -5 -19z m2360 -277 c406 -300 450 -334 427 -334 -10 0
-811 582 -856 622 -6 5 -2 8 10 8 10 0 199 -134 419 -296z m-2535 255 c0 -12
-27 -11 -35 1 -11 17 5 32 21 19 8 -6 14 -15 14 -20z m2333 25 c9 -10 -4 -34
-19 -34 -16 0 -16 2 -8 24 6 17 16 20 27 10z m-2037 -22 c27 -18 133 -174 127
-187 -3 -9 -168 -135 -367 -282 -485 -357 -505 -371 -288 -195 56 46 102 85
102 88 0 3 -252 -175 -309 -220 -11 -8 -13 -8 -8 1 6 9 0 9 -23 3 -40 -12 -49
-7 -83 42 -20 28 -27 48 -23 64 6 23 5 23 -14 12 -37 -23 -35 -53 5 -108 27
-37 43 -50 61 -50 27 0 24 -14 -6 -30 -17 -9 -27 -1 -75 63 -30 41 -55 78 -55
84 0 6 25 29 55 52 31 23 53 46 50 51 -3 5 0 12 6 16 8 4 9 3 5 -4 -4 -7 -3
-12 2 -12 13 0 31 22 29 35 -1 5 7 10 18 10 11 0 20 5 20 12 0 6 4 15 9 20 5
5 6 2 2 -7 -4 -8 1 -6 11 6 23 26 70 62 431 328 162 119 297 216 300 216 4 0
12 -4 18 -8z m1794 -39 c297 -214 667 -495 678 -513 7 -12 19 -19 27 -16 7 2
19 -3 27 -12 12 -16 11 -16 -7 -2 -20 15 -20 14 -1 -8 20 -23 43 -31 30 -10
-4 7 -3 8 5 4 6 -4 9 -11 6 -16 -3 -5 20 -28 50 -52 30 -23 55 -45 55 -49 0
-15 -113 -154 -123 -151 -7 2 -19 10 -27 18 -12 12 -12 14 8 14 22 0 102 89
102 114 0 7 -12 23 -26 37 l-26 24 7 -25 c4 -19 -2 -36 -26 -69 -31 -41 -34
-43 -72 -38 l-41 6 25 -22 c43 -38 14 -18 -273 190 -88 64 -49 24 72 -73 66
-53 120 -98 120 -100 0 -3 -505 366 -710 520 -52 39 -96 78 -98 86 -3 19 123
190 141 190 7 0 42 -21 77 -47z m-585 27 c3 -6 -1 -7 -9 -4 -18 7 -21 14 -7
14 6 0 13 -4 16 -10z m-1564 -17 c13 -16 12 -17 -3 -4 -10 7 -18 15 -18 17 0
8 8 3 21 -13z m2421 -5 c-7 -7 -12 -8 -12 -2 0 6 3 14 7 17 3 4 9 5 12 2 2 -3
-1 -11 -7 -17z m190 -140 c-7 -7 -12 -8 -12 -2 0 6 3 14 7 17 3 4 9 5 12 2 2
-3 -1 -11 -7 -17z m-2794 -13 c-3 -3 -9 2 -12 12 -6 14 -5 15 5 6 7 -7 10 -15
7 -18z m-38 -21 c0 -16 -16 -19 -25 -4 -8 13 4 32 16 25 5 -4 9 -13 9 -21z
m2883 -5 c-17 -17 -37 -1 -22 17 8 10 15 12 23 4 7 -7 7 -13 -1 -21z m-2933
-30 c0 -6 -4 -7 -10 -4 -5 3 -10 11 -10 16 0 6 5 7 10 4 6 -3 10 -11 10 -16z
m2980 17 c0 -2 -7 -9 -15 -16 -13 -11 -14 -10 -9 4 5 14 24 23 24 12z m110
-173 c0 -3 -6 -1 -12 4 -7 5 -50 38 -95 72 -46 34 -83 64 -83 67 0 2 43 -28
95 -67 52 -39 95 -74 95 -76z m-269 110 c13 -16 12 -17 -3 -4 -17 13 -22 21
-14 21 2 0 10 -8 17 -17z m-2809 -6 c-6 -7 -33 -28 -59 -47 -56 -39 -47 -26
17 24 49 38 59 43 42 23z m2981 -116 c70 -51 127 -95 127 -98 0 -3 -6 -1 -12
4 -7 6 -70 52 -140 102 -71 51 -128 95 -128 98 0 3 6 1 13 -4 6 -5 69 -51 140
-102z m-2903 85 c0 -2 -8 -10 -17 -17 -16 -13 -17 -12 -4 4 13 16 21 21 21 13z
m570 -1 c0 -2 -20 -18 -45 -35 -25 -17 -45 -29 -45 -26 0 4 80 64 88 66 1 0 2
-2 2 -5z m1730 -61 c0 -3 -20 9 -45 26 -25 17 -45 33 -45 36 0 3 20 -9 45 -26
25 -17 45 -33 45 -36z m62 -78 c24 29 61 31 88 4 24 -24 25 -48 5 -77 -15 -21
-13 -24 58 -75 111 -80 397 -299 404 -311 3 -5 -30 16 -73 46 -229 162 -224
159 -224 138 0 -12 25 -38 70 -71 39 -29 70 -54 70 -56 0 -3 -34 18 -75 46
-69 46 -95 55 -95 30 0 -5 56 -53 125 -106 69 -53 125 -99 125 -101 0 -5 -7 0
-158 106 -95 67 -122 78 -122 48 0 -7 34 -37 75 -66 41 -30 75 -57 75 -59 0
-4 -13 4 -108 66 -35 23 -56 32 -63 25 -6 -6 32 -41 111 -102 66 -52 120 -95
120 -98 0 -3 -37 21 -82 53 -46 32 -103 72 -128 89 -27 19 -54 30 -67 27 -31
-5 -29 -13 10 -39 17 -13 50 -39 72 -59 32 -28 25 -25 -34 15 -41 28 -78 51
-83 51 -24 0 4 -28 117 -115 69 -53 125 -98 125 -101 0 -6 -13 3 -163 109 -76
54 -101 67 -110 58 -8 -8 -9 -14 -1 -19 32 -22 134 -104 134 -108 0 -3 -29 15
-64 40 -78 56 -92 62 -99 43 -4 -10 33 -44 114 -106 65 -51 119 -94 119 -97 0
-5 -81 50 -204 138 -21 15 -42 28 -45 28 -7 0 -41 -53 -41 -63 0 -3 50 -45
110 -92 61 -47 110 -89 110 -92 0 -3 -6 -1 -12 4 -7 5 -60 43 -117 83 -99 71
-104 73 -118 54 -37 -49 -38 -47 72 -133 58 -45 105 -84 105 -87 0 -4 -40 23
-174 118 -21 15 -42 28 -46 28 -9 0 -46 -68 -40 -73 3 -2 44 -34 93 -71 48
-37 87 -70 87 -72 0 -3 -36 20 -81 50 -44 31 -81 56 -83 56 -1 0 -10 -16 -21
-36 l-19 -36 25 -22 c117 -98 117 -99 37 -47 l-76 50 -22 -36 -22 -37 38 -31
c77 -61 87 -76 21 -31 l-67 46 -20 -33 c-21 -33 -26 -57 -12 -57 4 0 27 -18
52 -41 l45 -40 -61 40 -61 40 -22 -39 -21 -38 51 -41 c60 -48 57 -54 -6 -11
-48 33 -61 36 -68 18 -2 -7 -7 -10 -10 -7 -4 3 46 92 110 198 101 169 115 196
104 213 -10 17 4 46 116 230 103 170 132 212 150 213 28 2 22 -4 72 78 54 89
54 117 0 157 -86 62 -112 55 -173 -45 -48 -78 -53 -94 -36 -111 6 -6 -35 -84
-118 -222 -105 -176 -131 -212 -149 -212 -13 0 -23 2 -23 5 0 3 88 168 195
367 107 199 195 372 195 385 0 16 -9 27 -26 35 -24 11 -29 10 -48 -13 -11 -14
-154 -274 -316 -577 -162 -303 -298 -551 -303 -552 -4 0 -1 13 8 29 l15 29
-105 83 c-58 45 -105 84 -105 86 0 3 49 -30 109 -71 l110 -76 22 36 c12 19 18
39 13 43 -5 4 -46 36 -91 71 -46 34 -83 64 -83 67 0 6 16 -4 102 -64 43 -29
81 -53 86 -53 4 0 16 16 25 35 l16 34 -60 47 c-77 59 -69 70 11 14 33 -24 62
-41 64 -39 2 2 11 19 21 38 16 31 16 34 -2 46 -49 36 -57 44 -51 51 4 4 23 -5
43 -20 l35 -27 20 33 c25 41 25 43 -2 62 -26 19 -18 32 10 17 27 -15 25 -16
47 26 15 27 17 37 7 41 -6 2 -10 8 -7 12 3 5 11 7 18 4 15 -5 51 62 42 77 -4
5 1 12 10 15 22 9 45 57 38 83 -4 16 -2 20 9 16 9 -4 21 7 34 30 19 36 19 37
0 51 -24 17 -15 29 12 15 16 -9 21 -5 36 27 l18 37 -33 27 c-39 33 -32 50 7
19 15 -11 30 -21 35 -21 9 0 39 53 39 67 0 4 -27 28 -60 53 -81 60 -77 74 4
16 36 -25 67 -46 70 -46 7 0 36 55 36 68 0 5 -45 43 -99 86 -137 105 -137 114
0 17 l112 -80 19 25z m-1712 120 c0 -2 -47 -40 -105 -85 l-105 -82 22 -40 c12
-21 19 -41 17 -44 -3 -2 -22 26 -42 64 -21 38 -45 72 -54 75 -18 7 -63 -18
-63 -36 0 -6 23 -54 50 -105 36 -68 48 -99 41 -110 -7 -14 -11 -12 -27 13 -30
48 -56 74 -76 74 -27 0 -89 -34 -117 -63 -28 -31 -25 -51 23 -131 47 -77 57
-88 78 -83 14 4 42 -36 144 -204 109 -182 125 -213 119 -239 -6 -26 9 -56 109
-220 102 -168 126 -216 89 -179 -8 8 -24 3 -60 -20 l-48 -32 47 41 46 42 -20
34 c-11 19 -24 34 -29 34 -5 0 -33 -16 -61 -36 l-53 -36 53 49 54 48 -19 33
c-10 17 -22 32 -26 32 -4 0 -36 -19 -70 -42 -71 -48 -60 -26 14 28 l49 36 -17
30 c-10 17 -23 32 -29 35 -6 2 -42 -17 -80 -42 -73 -49 -70 -46 44 50 24 20
24 21 5 55 -10 19 -19 36 -19 38 -1 1 -38 -22 -83 -53 -44 -31 -81 -54 -81
-51 0 2 41 37 91 76 l90 71 -20 32 c-12 18 -25 31 -31 29 -5 -1 -53 -32 -105
-68 -52 -36 -95 -63 -95 -61 0 3 39 36 88 73 48 37 91 71 95 75 10 8 2 36 -18
63 -13 17 -19 15 -112 -51 -113 -80 -123 -86 -123 -79 0 2 47 41 105 86 l105
81 -15 29 c-8 16 -19 31 -25 35 -5 3 -33 -11 -62 -32 -29 -22 -84 -60 -123
-87 -85 -58 -38 -14 82 77 45 34 82 67 83 74 1 27 -21 20 -89 -27 -39 -28 -71
-49 -71 -46 0 2 32 30 71 61 48 39 67 61 61 67 -9 9 -152 -82 -261 -166 -11
-8 -13 -8 -8 1 4 6 61 52 127 103 108 82 136 110 112 110 -5 0 -42 -23 -83
-50 -61 -42 -66 -44 -29 -13 24 21 58 50 75 65 l30 27 -31 1 c-18 0 -47 -11
-70 -28 -224 -160 -271 -183 -84 -41 60 46 110 90 110 98 0 17 -18 10 -88 -37
-68 -46 -82 -54 -82 -50 0 2 34 29 75 59 41 29 74 56 75 59 0 3 -4 11 -9 19
-7 11 -30 0 -108 -56 -148 -105 -163 -115 -163 -110 0 3 56 48 124 101 85 66
123 102 119 112 -3 7 -7 14 -10 14 -2 0 -37 -23 -78 -50 -41 -28 -75 -49 -75
-47 0 3 32 28 70 58 43 32 70 60 70 72 0 20 -6 18 -60 -23 -62 -47 -230 -162
-230 -157 0 6 314 248 398 306 59 42 74 63 52 76 -19 12 -11 63 12 79 31 22
55 20 81 -8 l22 -23 105 73 c107 75 110 77 110 70z m-715 -31 c-41 -34 -153
-111 -139 -96 13 14 157 120 164 120 3 0 -8 -11 -25 -24z m-217 -10 c-3 -3 -9
2 -12 12 -6 14 -5 15 5 6 7 -7 10 -15 7 -18z m3362 21 c0 -2 -8 -10 -17 -17
-16 -13 -17 -12 -4 4 13 16 21 21 21 13z m-3270 -10 c0 -2 -8 -10 -17 -17 -16
-13 -17 -12 -4 4 13 16 21 21 21 13z m913 -81 c-10 -48 -13 -104 -10 -180 7
-179 69 -327 192 -462 31 -35 55 -63 52 -63 -11 0 -210 75 -279 105 -95 42
-201 108 -228 142 -41 52 -17 140 73 275 52 78 206 263 212 256 2 -2 -4 -34
-12 -73z m-1040 50 c8 -19 -13 -31 -24 -14 -13 20 -11 29 5 29 8 0 16 -7 19
-15z m3447 6 c0 -5 -6 -14 -14 -20 -16 -13 -32 2 -21 19 8 12 35 13 35 1z
m-3494 -48 c-7 -7 -26 7 -26 19 0 6 6 6 15 -2 9 -7 13 -15 11 -17z m2584 -44
l35 -31 -48 33 c-27 19 -51 37 -54 42 -9 15 30 -11 67 -44z m-2440 7 c0 -2 -8
-10 -17 -17 -16 -13 -17 -12 -4 4 13 16 21 21 21 13z m592 -4 c-9 -6 -3 -26
28 -82 22 -40 39 -78 37 -83 -2 -6 -22 27 -46 71 -40 78 -44 102 -18 102 9 0
8 -3 -1 -8z m1797 -493 c-358 -665 -350 -651 -355 -646 -3 3 129 254 293 558
164 305 300 562 301 573 2 11 7 15 13 9 6 -6 -89 -193 -252 -494z m962 354
c13 -16 12 -17 -3 -4 -17 13 -22 21 -14 21 2 0 10 -8 17 -17z m-2981 3 c0 -3
-32 -27 -180 -134 -19 -14 -30 -20 -24 -13 10 11 196 151 202 151 1 0 2 -2 2
-4z m2643 -114 c31 -24 57 -45 57 -48 0 -2 -49 32 -110 77 -60 44 -110 83
-110 86 0 5 65 -41 163 -115z m378 81 c13 -16 12 -17 -3 -4 -17 13 -22 21 -14
21 2 0 10 -8 17 -17z m-2822 -58 c19 -31 31 -58 28 -61 -3 -3 -17 17 -33 45
-17 32 -34 51 -45 51 -30 0 -27 -12 16 -82 39 -63 43 -66 53 -45 8 18 9 15 5
-19 -8 -62 12 -108 67 -156 31 -28 74 -87 124 -169 79 -133 97 -154 119 -146
9 3 52 -58 125 -179 61 -101 108 -184 104 -184 -4 0 -49 69 -100 154 -51 85
-100 160 -108 167 -20 16 -49 0 -48 -27 0 -11 44 -91 98 -178 66 -107 94 -162
87 -169 -5 -5 -16 -7 -24 -4 -9 3 -62 83 -118 177 -86 144 -101 175 -91 190
12 20 -6 54 -179 340 -81 133 -98 155 -121 158 -21 3 -34 15 -58 56 -16 30
-30 62 -30 73 0 18 60 62 85 63 6 0 26 -25 44 -55z m2172 33 c22 -12 39 -29
39 -39 0 -10 -15 -43 -32 -73 -23 -40 -38 -55 -50 -52 -25 6 -46 -22 -173
-234 -136 -225 -147 -247 -133 -270 8 -12 -13 -54 -92 -185 -96 -160 -114
-184 -133 -185 -26 0 -7 43 78 181 101 163 114 204 66 204 -20 0 -39 -24 -117
-154 -89 -147 -149 -232 -89 -126 80 141 198 325 205 320 22 -14 50 24 176
234 119 197 135 229 127 251 -7 20 -4 34 15 65 60 100 54 96 113 63z m-2741
-122 c0 -2 -8 -10 -17 -17 -16 -13 -17 -12 -4 4 13 16 21 21 21 13z m815 -296
c17 -34 32 -39 37 -12 2 11 16 -5 40 -48 53 -94 54 -98 24 -93 -20 4 -38 26
-76 88 -28 46 -50 86 -50 89 0 14 11 4 25 -24z m245 -286 c71 -132 127 -241
124 -243 -6 -6 -2 -12 -116 199 -128 237 -164 309 -148 294 6 -7 70 -119 140
-250z m-29 189 c12 -21 24 -40 25 -41 1 -2 16 6 33 19 17 12 34 19 38 16 6 -6
-8 -19 -51 -49 -10 -7 10 -64 25 -74 5 -3 39 15 75 41 37 25 68 44 71 41 3 -2
-25 -28 -61 -56 -36 -29 -66 -55 -66 -58 1 -4 9 -21 18 -39 l17 -32 103 70
c56 39 102 68 102 66 0 -2 -39 -35 -87 -72 -49 -38 -92 -72 -96 -76 -7 -5 13
-60 28 -77 2 -2 46 27 99 63 53 37 96 64 96 61 0 -3 -41 -38 -91 -77 -58 -46
-88 -76 -85 -85 38 -93 6 -42 -112 179 -62 115 -112 211 -112 213 0 12 11 0
31 -33z m1715 -34 c3 -6 -5 -3 -20 6 -14 10 -26 19 -26 22 0 7 39 -17 46 -28z
m-2246 17 c0 -2 -8 -10 -17 -17 -16 -13 -17 -12 -4 4 13 16 21 21 21 13z m700
-20 c0 -2 -8 -10 -17 -17 -16 -13 -17 -12 -4 4 13 16 21 21 21 13z m845 -16
c10 -11 16 -20 13 -20 -3 0 -13 9 -23 20 -10 11 -16 20 -13 20 3 0 13 -9 23
-20z m600 -35 c23 -20 18 -19 -17 6 -27 18 -48 34 -48 36 0 7 35 -16 65 -42z
m-2030 25 c-3 -5 -20 -19 -38 -30 -32 -22 -32 -22 3 9 37 32 45 37 35 21z
m1906 -67 c13 -16 12 -17 -3 -4 -17 13 -22 21 -14 21 2 0 10 -8 17 -17z m-891
-61 c73 -3 110 -8 90 -11 -40 -7 -51 -32 -26 -60 15 -16 15 -20 2 -30 -8 -7
-19 -10 -25 -7 -10 6 -41 -19 -41 -33 0 -5 6 -14 14 -21 24 -19 8 -37 -35 -37
-47 0 -57 11 -34 37 26 28 15 55 -20 54 -39 -1 -48 14 -24 44 30 39 0 78 -41
52 -9 -6 -17 -5 -22 3 -14 21 -8 29 15 22 12 -4 78 -10 147 -13z m1001 -19
c13 -16 12 -17 -3 -4 -10 7 -18 15 -18 17 0 8 8 3 21 -13z m-78 -82 c7 -8 -7
-2 -30 14 -24 15 -43 30 -43 32 0 7 61 -31 73 -46z m-1833 35 c0 -3 -15 -14
-32 -26 l-33 -22 30 26 c31 27 35 29 35 22z m1180 -128 c0 -5 -6 -6 -12 -2
-23 13 -138 106 -138 110 0 3 34 -18 75 -47 41 -28 75 -56 75 -61z m-445 93
c-40 -35 -128 -101 -136 -101 -19 0 3 21 69 65 63 42 88 56 67 36z m1021 -72
c3 -6 -5 -3 -20 6 -14 10 -26 19 -26 22 0 7 39 -17 46 -28z m-1697 18 c-2 -1
-13 -9 -24 -17 -19 -14 -19 -14 -6 3 7 9 18 17 24 17 6 0 8 -1 6 -3z m991 -69
c33 -23 60 -46 60 -50 0 -13 -5 -10 -70 42 -76 61 -71 65 10 8z m-300 1 c-48
-42 -80 -63 -86 -56 -5 5 104 87 115 87 3 -1 -10 -15 -29 -31z m-620 -13 c0
-2 -12 -11 -27 -20 l-28 -17 24 20 c23 21 31 25 31 17z m504 -74 c40 -57 47
-75 37 -85 -8 -8 -14 -9 -19 -1 -4 6 -23 17 -43 24 -35 13 -40 11 -113 -29
-78 -43 -103 -50 -40 -11 52 33 33 37 -23 5 -84 -49 -124 -87 -53 -50 48 25
34 9 -22 -25 -103 -63 -143 -121 -106 -158 7 -7 9 -12 5 -12 -13 0 -98 142
-93 155 2 7 26 28 51 45 34 24 50 29 58 21 17 -17 29 -13 22 8 -8 25 150 128
171 110 11 -9 14 -7 14 9 0 21 74 75 95 69 6 -2 32 -36 59 -75z m624 52 c37
-22 43 -30 39 -50 -4 -23 -3 -24 13 -9 16 15 23 12 84 -27 50 -32 66 -47 63
-60 -6 -20 3 -24 19 -8 9 9 124 -56 138 -79 4 -6 -14 -45 -40 -86 -47 -74 -66
-93 -43 -42 16 35 -4 65 -78 115 -91 62 -235 142 -255 142 -19 0 -59 -19 -69
-34 -8 -10 -29 1 -29 14 0 18 90 150 102 150 6 0 31 -12 56 -26z m438 -5 c3
-6 -5 -3 -20 6 -14 10 -26 19 -26 22 0 7 39 -17 46 -28z m-1506 -64 c0 -2 -10
-9 -22 -15 -22 -11 -22 -10 -4 4 21 17 26 19 26 11z m741 -15 l40 -21 -3 -82
-3 -82 -75 0 -75 0 -3 82 -3 82 38 20 c47 25 37 25 84 1z m699 -6 c0 -2 -9 0
-20 6 -11 6 -20 13 -20 16 0 2 9 0 20 -6 11 -6 20 -13 20 -16z m-890 -14 c0
-5 -4 -10 -10 -10 -5 0 -10 5 -10 10 0 6 5 10 10 10 6 0 10 -4 10 -10z m320 0
c0 -5 -4 -10 -10 -10 -5 0 -10 5 -10 10 0 6 5 10 10 10 6 0 10 -4 10 -10z
m-830 -14 c0 -2 -8 -10 -17 -17 -16 -13 -17 -12 -4 4 13 16 21 21 21 13z
m1341 -13 c13 -15 12 -15 -8 -4 -24 12 -29 21 -14 21 5 0 15 -7 22 -17z m-964
-35 c32 -35 63 -91 63 -114 0 -14 -13 -27 -42 -42 -24 -11 -60 -31 -80 -43
l-38 -23 -30 29 -31 30 16 -39 c18 -42 12 -61 -9 -30 -35 48 -47 58 -27 21 12
-21 21 -43 21 -48 0 -10 -71 -82 -75 -77 -13 15 -95 158 -95 167 0 12 129 101
147 101 7 0 19 -13 28 -29 8 -17 20 -33 26 -36 6 -4 1 12 -11 35 -12 23 -18
46 -13 51 10 10 115 69 124 69 3 0 15 -10 26 -22z m641 -2 c26 -14 55 -31 66
-38 17 -14 17 -15 -3 -49 -31 -51 -25 -61 7 -11 l29 42 64 -41 c35 -22 70 -48
76 -57 13 -16 5 -34 -65 -146 l-24 -39 -40 40 -39 40 21 39 22 39 -27 -30 -26
-30 7 30 7 30 -19 -24 -20 -23 -87 48 c-70 40 -86 53 -87 73 0 34 60 131 82
131 5 0 30 -11 56 -24z m-510 -88 l-3 -33 -24 39 -24 39 24 20 24 19 3 -26 c2
-14 2 -40 0 -58z m346 54 c3 -5 -6 -26 -19 -48 l-24 -39 -1 58 c0 54 1 57 19
47 11 -5 22 -14 25 -18z m-181 -99 c-7 -2 -21 -2 -30 0 -10 3 -4 5 12 5 17 0
24 -2 18 -5z m112 -58 c90 -24 169 -71 235 -141 62 -67 115 -163 124 -229 l6
-40 -13 40 c-60 176 -204 308 -375 344 -250 52 -494 -93 -579 -344 l-13 -40 5
40 c11 70 61 162 127 231 125 130 310 184 483 139z m-415 -25 c-35 -24 -54
-31 -30 -11 14 11 30 21 35 21 6 0 3 -5 -5 -10z m393 -25 c139 -29 259 -125
322 -256 32 -67 49 -127 26 -90 -7 11 -16 10 -47 -9 l-39 -22 40 35 c30 26 37
38 29 47 -9 9 -25 -3 -65 -45 l-53 -56 -18 23 c-10 13 -17 28 -17 33 0 6 22
41 49 80 l49 70 -27 28 -26 28 -43 -86 -44 -86 -37 28 c-20 15 -39 28 -41 30
-2 1 17 39 43 84 25 45 46 85 46 89 0 8 -31 23 -35 18 -2 -2 -13 -27 -25 -56
-29 -68 -37 -61 -10 8 14 35 18 56 11 63 -10 10 -25 -19 -51 -98 -19 -58 -23
-30 -6 49 l14 67 -27 11 c-43 17 -189 14 -253 -5 -60 -18 -65 -26 -49 -69 24
-66 19 -80 -9 -26 -21 41 -34 56 -45 52 -21 -9 -20 -12 31 -103 26 -45 45 -83
43 -84 -2 -2 -21 -15 -41 -30 l-37 -28 -44 86 -43 86 -26 -28 -27 -28 49 -70
c27 -39 49 -74 49 -80 0 -5 -7 -20 -17 -33 l-18 -23 -53 56 c-40 42 -56 54
-65 45 -8 -8 -5 -16 14 -31 l25 -20 -27 12 c-16 7 -28 16 -28 22 0 30 79 153
127 197 118 108 268 149 426 115z m248 -27 c20 -16 46 -43 59 -61 14 -19 -4
-7 -46 33 -38 35 -71 66 -74 69 -16 14 31 -17 61 -41z m-701 19 c0 -2 -10 -12
-22 -23 l-23 -19 19 23 c18 21 26 27 26 19z m-227 -62 c15 -25 27 -48 27 -50
0 -3 -17 -5 -37 -5 -31 0 -42 6 -58 30 -22 33 -37 37 -55 15 -10 -12 -10 -18
0 -30 7 -9 11 -18 8 -21 -3 -2 -13 6 -21 20 -16 24 -16 26 15 50 29 22 34 23
49 10 15 -13 17 -13 22 6 8 30 19 25 50 -25z m1145 -90 c-21 -42 -35 -60 -40
-52 -13 20 -10 31 22 81 43 68 56 48 18 -29z m-1243 -158 c0 -177 -19 -186
-23 -12 -2 101 -5 125 -17 125 -12 0 -15 -24 -17 -127 -3 -112 -5 -128 -20
-131 -16 -3 -18 8 -18 127 0 141 0 142 -54 121 -26 -9 -26 -10 -26 -130 0 -73
-4 -120 -10 -120 -16 0 -13 255 3 268 11 9 136 21 172 17 6 -1 10 -55 10 -138z
m135 124 c15 -29 13 -31 -24 -31 -37 0 -51 12 -42 35 8 22 53 18 66 -4z m667
-73 c67 -25 137 -92 171 -166 22 -47 27 -71 27 -137 0 -101 -32 -172 -106
-239 -164 -147 -419 -97 -516 102 -39 80 -40 192 -2 273 78 165 250 232 426
167z m-684 -35 c-4 -21 -8 -87 -8 -148 1 -103 3 -116 38 -200 35 -87 58 -172
71 -262 l6 -43 -85 0 c-56 0 -85 4 -85 11 0 8 -4 8 -14 0 -23 -19 -28 1 -34
125 -3 62 -8 111 -12 109 -4 -3 -11 -48 -15 -100 -12 -167 -25 -117 -25 99 0
113 4 206 8 206 5 0 13 -17 19 -37 l10 -38 2 33 c1 25 7 35 26 42 25 9 25 11
25 125 l0 115 40 0 41 0 -8 -37z m1179 -37 c62 -62 118 -159 118 -204 0 -33
-33 -61 -84 -71 -35 -8 -40 -17 -56 -101 -13 -76 -64 -185 -117 -254 -43 -56
-63 -68 -63 -37 0 12 -9 49 -20 82 l-21 60 50 55 c99 112 146 247 139 402 -3
75 -2 88 6 64 10 -27 13 -29 29 -17 17 12 15 15 -20 44 -21 17 -33 31 -26 31
6 0 35 -24 65 -54z m79 -38 c15 -28 5 -21 -21 15 -15 20 -17 27 -6 18 9 -8 22
-23 27 -33z m-1194 -20 c-3 -7 -5 -2 -5 12 0 14 2 19 5 13 2 -7 2 -19 0 -25z
m960 -5 c-3 -10 -5 -4 -5 12 0 17 2 24 5 18 2 -7 2 -21 0 -30z m30 5 c-3 -7
-5 -2 -5 12 0 14 2 19 5 13 2 -7 2 -19 0 -25z m-960 0 c-3 -8 -6 -5 -6 6 -1
11 2 17 5 13 3 -3 4 -12 1 -19z m1233 -182 c-6 -20 -15 -38 -19 -41 -5 -2 -1
15 8 40 18 52 28 53 11 1z m-1196 -186 c35 -51 35 -52 6 -20 -17 19 -38 49
-47 65 -20 39 -6 23 41 -45z m889 40 c-10 -17 -31 -43 -48 -58 l-30 -27 26 30
c15 17 34 42 44 58 24 37 31 34 8 -3z m-605 -168 c48 -22 71 -27 142 -27 101
0 169 27 247 96 l48 43 -40 -42 c-22 -24 -69 -57 -105 -75 -57 -28 -74 -32
-150 -32 -76 0 -93 4 -150 32 -36 18 -83 51 -105 75 l-40 42 48 -43 c27 -23
74 -55 105 -69z m723 9 c-17 -34 -33 -61 -36 -61 -3 0 10 29 27 65 18 35 34
63 36 61 2 -2 -11 -31 -27 -65z m-924 -6 c135 -103 320 -139 487 -96 92 24 61
2 -46 -34 -118 -38 -234 -51 -354 -37 -122 14 -131 23 -136 129 -2 40 -2 73 0
73 2 0 24 -16 49 -35z m699 -132 c18 -119 1 -174 -63 -215 -37 -22 -44 -23
-308 -26 -302 -3 -307 -2 -340 63 -11 22 -23 42 -27 43 -5 2 -8 15 -8 29 0 22
3 24 31 18 122 -27 327 -20 443 15 75 23 201 82 226 106 25 25 39 16 46 -33z
m-1078 -91 c20 -3 22 1 22 38 0 38 1 40 21 30 15 -9 19 -19 17 -43 -3 -29 -6
-32 -42 -35 -48 -4 -56 7 -54 73 l1 50 6 -55 c5 -47 9 -55 29 -58z m1119 -4
c-2 -13 -4 -5 -4 17 -1 22 1 32 4 23 2 -10 2 -28 0 -40z"/>
<path d="M3417 3253 c82 -77 82 -78 68 -105 -14 -26 -14 -27 25 -58 l40 -32
29 21 28 20 82 -60 c75 -54 101 -64 101 -38 0 10 -294 231 -349 261 -20 11
-52 31 -71 45 -19 13 2 -11 47 -54z"/>
<path d="M732 3499 c-23 -17 -42 -33 -42 -35 0 -2 22 8 49 23 l49 28 23 -20
22 -20 -18 28 c-22 34 -32 34 -83 -4z"/>
<path d="M485 3306 c-16 -13 -47 -33 -67 -44 -72 -41 -348 -252 -348 -267 0
-25 16 -18 101 45 l82 61 22 -21 c27 -26 33 -25 74 9 33 27 34 30 21 60 -12
31 -12 32 31 69 98 83 161 149 84 88z"/>
<path d="M1839 3365 c-364 -92 -553 -481 -399 -820 96 -213 303 -345 538 -345
160 0 300 58 413 170 231 230 238 587 15 827 -62 66 -137 115 -234 150 -84 31
-247 40 -333 18z m275 -40 c196 -51 353 -214 401 -416 43 -185 -8 -371 -139
-502 -109 -109 -248 -167 -401 -167 -153 0 -280 53 -391 164 -112 111 -158
223 -157 381 2 256 174 482 409 539 79 19 207 19 278 1z"/>
<path d="M1836 3211 c-184 -61 -301 -230 -300 -431 2 -141 59 -256 171 -341
90 -68 170 -92 291 -87 83 3 107 8 164 35 248 116 333 415 184 647 -43 68
-106 121 -186 159 -57 28 -77 32 -165 34 -78 2 -113 -1 -159 -16z m251 -66
c207 -62 319 -307 230 -506 -96 -215 -377 -289 -561 -147 -174 133 -201 380
-59 539 81 89 163 128 274 129 36 0 88 -7 116 -15z"/>
<path d="M2076 3084 c-9 -8 -16 -19 -16 -24 0 -10 29 -40 39 -40 29 0 42 64
15 74 -21 8 -20 8 -38 -10z m42 -15 c3 -8 1 -11 -3 -7 -4 4 -16 3 -26 -3 -21
-11 -25 1 -7 19 15 15 30 11 36 -9z"/>
<path d="M1901 3006 c-49 -18 -111 -74 -132 -120 -23 -50 -24 -134 -3 -184 17
-43 56 -86 99 -113 17 -11 25 -19 19 -19 -6 0 -29 13 -51 29 -57 41 -93 117
-93 195 0 43 -3 57 -10 46 -5 -8 -10 -40 -10 -70 -1 -47 -3 -51 -11 -30 -6 14
-12 47 -14 75 -2 27 -8 51 -13 53 -23 7 -27 -118 -6 -185 3 -10 -2 -5 -12 11
-9 16 -19 61 -23 100 -7 68 -8 69 -15 33 -5 -23 -4 -62 4 -100 37 -194 211
-316 404 -286 79 13 142 47 198 106 50 55 70 88 86 146 9 32 8 37 -6 37 -11 0
-26 -20 -41 -55 -13 -31 -25 -54 -27 -53 -1 2 2 23 7 47 15 67 6 70 -25 7 -30
-61 -41 -69 -27 -20 16 58 7 186 -18 237 -49 100 -175 151 -280 113z m148 -73
c14 -11 26 -26 26 -33 0 -7 -27 -22 -60 -35 -33 -12 -68 -25 -77 -29 -22 -10
-44 -60 -52 -118 -8 -52 -19 -54 -51 -10 -15 21 -20 43 -20 94 0 60 3 70 30
99 17 17 44 38 60 45 39 18 110 12 144 -13z m81 -147 c0 -58 -25 -107 -70
-134 -22 -14 -21 -12 6 19 44 48 54 71 54 123 0 25 2 46 5 46 3 0 5 -24 5 -54z
m55 -113 c-38 -59 -107 -113 -146 -113 -7 0 12 12 42 28 38 19 63 41 84 73 17
25 32 45 34 43 2 -2 -4 -16 -14 -31z m-166 -119 c9 -8 -85 -2 -104 6 -12 5 4
6 40 3 33 -3 62 -7 64 -9z"/>
<path d="M1478 2870 c-4 -14 -8 -36 -9 -50 -1 -16 -4 -11 -9 15 l-6 40 -9 -40
c-5 -25 -4 -71 3 -120 44 -299 342 -512 632 -451 202 42 369 202 415 397 17
72 19 119 6 119 -5 0 -12 -21 -16 -47 -8 -52 -42 -150 -55 -158 -4 -3 -2 16 6
42 8 25 14 69 13 97 l-1 51 -19 -73 c-24 -96 -62 -164 -124 -227 -90 -89 -201
-135 -331 -135 -250 0 -451 199 -455 449 l-1 76 -13 -55 -12 -55 -4 75 c-3 53
-6 68 -11 50z m632 -567 c-49 -22 -165 -27 -220 -10 -44 13 -42 13 55 9 55 -2
116 0 135 6 53 15 70 12 30 -5z"/>
<path d="M1354 2820 l-11 -65 -2 50 c-1 42 -3 47 -13 31 -16 -28 6 -190 38
-273 78 -209 267 -372 481 -413 87 -17 252 -8 333 18 138 45 279 156 353 279
52 86 89 203 93 298 l3 80 -9 -66 c-5 -36 -14 -77 -19 -90 -9 -21 -10 -18 -12
21 l-1 45 -9 -52 c-23 -137 -109 -280 -224 -371 -102 -80 -211 -121 -345 -129
-177 -10 -331 48 -456 172 -124 122 -173 234 -183 415 l-6 115 -11 -65z m739
-657 c-7 -2 -21 -2 -30 0 -10 3 -4 5 12 5 17 0 24 -2 18 -5z m-75 -10 c-15 -2
-42 -2 -60 0 -18 2 -6 4 27 4 33 0 48 -2 33 -4z"/>
<path d="M983 3303 c-35 -26 -61 -48 -60 -49 2 -2 25 3 52 12 28 8 60 12 72 9
29 -7 39 -47 26 -97 -11 -42 -10 -42 50 5 20 16 37 36 37 44 0 20 -66 109 -86
117 -24 9 -24 9 -91 -41z"/>
<path d="M707 3098 l-68 -51 50 -28 c28 -16 58 -43 66 -59 9 -17 18 -30 21
-30 10 0 123 84 124 91 0 10 -90 108 -109 118 -12 7 -34 -4 -84 -41z"/>
<path d="M423 2889 c-68 -50 -123 -97 -123 -105 0 -40 78 -114 120 -114 18 0
160 111 160 125 0 7 -5 26 -11 42 -6 15 -14 54 -17 85 l-7 57 -122 -90z"/>
<path d="M2774 3342 c-21 -14 -74 -95 -74 -113 0 -17 75 -87 155 -144 36 -26
34 -22 -17 31 -51 52 -58 64 -58 100 0 65 28 78 110 49 24 -8 45 -14 46 -12 6
6 -123 97 -137 97 -8 0 -19 -4 -25 -8z"/>
<path d="M3032 3114 c-37 -31 -80 -91 -70 -98 69 -53 119 -88 121 -85 2 2 11
16 20 32 25 39 92 81 118 74 12 -3 18 -2 13 2 -16 15 -152 111 -156 111 -2 0
-23 -16 -46 -36z"/>
<path d="M3303 2927 c-1 -28 -9 -71 -17 -94 l-15 -43 80 -61 c78 -59 80 -60
115 -49 35 12 94 78 94 106 0 10 -239 194 -251 194 -2 0 -5 -24 -6 -53z"/>
<path d="M2955 2780 c-9 -18 -14 -34 -11 -38 3 -3 6 0 6 6 0 6 12 17 26 25 22
12 23 15 10 26 -12 10 -17 7 -31 -19z"/>
<path d="M2906 2693 c-6 -14 -5 -15 5 -6 7 7 10 15 7 18 -3 3 -9 -2 -12 -12z"/>
<path d="M2846 2582 c-14 -27 -14 -31 0 -43 21 -17 36 6 27 41 -8 35 -10 35
-27 2z"/>
<path d="M2801 2494 c-14 -24 -19 -40 -12 -47 13 -13 28 -2 46 33 12 23 12 30
1 39 -11 9 -18 4 -35 -25z"/>
<path d="M2747 2396 c-15 -32 -14 -46 4 -46 13 0 41 59 34 70 -11 17 -21 11
-38 -24z"/>
<path d="M2697 2304 c-10 -20 -15 -39 -12 -43 8 -8 56 51 52 63 -7 22 -24 14
-40 -20z"/>
<path d="M2647 2211 c-20 -33 -21 -41 -7 -41 8 0 40 51 40 65 0 14 -18 2 -33
-24z"/>
<path d="M873 2798 c-8 -10 -2 -20 19 -37 l30 -24 -17 34 c-22 43 -20 42 -32
27z"/>
<path d="M1163 2838 c-139 -174 -180 -275 -137 -336 25 -35 128 -100 260 -163
67 -33 125 -59 129 -59 4 0 -20 29 -53 65 -57 61 -142 188 -142 212 0 8 -12
10 -34 6 -86 -14 -108 123 -22 138 16 3 22 18 32 74 6 39 17 82 23 98 17 44
-2 32 -56 -35z"/>
<path d="M1149 2663 c-13 -15 -12 -15 8 -2 20 12 25 11 40 -4 16 -16 16 -17
-9 -17 -14 0 -29 -6 -31 -12 -4 -10 -8 -9 -16 2 -14 19 -14 5 -1 -21 12 -21
50 -25 68 -7 18 18 14 56 -7 68 -27 14 -36 13 -52 -7z"/>
<path d="M2992 2693 c-42 -61 -59 -123 -33 -123 12 0 83 129 76 140 -10 17
-22 12 -43 -17z"/>
<path d="M1170 2234 c0 -14 49 -74 53 -67 7 12 -29 73 -43 73 -5 0 -10 -2 -10
-6z"/>
<path d="M1556 1695 c15 -47 46 -59 64 -24 15 28 -4 50 -41 47 -24 -2 -28 -6
-23 -23z"/>
<path d="M1269 1534 c-17 -21 0 -49 32 -49 18 0 25 6 27 24 6 38 -34 55 -59
25z"/>
<path d="M2265 1721 c-36 -7 -47 -44 -17 -60 23 -12 47 3 56 36 8 26 0 31 -39
24z"/>
<path d="M2350 1600 c14 -11 48 -31 75 -46 67 -37 40 -4 -30 36 -59 34 -82 39
-45 10z"/>
<path d="M2531 1531 c-13 -24 5 -48 39 -53 22 -3 25 0 21 27 -1 17 -5 33 -8
38 -8 14 -42 7 -52 -12z"/>
<path d="M1885 1625 c-14 -13 -25 -33 -25 -43 0 -33 38 -72 70 -72 32 0 70 39
70 72 0 25 -44 68 -70 68 -11 0 -32 -11 -45 -25z m70 -21 c19 -20 16 -43 -7
-58 -21 -13 -51 2 -56 26 -3 16 23 48 38 48 5 0 16 -7 25 -16z"/>
<path d="M1553 1554 c-24 -14 -43 -32 -43 -41 0 -17 58 -123 67 -123 14 0 113
63 113 72 0 21 -65 118 -80 118 -8 0 -34 -12 -57 -26z"/>
<path d="M1352 1428 c-17 -17 -16 -21 31 -98 l44 -69 27 28 27 28 -36 62 c-37
63 -65 77 -93 49z"/>
<path d="M2195 1519 c-21 -33 -36 -61 -34 -63 16 -12 121 -67 123 -65 13 18
66 119 66 127 0 14 -81 62 -103 62 -8 0 -32 -27 -52 -61z"/>
<path d="M2432 1413 c-11 -16 -27 -43 -36 -62 -17 -32 -17 -34 5 -57 12 -13
25 -24 28 -24 3 0 26 32 49 70 36 58 41 74 32 85 -20 24 -57 18 -78 -12z"/>
<path d="M1340 1248 c0 -9 -6 -19 -12 -21 -7 -3 0 -6 16 -6 26 -1 27 1 15 17
-7 9 -15 19 -16 21 -2 2 -3 -3 -3 -11z"/>
<path d="M1823 1033 c-61 -21 -136 -92 -163 -154 -51 -119 -33 -231 51 -324
63 -68 128 -97 219 -97 92 0 156 29 220 99 60 66 85 138 77 221 -12 112 -95
222 -194 256 -57 20 -154 19 -210 -1z m213 -28 c50 -21 115 -86 140 -140 28
-58 32 -152 9 -200 l-14 -30 7 30 c15 64 6 140 -23 194 -16 28 -34 56 -41 62
-7 6 1 -15 17 -46 28 -51 31 -62 26 -130 -4 -59 -10 -84 -31 -115 -34 -51 -89
-87 -151 -99 -65 -12 -105 -4 -168 33 -103 62 -141 199 -83 303 16 27 20 40
10 32 -46 -38 -71 -152 -52 -234 l7 -30 -14 30 c-23 48 -19 142 9 200 24 53
89 118 134 137 72 29 153 30 218 3z"/>
<path d="M1850 843 c-27 -10 -40 -36 -40 -85 0 -73 20 -88 120 -88 100 0 120
15 120 88 0 53 -5 64 -37 81 -22 11 -135 14 -163 4z m154 -49 c19 -7 22 -64 4
-82 -7 -7 -40 -12 -78 -12 -72 0 -90 10 -90 50 0 14 5 31 12 38 12 12 124 17
152 6z"/>
<path d="M1731 781 c-42 -42 0 -145 80 -198 48 -32 149 -44 199 -23 30 12 109
90 128 126 9 18 7 19 -30 16 -22 -3 -56 -15 -76 -28 -28 -19 -48 -24 -102 -24
-56 0 -73 4 -106 27 -22 15 -51 26 -66 25 -15 -1 -30 3 -34 9 -4 8 0 9 15 4
45 -14 73 53 31 75 -15 8 -24 6 -39 -9z m34 -41 c-5 -8 -11 -8 -17 -2 -6 6 -7
16 -3 22 5 8 11 8 17 2 6 -6 7 -16 3 -22z"/>
<path d="M2087 788 c-38 -20 -9 -86 32 -73 24 7 34 31 21 55 -12 23 -32 30
-53 18z m28 -48 c-5 -8 -11 -8 -17 -2 -6 6 -7 16 -3 22 5 8 11 8 17 2 6 -6 7
-16 3 -22z"/>
<path d="M1320 746 c0 -304 0 -305 22 -320 12 -9 42 -16 65 -16 49 0 49 -2 29
105 -7 39 -27 99 -44 135 -42 85 -56 164 -47 270 4 47 9 95 12 108 4 17 1 22
-16 22 -21 0 -21 -1 -21 -304z"/>
<path d="M2534 874 c-10 -8 -14 -13 -7 -10 7 4 6 -5 -4 -24 -13 -28 -13 -33 1
-55 21 -32 52 -40 81 -21 48 32 24 106 -33 106 -21 0 -24 2 -12 10 8 5 10 10
4 10 -5 0 -19 -7 -30 -16z m62 -29 c14 -10 15 -14 5 -15 -8 0 -25 -10 -38 -21
-20 -20 -23 -20 -29 -5 -4 10 1 25 11 36 22 24 26 24 51 5z"/>
<path d="M2500 736 c0 -28 -82 -177 -123 -222 l-43 -47 15 -59 c9 -32 20 -57
26 -55 5 2 36 55 68 118 62 123 102 250 84 268 -15 15 -27 14 -27 -3z"/>
<path d="M1570 384 c-20 -51 -2 -78 47 -72 23 2 29 8 31 35 3 27 -2 34 -27 47
-39 21 -40 20 -51 -10z m60 -11 c0 -10 -47 -32 -54 -26 -2 3 -2 11 1 19 5 14
53 20 53 7z"/>
<path d="M1670 357 c0 -15 -9 -36 -20 -47 l-20 -20 123 1 c67 0 140 3 162 8
38 7 36 7 -35 14 -83 8 -166 32 -192 55 -17 14 -18 13 -18 -11z"/>
<path d="M2175 290 c-14 -23 -7 -71 13 -90 12 -11 26 -20 31 -20 13 0 51 49
51 66 0 37 -78 72 -95 44z m68 -17 c6 -5 -45 -43 -58 -43 -10 0 -5 26 7 38 13
13 41 16 51 5z"/>
<path d="M2055 224 c-78 -29 -202 -47 -290 -43 l-70 4 3 -32 c3 -21 -2 -37
-16 -51 l-20 -20 235 -1 c218 -2 238 0 277 19 23 11 55 33 71 50 l28 29 -31
-11 c-43 -17 -83 -1 -104 40 -9 19 -18 35 -20 36 -1 1 -30 -8 -63 -20z m86
-50 c13 -14 17 -23 9 -19 -13 5 -46 45 -37 45 2 0 14 -11 28 -26z m-164 -71
c-20 -2 -52 -2 -70 0 -17 2 0 4 38 4 39 0 53 -2 32 -4z"/>
<path d="M1599 195 c-1 -3 -1 -14 -1 -25 0 -42 3 -50 23 -60 16 -9 26 -8 45 5
30 19 31 49 2 69 -21 15 -67 22 -69 11z m64 -22 c4 -3 -5 -12 -20 -20 -29 -15
-38 -11 -30 12 6 15 38 21 50 8z"/>
</g>
</svg>
