<?xml version="1.0" standalone="no"?>
<!DOCTYPE svg PUBLIC "-//W3C//DTD SVG 20010904//EN"
 "http://www.w3.org/TR/2001/REC-SVG-20010904/DTD/svg10.dtd">
<svg version="1.0" xmlns="http://www.w3.org/2000/svg"
 width="550.000000pt" height="550.000000pt" viewBox="0 0 800.000000 640.000000"
 preserveAspectRatio="xMidYMid meet">

<g transform="translate(0.000000,640.000000) scale(0.100000,-0.100000)"
fill="#000000" stroke="none">
<path d="M4830 5929 c-54 -10 115 -9 180 1 47 7 41 8 -45 7 -55 -1 -116 -5
-135 -8z"/>
<path d="M4697 5924 c-2 -2 -119 -13 -195 -19 -18 -2 -36 -6 -39 -9 -9 -9 41
-7 132 4 44 5 104 12 134 14 67 6 82 18 18 15 -26 -2 -48 -4 -50 -5z"/>
<path d="M4270 5874 c-209 -35 -321 -98 -390 -218 -33 -58 -60 -151 -60 -206
0 -20 -5 -41 -12 -48 -10 -10 -8 -19 7 -45 l18 -32 -22 20 -23 20 -19 -24
c-23 -28 -25 -64 -4 -81 18 -15 20 -78 5 -132 -13 -44 6 -92 40 -103 15 -5 19
-12 14 -30 -3 -13 -1 -32 6 -42 9 -16 10 -15 4 7 l-6 25 24 -23 c26 -24 32
-49 15 -70 -7 -9 -5 -18 7 -30 22 -25 20 -29 -8 -29 -51 0 -130 -48 -173 -105
-24 -30 -43 -58 -43 -61 0 -4 21 -7 48 -8 l47 0 -65 -19 c-36 -11 -77 -19 -92
-20 -19 0 -32 -8 -43 -27 -24 -45 -67 -88 -113 -113 l-42 -24 21 -23 c12 -12
37 -27 56 -34 18 -6 31 -14 28 -19 -3 -4 2 -10 10 -14 8 -3 15 -1 15 4 0 16
69 88 106 111 38 23 47 47 12 28 -21 -11 -22 -11 -9 4 8 10 28 17 48 17 l35 0
-23 -20 c-21 -17 -21 -19 -4 -13 11 3 30 13 43 21 19 12 30 12 67 2 26 -7 65
-10 90 -6 38 5 48 2 62 -14 10 -11 24 -20 31 -20 11 0 12 -3 3 -14 -10 -12 -7
-18 16 -32 15 -9 44 -27 63 -39 45 -28 63 -35 130 -51 l55 -13 -47 2 -47 2 20
-21 c31 -33 22 -41 -11 -9 -41 40 -38 23 6 -30 22 -25 43 -41 50 -38 8 3 14 0
14 -6 0 -6 -5 -11 -10 -11 -7 0 -7 -6 0 -19 5 -11 10 -33 10 -50 0 -16 5 -33
10 -36 14 -9 13 78 -2 93 -9 9 -9 12 1 12 8 0 11 7 8 20 -8 32 10 23 22 -11
14 -40 14 -99 1 -99 -5 0 -10 -4 -10 -10 0 -5 -10 -20 -22 -32 -17 -17 -20
-18 -15 -4 7 18 -14 70 -34 81 -18 12 -49 -26 -49 -59 0 -47 25 -63 103 -69
33 -2 17 -17 -20 -17 -23 0 -48 9 -67 24 -17 13 -51 33 -76 46 -25 13 -51 30
-58 39 -12 14 -13 14 -7 -4 5 -15 3 -17 -5 -9 -9 9 -8 17 2 33 7 11 16 21 21
21 4 0 2 6 -5 14 -9 10 -17 11 -26 3 -11 -8 -11 -6 -1 15 l11 26 36 -24 c24
-17 38 -21 43 -13 3 6 9 7 12 2 6 -10 67 -17 67 -7 0 19 -38 65 -63 77 -19 10
-25 17 -17 22 21 13 -28 38 -61 31 -19 -4 -28 -2 -24 4 4 6 8 25 10 42 4 29 4
30 -11 12 -14 -18 -15 -18 -9 4 8 29 -19 40 -45 17 -18 -16 -19 -16 -15 13 3
20 -1 32 -11 36 -9 3 -12 1 -9 -4 3 -6 1 -10 -5 -10 -8 0 -10 9 -6 25 12 46
-12 26 -35 -30 -15 -36 -25 -51 -31 -43 -11 19 -10 30 4 22 8 -5 9 -2 5 10 -4
10 -1 19 8 22 14 6 22 34 10 34 -9 0 -41 -33 -54 -55 -8 -13 -11 -14 -7 -3 2
9 1 32 -5 51 -9 32 -12 34 -47 32 -20 -1 -46 -7 -57 -13 -11 -6 -28 -13 -37
-16 -11 -3 -15 -12 -11 -24 3 -13 -5 -30 -24 -49 -15 -16 -21 -20 -12 -8 35
44 27 57 -10 15 -21 -25 -36 -49 -33 -54 3 -5 -7 -6 -24 -1 -16 4 -60 13 -99
20 -43 8 -58 14 -40 15 31 2 28 4 -17 14 l-27 6 14 41 c18 49 18 49 6 49 -5 0
-12 -16 -15 -36 -5 -22 -12 -33 -19 -30 -7 3 -20 9 -29 12 -25 9 -22 24 4 24
l22 0 -22 20 c-28 27 -29 44 -1 30 11 -7 23 -9 26 -6 3 3 -7 10 -22 16 -32 12
-55 -1 -55 -32 0 -10 -4 -16 -10 -13 -5 3 -10 15 -10 26 0 31 -76 106 -128
126 -70 27 -239 24 -357 -6 -177 -45 -338 -145 -440 -271 -157 -194 -149 -363
23 -447 51 -25 67 -28 157 -28 253 2 522 126 666 307 58 74 80 123 86 190 3
32 10 58 15 58 6 0 7 -21 3 -52 -20 -160 -175 -333 -388 -433 -123 -58 -205
-76 -369 -82 -95 -4 -138 -9 -138 -17 0 -6 -13 -43 -30 -81 -27 -65 -40 -113
-22 -90 9 13 172 7 172 -6 0 -6 -4 -7 -10 -4 -5 3 -10 0 -10 -7 0 -9 -3 -9
-10 2 -7 11 -10 11 -10 2 0 -9 -5 -10 -17 -4 -10 5 -31 6 -48 2 -27 -5 -23 -7
32 -19 63 -14 119 -9 108 9 -4 6 -11 7 -17 4 -6 -4 -8 -1 -6 7 3 8 10 13 16
12 5 -1 20 25 32 57 12 33 24 60 26 60 5 0 138 -31 157 -36 9 -3 17 -12 17
-20 0 -19 -70 -183 -80 -189 -5 -3 -49 11 -100 30 -326 124 -604 121 -875 -12
-38 -19 -81 -43 -95 -54 -19 -16 -12 -14 25 6 126 68 290 117 430 129 68 7
244 -12 310 -33 l30 -9 -30 -2 c-30 -2 -30 -2 -5 -10 25 -8 25 -8 -5 -10 -26
-2 -24 -3 15 -12 25 -5 50 -15 55 -20 7 -8 4 -9 -8 -5 -24 9 -149 29 -153 25
-2 -2 31 -14 72 -27 55 -17 78 -29 84 -45 8 -20 9 -20 10 -1 1 19 1 19 11 1 9
-14 8 -21 -2 -28 -11 -8 -11 -9 1 -5 8 2 14 13 13 23 -1 18 -1 18 11 2 7 -10
18 -18 25 -18 6 0 11 -9 11 -21 0 -11 5 -17 10 -14 6 4 8 12 4 18 -3 7 1 4 9
-6 8 -9 22 -17 31 -17 19 0 19 -1 7 -34 l-10 -24 -53 14 c-66 18 -280 29 -372
20 -87 -10 -78 -20 16 -17 83 2 289 -16 300 -27 4 -4 -12 -6 -35 -4 l-42 3 60
-30 c40 -20 53 -30 38 -31 -12 0 -23 -5 -25 -11 -3 -9 -9 -9 -25 0 -12 6 -67
14 -123 17 -104 6 -208 -10 -272 -43 -15 -7 -31 -14 -35 -14 -5 -1 -20 -10
-35 -20 -14 -10 -29 -19 -32 -19 -4 0 -12 -5 -19 -10 -7 -6 -23 -19 -37 -29
-14 -11 -25 -25 -26 -33 -4 -54 -4 -53 -14 -38 -6 9 -5 17 3 22 6 4 8 10 5 14
-4 3 -14 -1 -22 -9 -11 -10 -12 -17 -4 -19 8 -3 8 -9 0 -24 -10 -17 -11 -17
-12 -1 0 26 -12 21 -43 -18 -33 -41 -25 -48 9 -7 13 15 24 23 24 18 0 -17 -52
-65 -65 -60 -7 3 -15 -2 -18 -10 -4 -11 -1 -13 11 -9 15 6 15 5 3 -10 -7 -9
-17 -14 -22 -11 -5 3 -6 -3 -2 -12 5 -13 2 -16 -8 -12 -10 4 -14 -3 -16 -20 0
-15 -6 -28 -12 -30 -6 -2 -11 -8 -11 -13 0 -18 16 -8 33 20 46 78 170 183 277
236 41 20 83 41 93 46 9 5 61 17 114 26 77 13 111 14 163 6 88 -14 162 -46
154 -67 -3 -9 -1 -16 5 -16 6 0 11 -4 11 -10 0 -5 -12 -10 -27 -10 l-28 0 25
-19 c13 -11 29 -17 34 -14 5 3 6 1 3 -4 -4 -6 0 -16 9 -23 12 -11 12 -15 2
-21 -18 -12 -30 -11 -23 1 3 6 -1 7 -9 4 -12 -5 -4 -16 33 -45 47 -38 65 -61
54 -72 -2 -3 -25 10 -51 29 -196 150 -407 146 -568 -10 -32 -31 -61 -56 -65
-56 -14 0 -76 -106 -112 -190 -44 -105 -92 -270 -107 -370 -14 -96 -19 -286
-11 -372 5 -53 4 -68 -7 -68 -7 0 -10 -5 -7 -10 4 -6 11 -8 16 -5 5 4 9 -6 9
-22 0 -15 7 -57 15 -93 8 -36 17 -76 19 -90 17 -94 76 -266 116 -333 29 -51
42 -56 17 -7 -17 33 -37 90 -32 90 3 0 12 -15 20 -32 31 -68 82 -157 110 -193
40 -54 145 -158 152 -151 7 6 85 -33 95 -48 4 -6 27 -11 52 -11 25 0 46 -3 46
-6 0 -3 24 -2 53 1 63 9 152 45 210 87 41 28 197 197 197 212 0 4 -24 7 -54 7
-49 -1 -54 -3 -66 -30 -23 -52 -152 -173 -214 -202 -49 -22 -68 -26 -124 -22
-99 6 -153 35 -247 134 -89 93 -87 90 -136 159 -76 107 -139 249 -138 310 0
11 11 -12 24 -51 30 -92 83 -196 95 -189 6 3 10 8 10 11 0 3 -4 3 -9 0 -10 -7
-33 42 -26 55 4 5 2 9 -4 9 -12 0 -46 90 -55 145 l-6 40 14 -30 c7 -16 12 -33
10 -36 -2 -4 3 -10 12 -13 14 -5 14 -9 3 -23 -12 -14 -12 -16 1 -11 8 2 24 34
34 71 11 37 24 67 29 67 5 0 7 -6 4 -14 -24 -61 -14 -244 12 -238 9 2 11 -3 7
-13 -3 -9 -2 -13 4 -10 6 3 10 -2 10 -11 0 -41 12 -1 15 52 2 33 5 73 6 89 1
17 5 -16 9 -72 3 -56 11 -108 18 -116 6 -7 9 -17 5 -20 -8 -9 85 -97 103 -97
10 0 13 12 10 48 l-4 47 17 -38 c10 -21 22 -39 27 -40 5 -1 8 -6 6 -11 -2 -5
4 -6 12 -3 8 3 17 1 20 -6 2 -7 5 -4 5 6 1 9 -6 17 -14 17 -8 0 -15 6 -15 14
0 9 7 12 20 9 16 -4 19 -2 14 11 -5 12 -2 15 12 10 15 -4 13 -1 -6 18 -77 72
-100 120 -117 236 -9 64 -25 51 -21 -18 1 -33 2 -60 0 -60 -5 0 -82 163 -82
174 1 6 14 -14 30 -44 32 -60 39 -61 14 -2 -25 60 -54 193 -54 250 0 32 -4 52
-11 52 -8 0 -10 -22 -6 -72 5 -61 4 -67 -5 -38 -14 48 -4 330 18 450 9 52 29
137 45 189 15 52 27 97 25 98 -2 2 -12 -20 -24 -49 -11 -29 -21 -46 -21 -37
-1 8 10 43 24 77 14 34 25 67 25 74 0 16 -31 -35 -50 -82 -14 -35 -27 -50 -44
-50 -5 0 -1 10 8 23 32 45 37 62 9 32 -16 -17 -35 -40 -43 -51 -8 -11 -36 -35
-62 -53 -55 -37 -65 -53 -13 -21 46 28 37 3 -10 -29 -20 -13 -33 -26 -30 -29
2 -3 11 1 20 8 9 8 15 8 15 2 0 -6 -4 -13 -9 -16 -9 -6 -33 -66 -26 -66 2 0
16 22 32 50 21 37 38 54 66 65 20 8 39 15 41 15 2 0 -5 -33 -15 -72 -11 -40
-22 -86 -25 -103 -3 -16 -12 -34 -20 -38 -32 -18 -118 -93 -122 -106 -3 -8 16
2 42 23 25 21 46 34 46 29 0 -5 -4 -13 -8 -18 -5 -6 -19 -39 -31 -73 -13 -35
-31 -72 -42 -83 -19 -19 -19 -18 -20 29 0 26 -2 55 -4 65 -2 10 0 31 5 47 5
19 5 30 -1 30 -6 0 -7 5 -3 12 4 6 6 39 5 72 -2 52 5 104 35 271 3 21 2 25 -4
15 -6 -8 -13 -34 -17 -57 -4 -24 -10 -45 -15 -48 -16 -10 -33 -354 -18 -378
13 -22 -4 -28 -19 -7 -26 37 -17 254 18 415 20 92 70 239 110 322 22 46 39 84
38 85 -6 9 132 143 161 158 42 21 146 53 160 48 5 -2 3 -16 -5 -33 -8 -16 -23
-57 -33 -90 l-18 -60 -51 -6 c-81 -10 -94 -26 -16 -21 60 4 66 3 55 -11 -7 -8
-34 -18 -60 -22 -50 -7 -159 -51 -149 -61 3 -3 26 4 52 15 25 11 69 23 96 27
l49 7 -15 -42 c-16 -46 -7 -56 13 -13 14 33 48 72 62 72 16 0 12 -15 -11 -44
-14 -17 -16 -26 -7 -25 27 1 49 15 61 39 9 17 20 24 34 22 29 -4 56 33 88 123
23 61 30 73 41 64 12 -10 12 -13 0 -23 -14 -11 -69 -147 -62 -154 9 -9 37 35
57 88 12 33 23 60 25 60 9 0 67 -56 76 -73 9 -18 8 -18 -19 -2 -17 11 -7 -2
24 -31 42 -40 50 -53 43 -69 -17 -40 -8 -49 10 -10 16 34 18 35 13 10 -3 -16
-6 -36 -6 -45 1 -8 -1 -22 -3 -30 -4 -12 -6 -13 -14 0 -13 20 -18 11 -30 -50
-7 -38 -7 -57 1 -66 8 -10 5 -21 -15 -45 l-27 -31 7 42 c5 31 4 41 -4 36 -7
-4 -12 -1 -12 8 0 36 -21 12 -35 -42 -8 -31 -21 -69 -29 -83 -10 -19 -10 -29
-2 -40 12 -16 46 -14 46 2 0 5 4 9 9 9 5 0 7 -9 4 -20 -3 -11 -10 -20 -16 -20
-8 0 -8 -3 0 -11 8 -8 1 -41 -25 -120 -28 -83 -34 -111 -25 -120 9 -9 14 -6
22 12 25 62 136 425 158 514 34 141 84 321 108 385 7 19 37 112 65 205 29 94
67 219 86 279 19 60 34 115 34 121 0 15 42 118 50 125 4 3 12 14 18 25 24 41
10 -8 -35 -132 -60 -167 -93 -273 -84 -273 4 0 12 12 19 28 11 25 11 25 6 2
-3 -14 -8 -42 -11 -62 -4 -28 -10 -38 -24 -38 -11 0 -19 -4 -19 -9 0 -5 10 -9
23 -8 12 0 40 -3 62 -7 37 -7 39 -6 21 8 -11 9 -26 16 -34 16 -10 0 -12 6 -7
18 4 9 13 37 20 62 7 25 27 85 44 133 17 49 31 101 31 115 -1 33 80 262 93
262 4 0 6 -4 2 -9 -5 -8 10 -9 58 -2 5 0 6 4 4 9 -3 4 6 7 19 7 15 0 24 -6 24
-15 -1 -8 -32 -107 -70 -220 -39 -113 -72 -214 -75 -225 -2 -11 -17 -59 -32
-106 l-28 -86 32 -53 c27 -46 130 -292 178 -430 56 -157 107 -384 124 -554 6
-66 13 -91 25 -98 14 -8 15 -13 5 -24 -6 -8 -8 -18 -4 -22 4 -4 10 -1 12 6 6
17 23 15 23 -2 0 -11 -22 -16 -87 -20 -49 -4 -100 -9 -115 -11 -15 -2 -28 0
-30 6 -2 5 -27 10 -56 10 -29 1 -50 4 -47 8 4 3 12 6 18 6 29 0 -26 320 -89
520 -36 115 -113 272 -125 254 -13 -21 -69 -203 -69 -226 0 -11 -7 -37 -15
-57 -14 -33 -13 -40 9 -108 24 -71 33 -111 61 -292 8 -48 15 -89 17 -91 2 -1
18 0 36 2 29 5 32 9 32 39 0 42 -17 129 -35 174 -19 50 -39 130 -33 135 3 3
13 -24 23 -60 9 -36 21 -67 25 -70 9 -6 9 -6 -20 115 -22 89 -64 205 -83 229
-9 12 -9 13 0 7 9 -5 11 -2 7 8 -3 9 -1 16 5 16 6 0 11 10 12 23 1 21 1 21 8
-3 4 -14 4 -26 -1 -28 -4 -2 -3 -13 4 -25 6 -12 12 -31 13 -41 1 -11 7 -22 14
-24 6 -2 9 -8 5 -13 -3 -5 0 -9 6 -9 7 0 9 -8 5 -20 -7 -23 18 -29 32 -7 12
19 10 56 -4 61 -7 3 -10 12 -7 21 3 8 1 15 -5 15 -6 0 -8 7 -4 17 5 12 3 14
-7 8 -10 -6 -12 -4 -7 8 3 10 2 17 -4 17 -6 0 -8 4 -5 9 3 5 1 23 -5 41 -9 24
-14 29 -21 18 -7 -10 -8 -8 -4 5 3 10 6 23 6 28 0 24 18 4 42 -48 46 -99 106
-359 142 -620 l6 -43 -107 -1 c-60 -1 -123 -3 -140 -5 -18 -2 -33 1 -33 6 0 6
10 10 21 10 21 0 21 3 16 83 -3 45 -8 93 -11 107 -4 14 -7 39 -8 57 -1 34 -18
36 -18 2 0 -11 -3 -18 -7 -16 -5 3 -9 -6 -10 -21 0 -14 -8 -29 -17 -34 -9 -5
-16 -20 -16 -33 0 -31 -15 -33 -17 -4 -1 12 -7 27 -13 33 -13 13 -4 -36 12
-67 17 -32 23 -204 8 -222 -11 -13 -9 -15 11 -16 13 -1 37 -3 52 -5 16 -1 38
1 50 6 17 7 18 9 5 9 -11 1 -18 9 -18 21 0 19 7 20 111 20 71 0 108 4 104 10
-3 6 -24 10 -46 10 -24 0 -39 5 -39 13 0 8 16 11 55 9 47 -3 55 -7 55 -24 0
-14 5 -18 16 -14 9 3 19 6 24 6 4 0 10 9 13 20 4 17 9 18 38 10 19 -6 53 -10
76 -10 40 0 41 -1 48 -38 6 -36 8 -38 38 -34 33 5 61 25 50 36 -4 3 -24 6 -45
6 -21 0 -38 5 -38 10 0 6 14 10 31 10 17 0 28 4 24 10 -4 6 9 10 33 10 38 0
39 -1 36 -32 -6 -75 -31 -101 -73 -79 -26 14 -54 14 -49 0 3 -10 29 -17 76
-21 6 -1 12 -5 12 -10 0 -4 -15 -6 -34 -3 -31 3 -35 1 -39 -23 l-4 -27 -2 26
c-1 35 -29 59 -42 38 -6 -10 -9 -10 -9 -1 0 6 -5 12 -11 12 -6 0 -8 -10 -5
-22 3 -13 3 -17 0 -10 -3 6 -10 10 -15 7 -5 -4 -6 1 -3 9 3 9 1 16 -5 16 -6 0
-11 -7 -11 -15 0 -8 -4 -15 -9 -15 -5 0 -12 -7 -15 -16 -5 -14 -4 -15 8 -5 11
9 15 9 19 -1 4 -10 6 -10 6 -1 1 9 8 10 26 3 19 -7 25 -6 25 5 0 7 4 16 9 19
5 3 8 -6 9 -19 0 -22 -5 -25 -37 -26 -20 -1 -42 -1 -48 0 -8 1 -10 -5 -7 -14
3 -8 10 -12 15 -9 5 3 9 0 9 -5 0 -19 20 -12 21 7 0 16 1 16 8 -1 8 -22 21
-24 32 -5 6 9 9 6 9 -10 0 -13 -4 -20 -10 -17 -6 3 -10 0 -10 -7 0 -9 -2 -10
-8 -2 -11 18 -56 12 -58 -9 -1 -12 -1 -13 3 -2 2 8 9 15 14 15 6 0 7 -5 4 -10
-6 -9 22 -15 53 -11 15 2 15 4 2 -117 -18 -162 -60 -342 -105 -447 -62 -144
-82 -182 -198 -369 -7 -11 -19 -29 -29 -40 -61 -77 -93 -115 -121 -147 -37
-41 -170 -124 -175 -109 -6 17 -23 11 -20 -8 2 -11 -3 -17 -14 -16 -10 1 -15
-2 -12 -7 3 -5 1 -9 -5 -9 -5 0 -17 -3 -27 -7 -13 -5 -15 -3 -9 8 8 12 6 12
-9 0 -10 -8 -57 -23 -104 -33 l-87 -17 120 2 c114 2 123 4 188 36 37 19 67 38
67 43 0 5 16 16 36 24 37 15 311 283 354 345 21 31 19 30 -24 -11 l-48 -45 46
78 c25 43 68 106 96 141 82 107 135 203 99 180 -8 -4 -9 0 -4 15 12 40 -5 21
-31 -34 -29 -61 -53 -87 -31 -33 8 18 33 84 57 145 l43 113 22 -48 c36 -77
145 -185 227 -227 39 -19 83 -35 98 -35 66 0 121 -14 146 -36 26 -25 44 -31
44 -15 0 13 30 22 43 14 7 -5 95 -8 197 -8 146 0 190 -3 207 -15 27 -18 43 -6
21 16 -11 11 -38 17 -89 19 -41 1 -94 3 -119 4 -72 2 -28 17 58 19 79 2 182
-15 182 -30 0 -4 9 -8 19 -8 11 0 21 -5 23 -12 5 -13 398 -12 503 2 55 7 51 7
-48 9 -69 1 -106 5 -102 11 3 6 28 10 56 10 57 0 68 19 12 21 l-38 2 40 8 c22
4 -89 6 -247 4 l-286 -3 -12 29 c-7 16 -19 29 -27 29 -10 0 -13 6 -9 16 3 9 6
24 6 35 0 14 6 18 23 15 12 -3 36 -5 52 -6 25 0 27 -2 13 -11 -10 -5 -18 -19
-18 -31 0 -19 4 -20 48 -14 26 3 157 9 292 13 224 6 247 8 272 26 15 11 29 19
31 16 1 -2 18 -37 37 -78 45 -96 140 -241 199 -304 183 -197 478 -285 708
-212 94 29 260 124 192 109 -19 -5 -21 -4 -9 5 8 6 24 11 36 11 23 0 142 119
191 190 43 63 85 149 78 160 -3 5 0 12 6 16 8 5 9 3 4 -7 -5 -10 -5 -11 3 -4
14 14 42 100 42 130 0 32 5 34 91 39 96 7 153 27 157 56 3 15 -1 21 -10 18 -7
-3 -19 1 -26 8 -7 7 -22 11 -35 8 -12 -3 -64 -6 -114 -6 -51 0 -90 -5 -87 -9
3 -5 -2 -9 -10 -9 -9 0 -16 4 -16 9 0 9 -75 7 -197 -3 -32 -3 -105 -8 -163
-11 -58 -4 -117 -8 -132 -10 -22 -2 -28 2 -28 16 0 21 20 25 36 9 8 -8 41 -8
110 0 54 5 107 10 118 11 16 0 18 6 13 49 -7 60 7 72 81 70 26 -1 67 3 92 8
73 16 227 26 215 14 -5 -6 -46 -13 -90 -15 -44 -3 -80 -6 -80 -7 0 -1 -20 -3
-44 -5 -42 -2 -61 -16 -61 -44 0 -11 4 -9 15 5 11 14 14 15 15 4 0 -29 36 -41
82 -29 24 6 74 16 111 22 37 7 72 18 76 26 7 11 9 11 14 0 5 -12 6 -12 6 0 1
11 4 11 18 0 15 -13 15 -12 4 8 -14 27 -4 30 15 6 13 -17 14 -17 8 0 -3 9 -1
17 5 17 6 0 11 -7 11 -16 0 -14 3 -14 16 -3 13 10 17 10 26 -2 8 -11 9 -10 4
4 -4 13 -2 16 7 10 19 -12 38 -12 30 0 -4 6 -1 8 8 5 8 -3 28 0 44 7 28 12 26
13 -37 11 -38 0 -68 -3 -68 -6 0 -4 -64 -4 -115 0 -5 0 -3 5 5 10 13 8 13 11
1 19 -8 5 -11 16 -8 25 4 10 1 16 -9 16 -11 0 -13 -6 -9 -20 6 -18 1 -20 -52
-22 -88 -3 -326 3 -335 8 -4 3 -17 0 -28 -6 -16 -9 -18 -8 -14 5 5 12 49 21
85 17 4 -1 7 10 7 24 -1 15 -4 21 -8 15 -8 -14 -82 -28 -79 -15 4 22 -2 44
-11 44 -6 0 -9 -12 -8 -27 l3 -28 -107 -10 -107 -10 -15 33 c-20 41 -20 40 7
37 12 -1 56 2 97 6 80 9 129 13 339 29 73 6 136 12 140 14 3 2 80 9 171 15
208 14 294 22 298 26 16 16 -206 17 -305 1 -18 -3 -33 -1 -33 3 0 9 73 20 150
23 43 1 42 2 -15 8 l-60 7 70 3 c39 1 73 2 78 1 4 0 7 3 7 8 0 6 9 8 20 6 11
-2 20 0 20 6 0 9 -47 11 -212 12 -43 0 -78 3 -78 8 0 4 39 10 88 14 149 11
125 15 -58 9 -96 -3 -180 -6 -186 -6 -7 -1 -9 -19 -6 -49 l4 -47 -62 -4 c-64
-3 -84 8 -72 41 2 7 -2 17 -9 22 -15 9 -12 10 33 12 15 1 24 -6 30 -23 6 -23
7 -23 5 5 -2 25 -7 31 -32 35 -21 4 -29 11 -27 22 1 9 -2 19 -8 23 -5 3 -10 0
-10 -7 0 -9 -3 -9 -10 2 -8 12 -10 9 -10 -12 0 -23 -4 -28 -24 -28 -14 0 -28
-4 -31 -10 -4 -6 7 -10 27 -10 27 0 33 -4 34 -23 1 -12 4 -29 5 -37 3 -10 -5
-16 -23 -18 -60 -7 -24 -17 54 -15 l83 1 -65 -8 c-36 -4 -96 -10 -135 -14 -38
-3 -92 -8 -120 -11 l-50 -5 58 14 c32 7 61 17 65 21 4 4 -3 5 -15 1 -20 -6
-21 -4 -16 35 6 39 5 42 -15 37 -12 -4 -22 -3 -22 2 0 4 -11 8 -24 8 -23 0
-24 -4 -19 -32 3 -17 10 -37 16 -43 6 -9 4 -15 -8 -19 -22 -9 -35 13 -31 51 2
17 4 36 5 43 1 7 16 12 42 12 34 0 69 17 69 33 0 6 -63 7 -73 0 -5 -3 -3 -9 3
-13 8 -5 3 -7 -13 -7 -18 1 -27 8 -27 19 0 18 -31 81 -42 86 -5 2 -8 28 -8 58
0 37 -11 84 -34 147 -46 125 -47 134 -34 198 11 53 10 60 -15 113 -30 62 -53
144 -44 153 4 3 9 -3 13 -13 3 -10 12 -32 19 -49 l14 -30 0 26 c1 15 -11 82
-25 150 -27 129 -27 178 2 210 14 15 14 19 3 20 -24 1 -73 10 -77 14 -2 2 48
2 110 0 62 -2 135 0 162 5 48 7 49 7 89 -37 23 -25 43 -40 45 -34 2 6 36 -16
75 -49 39 -32 74 -57 76 -54 8 8 -61 72 -90 85 -23 9 -96 95 -86 100 4 2 260
18 320 20 31 1 57 6 57 10 0 5 5 9 11 9 5 0 7 -6 3 -12 -6 -10 -4 -10 7 0 7 6
21 12 31 12 10 0 18 -6 18 -12 0 -7 6 -4 12 7 6 11 17 25 25 32 13 10 11 11
-10 9 -14 -1 -32 -8 -40 -15 -12 -9 -18 -8 -31 4 -9 9 -16 13 -16 8 0 -10 -50
-10 -66 0 -7 4 -15 -1 -19 -11 -6 -16 -7 -16 -19 0 -7 10 -15 16 -18 13 -5 -5
-207 -16 -341 -18 -59 -1 -97 2 -97 8 0 6 12 10 28 11 91 1 123 5 117 14 -4 7
-62 9 -161 7 -85 -2 -152 -2 -150 1 3 2 38 8 78 12 40 5 87 11 103 13 17 3 56
8 88 12 31 3 57 11 57 16 0 12 -21 12 -204 -7 -87 -8 -160 -13 -163 -11 -2 3
35 11 83 18 47 7 92 18 98 25 7 6 21 14 32 17 10 4 -57 4 -151 2 -192 -5 -188
8 6 20 71 5 113 11 99 15 -17 4 3 9 63 16 l89 10 13 -26 c18 -31 19 -20 3 16
-12 26 -13 26 -88 21 l-75 -6 60 18 c39 11 64 14 73 8 8 -7 12 -4 12 9 1 13 7
9 20 -16 l20 -35 -6 37 c-6 36 -5 37 33 47 33 9 92 17 257 36 22 3 42 8 45 11
7 7 -145 -4 -209 -16 -25 -5 -47 -7 -49 -5 -1 2 8 19 22 37 40 53 58 97 59
139 0 22 -2 43 -6 46 -3 4 -6 -9 -6 -28 0 -19 -5 -41 -10 -49 -6 -10 -7 6 -3
49 4 45 3 62 -5 57 -6 -4 -16 2 -22 13 -6 11 -6 22 -1 25 5 3 12 -1 15 -10 4
-9 9 -15 12 -12 9 10 -28 88 -39 81 -6 -3 -7 -1 -3 5 16 26 -92 142 -132 142
-7 0 -12 8 -12 18 0 11 -9 27 -20 37 -11 10 -20 21 -20 24 0 3 60 5 132 5 103
-1 120 0 73 6 -33 4 -90 8 -127 9 l-66 1 -21 43 c-26 55 -26 59 3 48 22 -9
235 -5 245 4 2 3 -52 5 -122 5 -73 0 -128 4 -132 10 -3 6 -18 10 -33 10 -35 0
-90 34 -101 63 -5 12 -25 36 -44 53 -25 22 -36 41 -40 70 -19 127 -31 187 -35
169 -2 -11 -9 -23 -15 -27 -12 -8 3 -144 22 -192 18 -45 21 -27 5 34 -8 30
-14 77 -13 105 1 47 2 45 14 -30 15 -96 29 -129 61 -144 16 -7 24 -19 24 -35
0 -14 9 -31 22 -40 47 -34 -13 -37 -77 -4 -27 14 -84 33 -125 43 -41 10 -80
22 -86 27 -7 5 -28 9 -48 10 -45 2 -39 10 10 14 20 1 40 8 44 15 17 26 20 106
6 140 -8 19 -17 51 -20 73 -8 48 -21 73 -30 57 -17 -27 -24 -8 -9 25 14 28 15
39 5 54 -9 14 -8 20 1 23 9 4 9 6 0 6 -7 1 -19 -11 -27 -26 -8 -16 -26 -41
-40 -57 -14 -16 -26 -32 -26 -36 0 -10 -113 -120 -118 -115 -2 2 3 16 12 32 8
16 11 35 7 42 -11 17 -35 1 -86 -59 -22 -25 -66 -65 -97 -88 l-57 -42 6 33 c3
17 11 43 18 57 14 29 10 50 -11 50 -8 0 -14 4 -14 10 0 15 -28 0 -33 -18 -4
-15 -5 -15 -6 0 -1 16 44 48 69 48 12 0 71 39 82 55 4 5 2 12 -4 16 -7 4 -6 8
3 12 12 5 11 8 -1 17 -12 9 -10 11 12 7 15 -2 25 0 22 5 -9 14 7 49 18 42 7
-4 8 -2 4 5 -4 6 -12 9 -17 6 -5 -4 -9 -1 -9 5 0 6 10 15 23 20 12 5 16 9 10
9 -7 1 -13 8 -13 16 0 9 -6 15 -12 14 -23 -3 -51 1 -46 6 2 3 54 10 114 16 68
6 115 16 124 25 12 12 5 14 -58 14 -53 0 -77 4 -91 17 -11 9 -28 18 -39 19
-10 2 -29 8 -43 13 l-24 9 30 11 c17 6 51 23 76 36 26 14 53 25 62 25 24 0 70
27 58 35 -6 3 -9 10 -7 14 6 8 -93 61 -115 61 -12 0 -12 2 0 9 10 7 8 12 -9
24 -15 11 -18 16 -8 20 11 4 11 6 0 6 -7 1 -10 6 -7 11 3 6 0 10 -7 10 -65 2
-155 14 -163 22 -7 8 -6 9 2 4 6 -3 14 -2 18 4 7 11 -68 49 -96 50 -10 0 -16
7 -15 17 1 14 -11 19 -59 25 -33 4 -69 9 -79 10 -15 2 -19 -4 -21 -27 -1 -16
3 -40 8 -52 7 -16 5 -32 -10 -60 -10 -21 -20 -51 -21 -68 -2 -30 -8 -65 -13
-75 -1 -3 -3 -9 -4 -15 -1 -5 -5 -18 -10 -27 -8 -20 1 -52 12 -45 5 3 8 -48 8
-113 0 -78 -3 -115 -10 -110 -12 10 -45 -12 -45 -29 0 -6 -7 -11 -15 -11 -9 0
-30 -7 -48 -16 l-32 -17 20 23 20 22 -45 -7 c-25 -3 -54 -9 -65 -11 -16 -4
-17 -3 -5 5 9 5 47 16 85 24 39 9 59 16 45 17 l-25 2 25 8 25 8 -25 1 -25 2
24 13 c25 14 18 25 -12 21 -15 -3 -16 -1 -6 11 28 33 -49 -1 -116 -52 -33 -25
-58 -33 -37 -12 35 35 -7 38 -44 3 -39 -37 -40 -31 -2 23 120 167 152 217 112
178 -17 -17 -34 -21 -34 -8 0 4 5 13 12 20 8 8 8 12 1 12 -6 0 -23 -16 -38
-36 -15 -19 -29 -33 -32 -30 -3 3 0 12 7 21 7 8 10 15 7 15 -2 0 -37 -38 -78
-85 -67 -79 -99 -100 -114 -75 -3 6 2 10 12 10 15 0 16 2 3 10 -10 6 -11 10
-2 10 6 0 12 5 12 11 0 5 -4 8 -9 5 -5 -4 -20 -2 -33 3 -23 9 -23 9 11 27 18
11 43 27 55 36 20 17 20 17 1 18 -11 0 -38 -7 -60 -14 -22 -8 -76 -17 -120
-20 -74 -5 -77 -4 -40 7 53 16 150 81 179 121 24 30 50 105 41 115 -3 2 0 10
5 16 6 7 22 45 35 86 19 56 22 75 13 80 -7 5 -21 0 -33 -10 -48 -44 -129 -91
-156 -91 -16 0 -29 -3 -29 -7 0 -5 14 -28 30 -52 27 -39 30 -51 25 -90 -5 -34
-4 -42 4 -31 6 8 11 23 11 33 0 9 4 17 9 17 9 0 26 67 22 85 -11 40 -10 55 3
55 8 0 29 12 47 27 l32 28 -6 -27 c-4 -15 -14 -62 -22 -105 -14 -77 -15 -79
-77 -135 -35 -32 -74 -62 -88 -69 -14 -6 -33 -15 -42 -20 -25 -13 -172 -3
-177 12 -2 7 4 9 15 5 11 -3 26 -1 34 4 13 9 13 11 0 19 -12 9 -12 11 3 17 9
3 29 3 43 0 18 -5 25 -3 22 5 -2 7 -31 18 -64 25 -76 16 -83 16 -60 -1 10 -8
23 -12 27 -9 5 3 9 0 9 -5 0 -16 -22 -13 -48 5 -25 17 -31 49 -7 41 8 -4 17
-1 21 5 4 6 23 8 47 5 23 -3 49 -1 59 4 15 8 23 5 38 -13 10 -13 15 -25 11
-28 -5 -3 0 -14 10 -24 11 -11 19 -15 19 -10 0 6 -5 15 -12 22 -9 9 -9 12 -1
12 7 0 15 -4 18 -10 3 -5 11 -10 17 -10 5 0 -4 16 -21 35 -17 20 -31 40 -31
46 0 6 -4 8 -9 5 -5 -4 -12 0 -15 6 -5 10 -7 10 -12 0 -5 -10 -9 -10 -20 -1
-8 6 -29 15 -47 19 l-32 7 33 13 c29 11 44 30 23 30 -5 0 -4 11 2 25 7 14 15
25 19 25 3 0 18 -23 32 -52 14 -29 26 -44 26 -34 0 45 -70 136 -105 135 -14 0
-16 -2 -5 -6 17 -7 30 -23 30 -38 0 -5 -23 -11 -50 -12 -46 -2 -50 0 -50 20 0
12 5 39 11 61 l11 38 22 -21 c35 -33 43 -25 10 11 -19 20 -23 29 -11 25 9 -4
17 -2 17 3 0 5 -15 13 -32 18 -25 6 -14 8 47 7 44 0 93 -6 108 -13 16 -7 38
-12 50 -11 20 1 20 2 -3 9 l-25 8 28 1 c37 1 35 21 -3 21 -16 0 -30 4 -30 9 0
8 43 2 104 -14 21 -6 27 -5 22 4 -4 6 -25 14 -47 17 -39 7 -50 18 -26 27 20 9
-24 7 -73 -3 -47 -9 -71 -3 -49 11 22 14 119 10 174 -6 41 -13 47 -13 35 -2
-27 25 -81 37 -174 38 -91 1 -83 15 11 18 23 0 44 5 47 10 8 13 78 1 99 -17
19 -17 24 -3 5 16 -9 9 -9 12 0 12 6 0 9 7 5 16 -5 13 -2 14 13 7 69 -35 70
-35 39 -8 -47 39 -95 59 -155 62 -30 2 -66 5 -80 7 -14 3 -38 5 -55 7 -70 6
222 16 490 18 290 1 357 11 180 27 -49 4 -171 9 -270 10 -204 2 -207 2 -180
14 13 5 -27 9 -107 9 -71 1 -128 4 -128 8 0 7 46 160 62 204 10 29 92 116 123
131 11 5 4 -5 -16 -21 -20 -17 -49 -48 -65 -69 l-27 -37 33 30 c32 29 33 20 1
-20 -9 -10 6 0 34 24 63 54 194 118 265 128 71 11 144 1 200 -26 52 -25 74
-14 34 18 -53 42 -239 79 -324 65z m-247 -451 c-7 -2 -19 -2 -25 0 -7 3 -2 5
12 5 14 0 19 -2 13 -5z m93 -5 c-10 -5 -23 -5 -33 1 -15 8 -11 10 15 9 26 -1
30 -3 18 -10z m39 2 c3 -5 1 -10 -4 -10 -6 0 -11 5 -11 10 0 6 2 10 4 10 3 0
8 -4 11 -10z m-178 -16 c-3 -3 -12 -4 -19 -1 -8 3 -5 6 6 6 11 1 17 -2 13 -5z
m-197 -127 c0 -5 -4 -5 -10 -2 -5 3 -10 14 -10 23 0 15 2 15 10 2 5 -8 10 -19
10 -23z m348 26 c-16 -2 -40 -2 -55 0 -16 2 -3 4 27 4 30 0 43 -2 28 -4z
m-191 -9 c-3 -3 -12 -4 -19 -1 -8 3 -5 6 6 6 11 1 17 -2 13 -5z m-62 -42 c-3
-3 -11 0 -18 7 -9 10 -8 11 6 5 10 -3 15 -9 12 -12z m-56 -24 c-1 -7 -5 -24
-9 -38 -7 -22 -8 -21 -9 13 -1 20 4 37 9 37 6 0 10 -6 9 -12z m121 -9 c0 -6
-6 -9 -14 -6 -15 6 -26 -12 -26 -44 0 -10 -4 -19 -9 -19 -7 0 -8 32 -2 73 2
12 51 8 51 -4z m-103 -31 c-3 -8 -6 -5 -6 6 -1 11 2 17 5 13 3 -3 4 -12 1 -19z
m26 -38 c-3 -12 -8 -19 -11 -16 -5 6 5 36 12 36 2 0 2 -9 -1 -20z m-71 -67
c-10 -28 -10 -28 -11 12 -1 28 2 36 10 28 8 -8 8 -19 1 -40z m98 28 c0 -4 -11
-6 -25 -3 -14 2 -25 6 -25 8 0 2 11 4 25 4 14 0 25 -4 25 -9z m894 -27 c3 -8
2 -12 -4 -9 -6 3 -10 10 -10 16 0 14 7 11 14 -7z m16 -114 c0 -5 -2 -10 -4
-10 -3 0 -8 5 -11 10 -3 6 -1 10 4 10 6 0 11 -4 11 -10z m-47 -20 c-3 -12 -8
-19 -11 -16 -5 6 5 36 12 36 2 0 2 -9 -1 -20z m-784 -96 c2 -2 -12 -4 -32 -4
-20 0 -37 4 -37 10 0 8 58 3 69 -6z m1076 -34 c-10 -11 -21 -18 -23 -15 -3 3
3 12 14 20 27 20 30 18 9 -5z m105 -234 c0 -2 -7 -7 -16 -10 -8 -3 -12 -2 -9
4 6 10 25 14 25 6z m-1404 -114 c1 -7 0 -8 -3 -2 -14 29 -53 -64 -53 -126 l1
-39 15 35 c8 19 13 43 10 52 -2 10 0 16 4 13 5 -3 11 5 13 17 3 13 3 2 1 -24
-2 -27 0 -48 5 -48 4 0 7 -10 5 -22 -1 -13 -3 -28 -3 -34 -1 -8 -16 -7 -48 4
-56 18 -61 21 -48 30 15 11 55 114 49 124 -7 11 26 39 40 35 6 -2 11 -9 12
-15z m-413 -59 c2 -5 -4 -21 -14 -38 -17 -27 -19 -28 -19 -8 0 40 20 68 33 46z
m627 -55 c-17 -37 -17 -43 -4 -46 16 -4 14 -17 -12 -81 -12 -28 -12 -36 -2
-43 7 -4 8 -8 2 -8 -5 0 -24 10 -40 23 -27 20 -30 25 -22 55 11 43 18 41 11
-3 -8 -52 3 -43 27 22 14 37 18 59 11 61 -6 2 -11 8 -11 13 0 6 4 8 10 4 5 -3
17 6 26 20 24 37 26 31 4 -17z m-120 -23 c5 3 8 -14 5 -40 -2 -25 1 -45 6 -45
5 0 9 -4 9 -10 0 -5 -16 -2 -35 7 -25 12 -34 22 -30 32 4 9 12 36 18 61 10 39
12 41 15 17 2 -15 7 -25 12 -22z m-400 14 c146 -23 438 -137 484 -188 34 -37
11 -32 -75 17 -46 26 -100 54 -119 62 -19 7 -54 22 -77 32 -39 17 -196 57
-285 72 -21 4 -38 12 -38 17 0 6 8 8 18 5 9 -2 51 -10 92 -17z m-115 -19 c3
-5 1 -10 -4 -10 -6 0 -11 5 -11 10 0 6 2 10 4 10 3 0 8 -4 11 -10z m20 -60
c17 -8 16 -9 -9 -9 -20 -1 -27 -5 -23 -15 6 -16 -29 -53 -41 -42 -4 4 2 15 13
23 13 10 16 17 8 20 -17 6 -4 33 16 32 9 0 25 -4 36 -9z m158 -60 c16 -16 39
-31 51 -32 11 -1 29 -2 38 -3 9 0 29 -12 43 -25 18 -17 39 -25 69 -26 30 -1
51 -9 65 -23 15 -15 28 -20 47 -15 16 4 31 1 44 -11 12 -11 32 -16 57 -14 26
2 51 -4 74 -18 70 -42 128 -50 288 -37 68 5 74 4 62 -10 -10 -12 -10 -16 -2
-16 7 0 9 -5 5 -12 -5 -8 -1 -9 12 -4 15 5 16 4 7 -5 -13 -13 -6 -40 14 -52 7
-4 13 -15 13 -23 0 -8 4 -13 9 -9 6 3 8 -3 6 -14 -2 -11 3 -22 11 -25 10 -4
11 -11 4 -31 -7 -19 -7 -24 2 -19 7 5 9 2 5 -9 -5 -14 17 -33 35 -29 4 1 6
-11 4 -28 -2 -18 2 -31 11 -34 8 -3 11 -10 8 -16 -3 -6 1 -17 9 -26 9 -8 16
-23 16 -32 0 -11 25 -30 67 -52 36 -19 66 -39 64 -45 -2 -13 -51 -10 -136 9
-38 9 -70 16 -71 16 0 0 -1 -6 -1 -13 0 -9 10 -13 26 -11 14 2 19 1 10 -2 -16
-5 -35 -44 -20 -42 19 2 31 -4 31 -16 0 -8 12 -17 28 -20 38 -10 203 -63 268
-87 95 -36 58 -37 -43 -2 -100 35 -332 104 -503 149 -158 42 -351 64 -625 71
-334 8 -250 27 123 28 91 0 112 3 112 14 0 11 4 9 14 -5 12 -16 17 -17 28 -6
11 11 11 13 -1 10 -10 -2 -15 6 -15 22 -1 18 -7 25 -21 25 -11 1 -26 4 -33 8
-6 5 -17 5 -24 1 -7 -4 -8 -3 -4 4 5 8 -6 13 -36 14 -24 1 -63 2 -88 4 -25 1
-60 2 -77 3 -37 1 -44 16 -13 24 11 3 20 0 20 -5 0 -7 5 -6 14 1 14 12 43 18
98 20 21 1 26 5 21 19 -5 14 -3 13 10 -3 14 -17 16 -18 17 -3 0 12 7 15 25 12
39 -7 30 13 -12 27 -21 6 -44 18 -52 26 -7 8 -28 14 -45 13 -50 -3 -66 -1 -66
10 0 5 6 7 13 4 8 -3 20 2 27 11 7 9 9 15 4 14 -18 -3 -34 1 -34 10 0 5 9 7
20 4 11 -3 20 0 20 6 0 6 -16 11 -35 11 -24 0 -35 5 -35 15 0 8 -9 15 -20 15
-11 0 -20 4 -20 8 0 4 17 6 38 3 20 -2 31 -6 25 -8 -33 -12 -7 -18 45 -12 31
4 67 8 80 8 16 1 21 5 16 14 -6 9 -4 9 8 -1 14 -11 16 -10 14 12 -3 22 1 26
21 26 20 0 23 4 18 20 -5 17 -2 20 27 21 22 1 26 3 13 7 l-20 5 20 8 c17 6 17
8 3 8 -21 1 -24 17 -5 24 6 3 -23 6 -65 6 -43 1 -80 2 -83 3 -30 10 -95 13
-95 4 0 -6 -5 -5 -12 2 -15 15 -32 16 -23 2 3 -5 2 -10 -3 -10 -6 0 -12 7 -16
15 -3 9 0 15 10 15 9 0 14 7 12 18 -2 9 -8 17 -13 17 -6 0 -16 4 -22 8 -9 5
-13 3 -13 -8 0 -9 5 -13 10 -10 6 3 10 1 10 -4 0 -6 -4 -11 -9 -11 -5 0 -7
-10 -4 -22 4 -20 3 -21 -7 -5 -6 9 -9 21 -6 25 2 4 0 14 -5 22 -9 13 -10 13
-8 0 5 -45 -22 -61 -45 -25 -14 21 -14 23 4 18 12 -3 16 -10 13 -21 -5 -10 -3
-13 6 -7 7 4 11 18 8 31 -3 17 0 24 12 24 13 0 14 2 2 9 -8 5 -21 7 -30 4 -14
-4 -14 -3 -1 5 8 6 17 9 21 6 4 -2 10 0 13 4 8 14 -35 49 -74 61 l-35 11 39
-5 c26 -3 49 -14 69 -35z m801 -32 c4 -17 2 -28 -4 -28 -5 0 -10 14 -10 32 0
36 4 35 14 -4z m1166 2 c-24 -15 -36 -11 -14 4 10 8 21 12 24 10 2 -3 -2 -9
-10 -14z m-2166 -53 c-4 -21 -1 -32 12 -42 17 -12 17 -13 -6 -8 -21 4 -25 11
-28 44 -3 46 6 68 19 48 5 -8 6 -27 3 -42z m682 18 c-1 -23 -26 -37 -26 -15 0
9 20 38 26 40 1 0 1 -11 0 -25z m-556 -30 c0 -5 -5 -3 -10 5 -5 8 -10 20 -10
25 0 6 5 3 10 -5 5 -8 10 -19 10 -25z m-109 -2 c-12 -20 -14 -14 -5 12 4 9 9
14 11 11 3 -2 0 -13 -6 -23z m67 -18 c-3 -3 -9 2 -12 12 -6 14 -5 15 5 6 7 -7
10 -15 7 -18z m19 -7 c-3 -7 -5 -2 -5 12 0 14 2 19 5 13 2 -7 2 -19 0 -25z
m26 -3 c-3 -9 -8 -14 -10 -11 -3 3 -2 9 2 15 9 16 15 13 8 -4z m831 -20 c-4
-8 -13 -15 -22 -15 -13 0 -12 3 4 15 24 18 25 18 18 0z m-978 -10 c12 -8 24
-12 28 -8 8 8 34 -56 42 -106 6 -40 8 -41 48 -42 40 -2 40 -2 8 -8 -42 -8 -41
-27 1 -24 23 1 19 -2 -18 -11 -42 -11 -46 -14 -25 -18 24 -5 24 -5 -3 -7 -16
0 -26 -5 -22 -11 3 -5 1 -10 -5 -10 -6 0 -8 -11 -5 -27 5 -25 3 -23 -14 9 -12
20 -26 40 -32 44 -8 5 -9 3 -4 -7 8 -12 6 -12 -8 -1 -9 8 -25 11 -37 7 -11 -4
-20 -2 -20 4 0 6 21 11 49 11 47 0 49 1 64 37 l14 37 -36 19 c-106 57 -150
110 -98 120 42 8 53 7 73 -8z m79 5 c-27 -12 -43 -12 -25 0 8 5 22 9 30 9 10
0 8 -3 -5 -9z m1035 -26 c-36 -8 -100 -9 -100 -2 0 5 26 7 58 7 31 -1 50 -3
42 -5z m1352 -35 c60 -18 88 -17 58 1 -8 5 -11 12 -8 15 12 13 30 -7 53 -59
13 -29 30 -58 39 -65 30 -25 16 -33 -19 -12 -19 11 -35 16 -35 11 0 -6 4 -10
8 -10 5 0 17 -7 28 -16 19 -16 17 -16 -33 0 -46 14 -22 -10 27 -27 27 -10 68
-32 91 -50 49 -37 114 -128 124 -172 l6 -30 -21 23 c-17 18 -25 20 -40 12 -15
-8 -26 -7 -42 2 -25 14 -69 18 -62 7 2 -4 0 -10 -6 -14 -5 -3 -10 -1 -10 4 0
6 -5 11 -11 11 -6 0 -9 -7 -5 -15 3 -8 1 -15 -4 -15 -6 0 -10 5 -10 10 0 6
-13 10 -30 10 -20 0 -30 5 -30 15 0 11 -10 9 -46 -11 l-46 -26 -71 18 c-40 10
-79 19 -87 20 -8 1 -37 5 -65 8 -90 12 -99 15 -117 38 -9 13 -20 23 -25 23
-19 2 -59 19 -75 32 -9 8 -21 12 -26 9 -6 -3 -13 1 -16 10 -4 12 -2 15 9 10 8
-3 15 -1 15 4 0 13 -66 32 -108 29 -63 -3 -103 1 -98 10 3 5 16 7 29 5 21 -4
21 -4 -2 6 -17 7 -27 7 -37 -1 -8 -6 -21 -8 -31 -3 -10 4 -21 8 -25 8 -11 2
-23 17 -23 29 0 7 -9 13 -20 15 -41 8 -32 17 17 18 30 0 53 5 56 12 5 15 32
16 32 2 0 -7 6 -7 20 0 14 7 20 7 20 0 0 -5 4 -10 10 -10 5 0 7 6 5 13 -4 9
13 12 62 13 38 1 124 3 193 6 82 4 152 1 205 -8 90 -15 190 -37 220 -49 14 -5
10 1 -10 19 -16 14 -36 25 -42 26 -7 0 -13 4 -13 9 0 5 6 11 13 14 26 10 -48
27 -118 27 -40 0 -80 3 -89 6 -21 8 -20 24 2 25 13 0 14 2 2 6 -44 14 -45 16
-20 24 36 12 160 0 232 -22z m129 -30 c11 -22 19 -44 17 -49 -2 -5 -15 16 -31
46 -15 30 -22 52 -17 49 6 -4 19 -24 31 -46z m-2360 -28 c7 11 9 10 9 -3 0
-10 -7 -18 -15 -18 -8 0 -15 8 -14 18 0 12 2 13 6 3 5 -11 7 -11 14 0z m15
-74 c3 -3 -6 -4 -22 -1 -16 3 -31 7 -34 10 -2 3 7 4 22 2 15 -2 30 -7 34 -11z
m64 4 c0 -6 -10 -8 -21 -6 -33 6 -36 15 -6 15 15 0 27 -4 27 -9z m1225 -21
c-3 -5 -13 -10 -21 -10 -8 0 -13 -4 -9 -9 3 -5 1 -12 -4 -15 -5 -4 -8 0 -7 6
3 22 17 38 32 38 8 0 12 -4 9 -10z m-1238 -32 c-3 -8 -6 -5 -6 6 -1 11 2 17 5
13 3 -3 4 -12 1 -19z m1161 -50 c-16 -25 -54 -121 -61 -153 -3 -13 -5 -10 -6
10 -1 32 65 182 76 172 3 -4 -1 -17 -9 -29z m430 -56 c17 -18 32 -35 32 -38 0
-3 -15 6 -32 20 -18 13 -51 29 -73 35 -51 14 -55 14 -55 -2 0 -29 108 -105
131 -92 11 7 142 -125 133 -134 -3 -3 -32 24 -65 59 -33 36 -58 58 -56 50 6
-20 -103 33 -116 55 -4 8 -15 15 -22 15 -8 0 -15 7 -15 16 0 8 -4 12 -10 9
-13 -8 -13 1 1 26 8 17 19 19 62 17 44 -2 57 -8 85 -36z m-1801 -45 c-3 -7 -9
4 -14 23 -6 19 -8 39 -5 45 7 12 25 -53 19 -68z m-616 -40 c-10 -9 -11 -8 -5
6 3 10 9 15 12 12 3 -3 0 -11 -7 -18z m-17 -39 c-14 -47 -34 -91 -40 -86 -3 4
4 29 17 57 22 52 36 69 23 29z m2527 5 c13 -16 12 -17 -3 -4 -10 7 -18 15 -18
17 0 8 8 3 21 -13z m-2496 -121 c-5 -13 -8 -12 -25 3 -25 23 -25 25 3 83 l22
47 3 -59 c2 -32 0 -66 -3 -74z m-348 102 c-3 -3 -12 -4 -19 -1 -8 3 -5 6 6 6
11 1 17 -2 13 -5z m2894 -104 c15 -13 14 -16 -8 -33 -21 -17 -27 -45 -12 -57
4 -3 23 -41 43 -85 20 -44 49 -91 64 -105 15 -14 33 -45 41 -70 24 -82 104
-315 115 -335 6 -11 11 -22 11 -25 2 -23 69 -190 76 -190 11 0 11 14 -2 70
-16 67 -17 70 -39 134 -11 33 -18 61 -16 63 1 2 11 -18 20 -44 10 -27 30 -82
45 -123 53 -143 83 -235 82 -257 -1 -13 -2 -54 -4 -92 -2 -59 -4 -66 -15 -50
-14 21 -42 26 -42 8 0 -6 9 -18 20 -27 13 -12 28 -51 44 -119 l23 -102 -31
-12 c-17 -6 -37 -11 -43 -10 -17 2 -16 -5 3 -34 10 -15 12 -25 5 -25 -6 0 -11
-8 -11 -19 0 -29 -89 -20 -124 12 -30 28 -32 37 -11 37 8 0 15 5 15 10 0 13
-22 13 -56 0 -38 -15 -42 -5 -12 28 14 15 36 55 49 89 13 34 26 60 29 58 3 -2
12 0 20 6 12 7 10 9 -8 9 -13 0 -20 4 -17 10 4 6 25 8 50 5 24 -3 47 0 50 5 3
6 1 10 -5 10 -6 0 -9 4 -6 8 14 23 -63 68 -116 67 -38 0 -38 0 -16 17 13 9 24
15 26 13 2 -2 29 7 58 20 30 13 62 22 72 19 9 -3 5 2 -10 10 -19 11 -26 23
-24 40 2 14 -2 24 -7 23 -6 -1 -11 13 -13 31 -1 17 -14 48 -29 68 -15 19 -24
41 -22 49 3 7 -1 16 -9 19 -8 3 -14 12 -14 21 0 8 -9 15 -21 15 -11 0 -17 5
-14 10 4 6 11 8 16 5 5 -4 9 0 9 8 0 10 -7 14 -22 10 -19 -3 -18 -1 6 12 16
10 25 20 20 24 -5 3 -13 11 -18 16 -6 6 -7 4 -3 -7 3 -10 0 -19 -10 -22 -12
-5 -14 -1 -10 14 3 11 1 18 -4 14 -5 -3 -9 -1 -9 5 0 5 10 12 23 14 20 4 20 4
-4 6 -16 0 -26 7 -26 16 0 9 6 14 14 11 8 -3 11 -1 8 4 -3 6 -13 10 -22 10
-13 0 -14 2 -2 17 10 12 10 15 1 9 -8 -5 -14 2 -18 23 -4 17 -11 31 -16 31 -6
0 -7 7 -4 16 4 10 2 13 -6 8 -7 -5 -9 -2 -5 9 3 9 3 17 -1 19 -13 6 -43 68
-33 68 9 0 -11 44 -48 110 -5 8 -16 31 -25 50 -9 19 -22 44 -28 55 -7 11 -27
43 -45 71 -17 29 -52 72 -77 98 -25 25 -46 50 -46 55 0 5 12 11 28 13 23 2 27
7 25 31 -1 15 2 27 8 27 5 0 7 20 5 45 l-3 45 51 -48 c28 -26 58 -54 67 -62z
m-841 19 c0 -5 5 -7 10 -4 6 3 10 1 10 -4 0 -16 -16 -13 -30 4 -9 10 -9 15 -1
15 6 0 11 -5 11 -11z m-1161 -101 c45 -82 50 -108 8 -35 -46 78 -67 118 -67
124 0 14 18 -13 59 -89z m1551 -98 c6 -11 8 -20 6 -20 -3 0 -10 9 -16 20 -6
11 -8 20 -6 20 3 0 10 -9 16 -20z m-1490 -11 c0 -6 -4 -7 -10 -4 -5 3 -10 11
-10 16 0 6 5 7 10 4 6 -3 10 -11 10 -16z m1445 11 c-3 -5 -21 -10 -40 -10 -18
0 -40 -3 -49 -6 -14 -5 -14 -9 3 -33 32 -47 54 -117 47 -155 -8 -42 -25 -58
-19 -18 3 23 1 21 -16 -12 -12 -22 -29 -47 -39 -56 -24 -23 -47 -94 -37 -117
8 -17 8 -17 12 -1 5 20 41 32 70 25 12 -3 8 -5 -10 -6 -16 0 -26 -5 -22 -11 3
-5 1 -10 -5 -10 -6 0 -8 -4 -5 -10 3 -5 -1 -10 -10 -10 -12 0 -15 -5 -11 -16
4 -11 2 -15 -6 -11 -10 3 -12 -7 -10 -38 2 -24 -2 -53 -8 -65 -12 -22 -11 -23
34 -18 40 5 46 3 46 -13 0 -10 -4 -21 -10 -24 -15 -9 -12 -58 6 -83 8 -12 12
-27 8 -34 -5 -8 -2 -9 9 -5 22 8 22 7 -7 -43 l-24 -43 -7 111 -8 111 -31 3
c-33 3 -37 15 -22 68 6 22 2 28 -29 43 -45 21 -61 21 -77 0 -14 -19 -39 -24
-49 -9 -14 19 -66 -95 -53 -115 9 -16 24 -9 24 11 0 40 22 70 52 70 33 0 40
-29 8 -37 -19 -5 -22 -10 -24 -43 -1 -9 -13 -16 -33 -18 -24 -2 -34 2 -43 18
-24 45 21 143 76 166 50 21 76 16 29 -6 -32 -14 -35 -18 -15 -16 14 1 36 8 50
15 14 8 22 10 17 6 -8 -9 52 -39 61 -30 3 2 -3 7 -12 11 -22 8 -21 25 2 19 9
-3 1 2 -18 11 -92 44 -164 13 -218 -91 -12 -22 -21 -33 -21 -25 0 8 6 26 14
40 19 33 18 41 -2 33 -15 -6 -16 -5 -3 9 9 9 18 12 21 6 3 -5 9 -3 12 6 7 19
-6 21 -34 5 -15 -8 -32 -6 -66 5 -26 9 -48 16 -50 16 -1 0 7 -11 18 -24 12
-14 27 -22 35 -19 7 2 21 0 31 -6 16 -9 16 -10 2 -11 -21 0 -29 -20 -29 -70 0
-55 16 -90 40 -90 12 0 20 7 20 18 1 15 2 15 11 -2 24 -39 -52 -45 -79 -6 -10
14 -22 18 -45 14 -22 -3 -26 -2 -14 4 17 7 16 9 -8 22 -21 11 -30 12 -43 2
-87 -61 -139 -45 -195 63 -24 47 -30 113 -16 164 14 51 82 126 123 137 14 3
26 13 26 21 0 10 6 12 23 7 12 -4 30 -7 41 -6 10 0 16 -2 13 -5 -3 -3 6 -15
21 -28 15 -13 35 -46 45 -73 13 -34 26 -54 40 -58 22 -7 22 -7 2 -15 -17 -6
-16 -8 9 -8 16 -1 34 -8 40 -16 17 -23 65 13 115 85 46 67 47 75 26 116 -8 16
-15 23 -15 16 0 -7 -4 -10 -10 -7 -16 10 -11 88 8 125 27 52 88 80 174 79 38
-1 72 2 75 5 11 10 65 7 58 -4z m-2423 -34 c31 -9 60 -21 64 -28 5 -8 1 -9
-12 -4 -10 4 -50 14 -89 23 -115 25 -261 6 -364 -47 -23 -11 -46 -18 -51 -15
-6 3 -10 1 -10 -4 0 -6 -5 -11 -10 -11 -6 0 -20 -9 -32 -20 -23 -21 -38 -26
-38 -12 0 5 11 15 25 22 14 7 25 17 25 22 0 4 5 8 11 8 6 0 24 9 39 20 16 11
32 20 37 19 4 -1 21 3 36 9 16 7 33 12 38 12 5 0 9 4 9 8 0 5 14 7 30 4 17 -2
30 0 30 5 0 15 201 7 262 -11z m2479 -1 c3 2 5 -4 5 -15 0 -22 -12 -17 -28 13
-10 19 -9 20 4 10 8 -7 17 -11 19 -8z m939 -25 c0 -5 -5 -10 -11 -10 -5 0 -7
5 -4 10 3 6 8 10 11 10 2 0 4 -4 4 -10z m-2404 -32 c9 -18 26 -41 38 -50 l21
-17 -21 5 c-22 6 -78 94 -59 94 2 0 12 -15 21 -32z m2194 22 c20 -6 14 -8 -27
-9 -28 -1 -55 4 -58 9 -7 12 48 12 85 0z m170 0 c-8 -5 -28 -9 -45 -9 l-30 1
30 8 c17 4 37 8 45 9 13 1 13 0 0 -9z m-3275 -10 c3 -6 -1 -7 -9 -4 -18 7 -21
14 -7 14 6 0 13 -4 16 -10z m2352 -22 c-3 -8 -6 -5 -6 6 -1 11 2 17 5 13 3 -3
4 -12 1 -19z m-30 6 c-3 -3 -12 -4 -19 -1 -8 3 -5 6 6 6 11 1 17 -2 13 -5z
m-2282 -84 c3 -6 -1 -7 -9 -4 -18 7 -21 14 -7 14 6 0 13 -4 16 -10z m1019
-132 c15 -27 22 -48 16 -48 -6 0 -8 -5 -5 -10 4 -6 10 -8 15 -5 5 3 18 -18 29
-47 11 -29 24 -52 29 -51 5 1 9 -4 9 -12 0 -10 -5 -10 -23 3 -12 9 -20 20 -17
25 2 4 -1 7 -7 7 -6 0 -8 5 -5 10 3 6 2 10 -3 10 -6 0 -8 10 -5 23 4 17 2 19
-6 7 -8 -12 -12 -10 -20 12 -5 14 -15 29 -20 33 -6 3 -11 11 -11 17 0 6 7 5
17 -3 14 -12 14 -9 -2 21 -11 20 -20 30 -23 22 -3 -10 -8 -7 -19 7 -8 12 -11
26 -8 31 10 17 -6 34 -17 19 -6 -10 -7 -7 -3 10 5 16 4 21 -4 17 -12 -8 -15 6
-4 17 7 8 46 -44 87 -115z m1386 111 c0 -5 -4 -8 -9 -5 -5 4 -12 0 -14 -6 -3
-8 -6 -6 -6 5 -1 9 6 17 14 17 8 0 15 -5 15 -11z m-820 -6 c-1 -13 -69 -43
-84 -37 -18 7 -59 -14 -51 -25 2 -5 -8 -17 -23 -27 -26 -17 -27 -17 -12 1 13
16 13 18 0 13 -8 -3 -15 -14 -14 -26 0 -13 -4 -18 -10 -14 -14 8 -46 9 -72 0
-14 -4 -38 2 -68 18 -57 30 -77 25 -101 -24 -10 -22 -20 -32 -22 -24 -3 8 0
19 6 25 15 15 14 24 -4 24 -9 0 -14 -5 -12 -11 4 -13 -17 -36 -32 -36 -17 0
-13 25 10 54 17 22 28 26 71 26 34 0 62 -7 84 -21 27 -16 42 -19 78 -14 25 4
55 16 67 26 12 10 30 21 40 24 11 4 19 12 19 19 0 24 25 36 77 36 29 0 53 -3
53 -7z m188 0 c-10 -2 -18 -9 -18 -15 0 -10 110 -4 153 8 9 3 17 1 17 -4 0
-10 -71 -22 -131 -22 -22 0 -39 -5 -39 -10 0 -12 -49 20 -50 32 0 6 37 15 70
15 9 1 8 -1 -2 -4z m682 -25 c0 -7 -11 -13 -25 -13 -25 0 -31 6 -18 18 11 12
43 8 43 -5z m-100 -70 c0 -27 -5 -38 -18 -42 -28 -9 -23 -36 7 -37 19 -1 13
-4 -19 -12 l-45 -12 53 -3 c40 -2 52 -7 53 -20 1 -16 2 -16 6 0 9 33 123 33
123 -1 0 -10 -35 -21 -72 -21 -27 0 -47 -15 -28 -22 6 -2 -5 -19 -24 -37 -20
-19 -39 -31 -43 -27 -4 4 -1 11 7 16 8 6 11 10 7 10 -5 0 -2 7 7 15 16 16 11
49 -6 39 -6 -4 -5 -10 3 -16 10 -7 8 -8 -8 -5 -13 3 -23 1 -23 -4 0 -5 -4 -9
-9 -9 -5 0 -7 9 -4 20 3 11 0 20 -6 20 -7 0 -11 -21 -11 -55 0 -39 3 -53 13
-50 22 9 39 -12 39 -49 0 -20 4 -34 8 -31 5 3 10 -9 12 -27 3 -26 8 -32 33
-35 42 -6 42 -11 1 -18 -29 -6 -36 -12 -36 -31 0 -19 -5 -24 -25 -24 -22 0
-24 3 -16 19 13 23 5 31 -33 32 l-31 1 30 7 c25 5 31 12 33 39 2 21 -3 41 -12
51 -9 10 -13 21 -9 24 3 4 1 7 -5 7 -6 0 -13 -4 -16 -8 -3 -5 -22 -9 -43 -9
-21 -1 -33 1 -26 4 14 5 6 131 -9 151 -8 9 -5 12 12 12 20 0 22 -4 18 -55 -3
-52 -2 -55 20 -55 12 0 25 7 29 16 7 19 -8 86 -20 84 -4 0 -15 6 -23 15 -9 8
-20 13 -25 10 -5 -4 -9 -1 -9 4 0 10 14 15 33 12 4 0 7 4 7 9 0 6 9 10 19 10
22 0 29 15 23 47 -4 21 -8 23 -38 17 -22 -4 -34 -2 -34 5 0 6 14 11 30 11 17
0 30 5 30 10 0 6 -9 10 -20 10 -11 0 -20 5 -20 11 0 5 3 8 8 6 4 -3 16 -1 27
4 17 7 17 8 -7 8 -16 1 -28 5 -28 10 0 16 54 17 82 1 23 -12 28 -22 28 -52z
m920 42 c0 -5 -5 -10 -11 -10 -5 0 -7 5 -4 10 3 6 8 10 11 10 2 0 4 -4 4 -10z
m667 -12 c-3 -8 -6 -5 -6 6 -1 11 2 17 5 13 3 -3 4 -12 1 -19z m-4225 -4 c-12
-8 -22 -23 -22 -33 0 -9 -4 -21 -9 -26 -5 -6 -16 -36 -26 -67 -10 -32 -23 -58
-30 -58 -10 0 -8 11 6 40 10 21 19 45 19 53 0 7 7 34 16 60 14 40 20 47 42 47
l26 0 -22 -16z m3465 10 c-3 -3 -12 -4 -19 -1 -8 3 -5 6 6 6 11 1 17 -2 13 -5z
m-1347 -30 c0 -2 -16 -4 -35 -4 -19 0 -35 4 -35 8 0 4 16 6 35 4 19 -2 35 -6
35 -8z m572 -73 c-3 -20 -9 -28 -18 -24 -10 4 -11 10 -3 25 6 11 8 27 5 35 -5
12 -3 13 7 5 8 -7 12 -24 9 -41z m1062 37 c-3 -4 -9 -8 -15 -8 -5 0 -9 4 -9 8
0 5 7 9 15 9 8 0 12 -4 9 -9z m-1023 -30 c-8 -23 -31 -37 -31 -20 0 10 27 42
35 42 3 0 1 -10 -4 -22z m79 3 c0 -5 26 -64 59 -132 32 -68 75 -173 97 -234
26 -77 47 -118 67 -138 27 -25 29 -32 24 -71 -5 -35 -2 -49 13 -69 17 -21 18
-26 5 -37 -8 -6 -18 -9 -22 -7 -5 3 -17 -12 -27 -34 -11 -21 -21 -37 -24 -34
-3 2 3 16 12 31 10 14 16 28 13 30 -5 5 -47 -62 -47 -74 0 -4 -16 -30 -34 -58
-26 -38 -52 -61 -100 -88 -39 -22 -76 -52 -95 -78 -19 -26 -31 -36 -31 -25 0
9 5 17 10 17 6 0 10 8 10 18 0 11 21 31 54 52 l53 34 6 95 c8 117 36 236 77
325 35 77 36 83 13 65 -17 -13 -17 -13 -1 12 17 26 15 39 -6 39 -6 0 -5 -4 3
-9 10 -7 8 -12 -10 -24 -13 -10 -27 -13 -33 -8 -6 5 -21 7 -32 5 -47 -8 -121
88 -124 161 -3 69 0 85 14 85 25 0 28 -19 10 -65 -9 -25 -14 -48 -10 -52 3 -3
6 -1 6 6 0 7 5 9 12 5 8 -5 9 -2 5 9 -3 10 -2 17 4 17 5 0 12 -7 15 -15 4 -8
14 -15 23 -15 12 1 10 6 -10 23 -25 22 -29 57 -6 57 7 0 6 4 -3 10 -13 8 -12
11 5 24 11 8 22 12 25 10 2 -3 -2 -9 -9 -13 -8 -5 -9 -11 -3 -15 6 -3 12 0 15
6 2 7 7 -2 11 -19 4 -18 12 -33 17 -33 6 0 5 8 -1 20 -6 11 -13 36 -15 54 -6
48 -43 105 -71 112 -30 8 -31 18 -1 31 23 11 37 8 37 -6z m-1270 -9 c0 -4 -10
-13 -22 -21 -23 -14 -23 -14 -4 8 20 22 26 25 26 13z m2251 -9 c13 -16 12 -17
-3 -4 -10 7 -18 15 -18 17 0 8 8 3 21 -13z m-3192 -218 c1 -5 -15 18 -34 53
-19 34 -35 70 -34 80 1 17 68 -113 68 -133z m1863 103 c-3 -18 -11 -38 -17
-45 -11 -10 -13 -5 -12 25 1 33 10 51 28 52 3 0 3 -14 1 -32z m-2547 12 c3 -5
-1 -10 -10 -10 -9 0 -13 5 -10 10 3 6 8 10 10 10 2 0 7 -4 10 -10z m1495 -69
c0 -5 7 -12 15 -14 13 -4 13 -5 0 -3 -9 0 -25 17 -37 36 l-21 35 21 -22 c12
-12 22 -27 22 -32z m10 39 c0 -5 -5 -10 -11 -10 -5 0 -7 5 -4 10 3 6 8 10 11
10 2 0 4 -4 4 -10z m54 -92 c7 -5 4 -8 -6 -8 -23 0 -22 -1 3 -44 32 -55 15
-43 -20 14 -19 31 -25 47 -15 43 8 -3 14 -2 13 3 -3 18 3 28 8 14 3 -8 11 -18
17 -22z m516 -8 c0 -5 -2 -10 -4 -10 -3 0 -8 5 -11 10 -3 6 -1 10 4 10 6 0 11
-4 11 -10z m-481 -46 c12 -19 16 -32 11 -29 -11 7 -43 65 -36 65 2 0 13 -16
25 -36z m1074 16 c-3 -11 -9 -20 -14 -20 -5 0 -9 9 -9 20 0 11 6 20 14 20 9 0
12 -7 9 -20z m-523 0 c0 -5 -2 -10 -4 -10 -3 0 -8 5 -11 10 -3 6 -1 10 4 10 6
0 11 -4 11 -10z m-30 -20 c0 -5 -5 -10 -11 -10 -5 0 -7 5 -4 10 3 6 8 10 11
10 2 0 4 -4 4 -10z m0 -47 c7 -16 13 -31 12 -35 -1 -5 6 -8 16 -8 9 0 24 -5
32 -10 11 -7 6 -10 -21 -10 -37 0 -49 13 -64 68 -9 31 9 28 25 -5z m-176 -28
c-8 -13 -13 -29 -9 -35 4 -6 1 -9 -6 -8 -6 2 -14 -3 -17 -11 -3 -9 0 -11 8 -6
9 5 11 4 6 -4 -4 -6 -12 -9 -17 -6 -5 4 -9 1 -9 -4 0 -6 5 -11 12 -11 6 0 9
-3 5 -6 -3 -4 -13 -4 -21 -1 -13 5 -10 16 17 61 17 31 35 56 40 56 4 0 0 -11
-9 -25z m-1274 5 c0 -5 -5 -10 -11 -10 -5 0 -7 5 -4 10 3 6 8 10 11 10 2 0 4
-4 4 -10z m1310 -4 c0 -2 -7 -7 -16 -10 -8 -3 -12 -2 -9 4 6 10 25 14 25 6z
m79 -94 c-20 -37 -52 -110 -70 -162 -32 -89 -34 -103 -34 -225 l0 -130 38 -78
c39 -79 89 -128 176 -172 84 -42 219 -66 406 -71 255 -6 580 16 740 51 90 20
135 40 68 30 -51 -8 -60 10 -10 20 17 4 39 9 48 11 10 3 19 -3 23 -13 3 -10 8
-23 11 -29 4 -7 -23 -15 -72 -22 -87 -13 -157 -31 -150 -38 3 -3 22 -1 43 5
22 5 81 14 132 20 51 5 96 13 101 16 9 5 27 -72 19 -80 -3 -3 -238 -19 -290
-19 -16 0 -28 -4 -28 -9 0 -5 -6 -4 -13 2 -8 6 -16 9 -18 6 -9 -8 -89 -15 -89
-7 0 4 -9 8 -19 8 -11 0 -18 -3 -15 -7 2 -3 -23 -6 -56 -5 -33 1 -60 -1 -60
-6 0 -4 -7 -8 -15 -8 -8 0 -15 5 -15 10 0 6 -5 10 -11 10 -5 0 -7 -4 -4 -10 3
-5 2 -10 -4 -10 -5 0 -13 5 -16 11 -5 6 -12 4 -21 -8 -8 -11 -13 -13 -14 -5 0
13 -35 13 -57 -1 -6 -4 -19 0 -27 9 -10 9 -16 11 -16 4 0 -8 -7 -9 -17 -5 -29
12 -57 13 -70 2 -9 -6 -13 -6 -13 2 0 14 -53 6 -58 -9 -2 -5 -8 -8 -12 -5 -8
5 -88 13 -152 16 -33 1 -26 14 8 15 19 1 34 -2 34 -7 0 -10 53 -4 74 8 8 5
-25 9 -82 11 -53 1 -106 5 -117 7 -11 3 -14 2 -7 -1 6 -3 12 -10 12 -16 0 -6
-7 -5 -16 3 -9 7 -25 15 -37 16 -12 2 -28 10 -37 18 -20 18 -44 20 -34 3 4 -7
3 -8 -5 -4 -6 4 -9 10 -7 14 2 4 -29 23 -70 43 -41 19 -74 32 -74 27 0 -21
-64 53 -115 133 -48 76 -59 101 -71 172 -23 128 -6 261 49 391 19 45 21 47 29
25 9 -23 9 -23 31 13 12 20 36 57 52 82 26 39 32 43 45 30 13 -13 11 -22 -21
-82z m556 -11 c-3 -6 -17 -11 -31 -11 -13 0 -24 -4 -24 -9 0 -5 -9 -11 -21
-14 -13 -3 -19 -1 -16 6 3 7 10 11 16 10 6 -2 11 3 11 11 0 9 12 16 33 18 38
4 41 3 32 -11z m193 4 c-3 -3 -50 -14 -104 -25 l-99 -20 75 5 c41 3 93 8 115
12 42 6 45 -4 4 -13 -30 -6 -159 -23 -178 -24 -11 0 -11 -3 0 -16 7 -9 21 -46
30 -82 13 -51 18 -60 19 -37 2 30 2 29 12 -7 13 -51 27 -49 18 2 -6 34 -5 40
11 40 9 0 23 2 31 5 10 4 13 -6 13 -40 0 -44 -8 -58 -18 -31 -3 7 0 19 6 25 8
8 8 11 0 11 -19 0 -24 -32 -8 -50 18 -20 19 -37 3 -43 -10 -3 -10 -7 1 -20 11
-14 11 -18 -3 -23 -15 -6 -15 -9 -1 -30 8 -13 11 -24 5 -24 -5 0 -10 -9 -10
-20 0 -11 4 -20 10 -20 5 0 6 7 3 17 -4 11 -3 14 6 9 7 -5 10 -22 7 -44 l-5
-37 14 30 c9 22 10 35 2 50 -9 18 -8 18 6 7 14 -12 17 -9 26 20 5 18 9 24 9
13 0 -11 -7 -42 -17 -69 -16 -45 -21 -50 -62 -62 -59 -18 -63 -18 -45 8 18 25
22 78 6 78 -5 0 -10 -8 -10 -18 0 -11 -9 -27 -20 -37 -11 -10 -18 -20 -15 -23
4 -4 -41 -52 -49 -52 -2 0 -3 7 -2 16 1 11 -9 17 -28 20 -59 6 -85 25 -112 80
-22 45 -25 64 -22 120 2 48 -1 69 -9 71 -8 3 -13 -5 -13 -21 0 -13 -4 -28 -10
-31 -5 -3 -10 -38 -10 -76 0 -73 25 -144 55 -156 8 -3 15 -9 15 -15 0 -5 -5
-6 -12 -2 -6 4 -8 3 -5 -4 4 -5 16 -8 27 -5 12 3 20 0 20 -6 0 -7 -6 -9 -12
-5 -10 5 -10 4 -2 -5 9 -10 17 -10 32 -2 11 6 27 11 34 10 7 0 -18 -15 -57
-34 l-70 -34 42 -1 c25 0 67 12 108 30 88 40 96 37 15 -4 -49 -25 -84 -35
-141 -40 -74 -7 -77 -7 -106 21 -41 37 -79 115 -92 188 -13 72 -14 84 -1 65 9
-13 10 -13 9 0 0 8 -6 44 -14 80 -8 36 -14 74 -14 85 0 11 11 -28 25 -87 24
-112 82 -248 82 -195 0 15 -4 27 -8 27 -12 0 -29 48 -50 145 -18 83 -25 147
-13 118 2 -7 9 -13 14 -13 4 0 6 6 3 14 -3 9 9 17 40 26 25 7 43 16 41 21 -3
4 16 11 42 15 27 3 77 12 113 19 54 11 58 13 28 14 -21 1 -38 6 -38 12 0 5 5
7 11 3 11 -7 52 10 81 34 20 16 232 53 216 37z m-3025 -23 c-4 -16 -73 -47
-73 -32 0 14 46 46 72 49 3 1 4 -7 1 -17z m2107 -3 c13 -9 12 -10 -2 -5 -12 4
-22 -3 -32 -22 -18 -32 -21 -24 -4 13 13 28 16 29 38 14z m-10 -64 c-6 -15
-13 -26 -15 -23 -3 2 1 19 8 37 6 17 13 28 15 23 1 -5 -2 -22 -8 -37z m-2083
13 c-3 -8 -6 -5 -6 6 -1 11 2 17 5 13 3 -3 4 -12 1 -19z m2033 -45 c-11 -17
-11 -17 -6 0 3 10 6 24 7 30 0 9 2 9 5 0 3 -7 0 -20 -6 -30z m600 27 c0 -5
-17 -9 -37 -9 l-38 2 35 7 c19 4 36 8 38 9 1 0 2 -3 2 -9z m53 3 c-7 -2 -21
-2 -30 0 -10 3 -4 5 12 5 17 0 24 -2 18 -5z m-1866 -45 c-3 -8 -6 -5 -6 6 -1
11 2 17 5 13 3 -3 4 -12 1 -19z m1638 8 c-15 -10 -31 -11 -60 -5 l-40 8 37 -2
c20 -1 40 2 44 6 4 4 14 7 23 7 12 0 11 -3 -4 -14z m52 -2 c-3 -3 -12 -4 -19
-1 -8 3 -5 6 6 6 11 1 17 -2 13 -5z m-676 -45 l-10 -24 0 26 c-1 14 2 29 6 33
12 12 14 -9 4 -35z m-1004 -61 c-2 -18 -4 -6 -4 27 0 33 2 48 4 33 2 -15 2
-42 0 -60z m986 -21 c-4 -19 -8 -25 -13 -16 -5 7 -3 20 3 30 15 23 16 20 10
-14z m1511 -31 c-14 -32 -28 -55 -31 -53 -2 3 8 30 23 61 36 72 42 66 8 -8z
m-3412 -108 c-4 -105 -10 -127 -34 -128 -5 0 -8 11 -8 24 0 14 -4 35 -9 49
-11 29 32 167 53 167 1 0 0 -51 -2 -112z m1899 71 c11 -11 19 -31 18 -46 -1
-27 -1 -26 -9 5 -14 59 -22 49 -15 -18 4 -36 7 -73 7 -82 -1 -10 3 -20 7 -22
4 -3 6 16 5 42 -3 34 -1 42 6 27 5 -11 9 -38 9 -60 2 -106 66 -261 136 -329
64 -63 303 -184 376 -191 124 -12 229 -13 229 -1 0 6 5 4 10 -4 9 -13 11 -13
19 -1 8 12 14 13 35 3 15 -7 26 -8 26 -2 0 6 55 10 133 10 72 1 164 4 203 8
50 5 70 4 68 -3 -3 -7 8 -10 31 -7 19 2 35 9 35 14 0 12 90 5 124 -8 13 -5 17
-4 13 3 -4 6 3 11 18 11 14 0 22 -4 19 -9 -3 -5 8 -7 23 -4 78 12 153 14 153
4 0 -6 7 -3 16 5 8 9 21 16 27 16 7 0 6 -4 -3 -10 -21 -14 -3 -12 23 1 29 16
151 24 142 10 -3 -6 -1 -11 4 -11 6 0 11 5 11 10 0 6 8 10 18 9 9 0 12 -3 5
-5 -7 -3 -10 -18 -6 -37 l5 -33 -74 3 c-40 1 -104 -2 -143 -8 -38 -5 -160 -10
-270 -10 -111 0 -259 -4 -330 -9 -219 -17 -653 -24 -668 -12 -7 6 -24 13 -37
15 -57 11 -226 77 -196 77 5 0 3 7 -4 15 -7 8 -17 12 -24 8 -6 -3 -8 -3 -4 1
4 5 -4 19 -17 32 -25 25 -41 32 -29 12 4 -7 3 -8 -4 -4 -6 4 -8 14 -5 23 5 13
2 15 -11 10 -10 -4 -15 -3 -11 3 3 6 2 10 -2 10 -10 0 -49 62 -45 73 1 4 -4 7
-11 7 -15 0 -49 54 -40 64 4 3 -2 13 -13 22 -10 8 -13 13 -6 9 6 -3 12 -1 12
4 0 6 -4 11 -9 11 -28 0 -39 185 -17 280 3 14 0 28 -7 33 -8 6 -6 7 6 3 9 -3
17 -1 17 4 0 6 -6 10 -12 11 -10 0 -10 2 -1 6 8 3 11 15 8 31 -3 15 -2 21 1
13 4 -7 15 -22 25 -32z m2019 -6 c0 -22 -8 -14 -19 20 -10 29 -9 30 4 13 8
-11 15 -26 15 -33z m-540 28 c0 -5 -9 -19 -20 -32 l-20 -24 17 32 c19 34 23
39 23 24z m-48 -83 c-7 -7 -12 -8 -12 -2 0 14 12 26 19 19 2 -3 -1 -11 -7 -17z
m-2422 -29 c0 -12 -67 -12 -75 0 -3 5 9 11 27 13 37 4 48 1 48 -13z m-1068
-115 c2 -25 0 -51 -4 -57 -4 -7 -8 7 -8 30 0 23 -3 48 -6 57 -3 9 -2 16 4 16
5 0 12 -21 14 -46z m76 -2 c-7 -18 -16 -32 -21 -32 -4 0 -6 4 -3 9 3 4 10 21
16 36 6 15 13 26 15 23 3 -2 -1 -19 -7 -36z m3149 -1 c-1 -17 -5 -27 -9 -23
-7 7 0 52 8 52 2 0 2 -13 1 -29z m891 -65 c-14 -18 -18 0 -11 50 l8 49 5 -45
c3 -25 2 -49 -2 -54z m-4082 19 c1 -19 -2 -33 -7 -29 -5 3 -9 21 -9 41 0 45
12 36 16 -12z m3717 29 c18 -7 23 -29 8 -38 -11 -7 -173 5 -166 12 3 3 31 5
63 5 l57 -1 -55 10 c-68 12 -334 4 -375 -12 -18 -7 -26 -7 -20 -1 28 29 130
41 301 36 94 -2 178 -7 187 -11z m-585 -11 c-16 -2 -28 -8 -28 -13 0 -5 -9
-12 -21 -15 -12 -4 -32 -17 -46 -29 -29 -25 -63 -39 -63 -26 0 5 8 11 19 15
10 3 30 16 44 28 40 36 60 46 92 45 30 -1 30 -1 3 -5z m-1628 -39 c0 -22 -26
-16 -27 5 -1 14 3 18 13 14 8 -3 14 -11 14 -19z m2510 5 c0 -5 -7 -9 -15 -9
-9 0 -12 6 -9 15 6 15 24 11 24 -6z m-853 -9 c3 -10 2 -11 -4 -4 -4 6 -15 14
-23 17 -11 5 -9 6 4 4 11 -1 21 -9 23 -17z m739 5 l29 -15 -38 0 c-21 0 -70
-7 -108 -16 -39 -9 -73 -13 -76 -10 -3 3 8 8 23 11 16 3 49 14 74 25 57 23 62
23 96 5z m-780 -3 c16 -10 34 -48 27 -56 -12 -12 -21 -6 -16 12 2 10 -3 24
-11 31 -18 15 -22 1 -5 -16 8 -8 8 -13 0 -17 -6 -4 -11 -2 -11 4 0 6 -4 9 -9
6 -4 -3 -6 6 -3 19 5 26 10 29 28 17z m129 -14 c-33 -19 30 -38 126 -38 76 0
92 3 109 20 26 26 27 25 28 -9 l1 -28 -95 -2 c-111 -2 -167 11 -189 42 -21 30
-19 35 11 29 23 -4 24 -6 9 -14z m365 -4 c13 -32 -2 -54 -36 -54 -29 0 -42 36
-21 57 12 13 16 12 31 -2 9 -9 16 -13 16 -8 0 5 -5 14 -12 21 -9 9 -9 12 0 12
7 0 17 -12 22 -26z m-3578 -9 c-2 -14 -6 -25 -7 -25 -1 0 -5 11 -7 25 -3 16
-1 25 7 25 8 0 10 -9 7 -25z m2299 -124 c86 -85 178 -141 277 -166 l57 -15
-56 4 c-85 6 -171 52 -256 134 -75 74 -116 129 -128 172 -3 14 7 2 24 -26 16
-28 53 -74 82 -103z m2249 105 c7 -30 5 -36 -9 -36 -13 0 -16 8 -13 41 5 46
10 45 22 -5z m-1048 5 c2 -17 1 -28 -4 -25 -8 5 -12 54 -4 54 2 0 6 -13 8 -29z
m562 13 c10 -25 7 -92 -4 -99 -6 -4 -10 13 -10 44 0 30 -4 51 -11 51 -7 0 -9
-18 -5 -52 3 -29 3 -47 0 -40 -4 9 -11 7 -24 -8 -10 -12 -21 -17 -24 -12 -3 6
1 15 9 22 10 9 12 17 5 30 -5 9 -7 20 -4 23 3 3 3 11 -1 17 -8 13 -34 -17 -35
-40 0 -13 1 -13 10 0 8 12 10 11 10 -7 0 -12 -6 -23 -12 -26 -18 -6 -39 3 -32
14 8 13 -7 10 -36 -6 -30 -17 -44 -19 -35 -4 9 14 -4 79 -15 79 -6 0 -10 -7
-10 -15 0 -8 -4 -15 -10 -15 -5 0 -10 -7 -10 -15 0 -8 -3 -15 -7 -16 -35 -4
-72 -11 -95 -19 -37 -12 -35 -4 3 15 17 9 29 19 26 21 -6 6 -120 -48 -129 -61
-4 -5 -15 -10 -25 -11 -10 -1 -28 -4 -40 -8 -13 -4 -23 -5 -23 -2 0 2 15 9 33
15 19 7 63 27 98 47 48 26 56 34 34 30 l-30 -5 30 14 c17 8 55 15 85 15 38 1
49 4 35 9 -14 6 7 10 65 15 86 6 145 11 166 14 7 1 15 -5 18 -14z m-920 -10
c3 -8 2 -12 -4 -9 -6 3 -10 10 -10 16 0 14 7 11 14 -7z m1436 -14 c0 -16 -2
-30 -4 -30 -2 0 -6 14 -8 30 -3 17 -1 30 4 30 4 0 8 -13 8 -30z m-2717 0 c-3
-12 -8 -19 -11 -16 -5 6 5 36 12 36 2 0 2 -9 -1 -20z m-1883 -30 c0 -16 -2
-30 -4 -30 -2 0 -6 14 -8 30 -3 17 -1 30 4 30 4 0 8 -13 8 -30z m1496 -20 c0
-22 -1 -38 -2 -37 -1 1 -9 19 -17 40 -15 34 -15 37 1 37 13 0 17 -9 18 -40z
m2174 36 c0 -2 -7 -7 -16 -10 -8 -3 -12 -2 -9 4 6 10 25 14 25 6z m1030 -16
c0 -5 -2 -10 -4 -10 -3 0 -8 5 -11 10 -3 6 -1 10 4 10 6 0 11 -4 11 -10z
m-4673 -32 c-3 -7 -5 -2 -5 12 0 14 2 19 5 13 2 -7 2 -19 0 -25z m1430 -30
c-2 -13 -4 -3 -4 22 0 25 2 35 4 23 2 -13 2 -33 0 -45z m446 30 c2 -13 8 -32
11 -43 7 -19 7 -19 -4 -2 -16 24 -31 79 -21 72 5 -2 11 -15 14 -27z m2282 10
c6 -4 2 -8 -7 -8 -10 0 -18 7 -18 17 0 9 3 12 8 7 4 -5 12 -12 17 -16z m-655
-7 c-13 -11 -28 -17 -32 -15 -4 3 -8 0 -8 -5 0 -6 -6 -10 -12 -8 -7 1 -12 -3
-11 -10 2 -7 -7 -17 -20 -23 -21 -11 -21 -10 -3 4 26 21 8 20 -33 0 -28 -14
-68 -15 -314 -10 -303 6 -332 7 -347 22 -6 6 23 7 78 2 48 -4 153 -7 234 -6
81 2 149 0 152 -3 9 -9 136 11 175 27 19 8 37 10 40 5 3 -4 22 2 41 15 19 12
46 23 60 23 l25 1 -25 -19z m100 15 c0 -5 -69 -46 -78 -46 -3 0 9 11 28 25 33
23 50 30 50 21z m897 -2 c-3 -3 -12 -4 -19 -1 -8 3 -5 6 6 6 11 1 17 -2 13 -5z
m-4490 -56 c-3 -8 -6 -5 -6 6 -1 11 2 17 5 13 3 -3 4 -12 1 -19z m3693 2 c0
-5 -10 -10 -22 -9 -22 0 -22 1 -3 9 11 5 21 9 23 9 1 1 2 -3 2 -9z m-190 -14
c0 -2 -7 -7 -16 -10 -8 -3 -12 -2 -9 4 6 10 25 14 25 6z m-1040 -16 c0 -5 -2
-10 -4 -10 -3 0 -8 5 -11 10 -3 6 -1 10 4 10 6 0 11 -4 11 -10z m1455 -50 l5
-45 -14 50 c-18 61 -18 61 -7 50 6 -6 13 -30 16 -55z m-2448 28 c-3 -8 -6 -5
-6 6 -1 11 2 17 5 13 3 -3 4 -12 1 -19z m463 -38 c0 -8 32 -47 70 -85 39 -38
70 -66 70 -62 0 4 9 -1 20 -11 12 -9 24 -17 28 -17 4 0 39 -16 77 -34 39 -19
95 -42 125 -52 35 -12 46 -18 30 -18 -33 -1 -201 63 -214 81 -6 8 -17 13 -23
11 -7 -3 -13 0 -13 6 0 6 -7 11 -15 11 -21 0 -156 140 -184 191 l-24 44 27
-24 c14 -14 26 -32 26 -41z m2019 -25 l0 -20 -9 20 c-5 11 -9 27 -9 35 -1 13
0 13 9 0 5 -8 9 -24 9 -35z m-2543 -31 c-4 -14 -9 -24 -12 -21 -3 2 -2 17 2
31 3 15 9 25 11 22 3 -3 2 -17 -1 -32z m2574 26 c0 -5 -2 -10 -4 -10 -3 0 -8
5 -11 10 -3 6 -1 10 4 10 6 0 11 -4 11 -10z m-1243 -6 c-3 -3 -12 -4 -19 -1
-8 3 -5 6 6 6 11 1 17 -2 13 -5z m1686 -1 c-7 -2 -19 -2 -25 0 -7 3 -2 5 12 5
14 0 19 -2 13 -5z m207 -55 c0 -4 -9 -8 -20 -8 -11 0 -20 4 -20 8 0 4 9 8 20
8 11 0 20 -4 20 -8z m-605 -20 c6 1 22 4 38 8 18 4 27 2 27 -5 0 -7 5 -9 13
-4 16 11 107 12 101 1 -3 -4 0 -8 5 -8 6 0 11 -10 11 -22 0 -22 -3 -23 -113
-25 -61 -1 -122 -5 -134 -8 -18 -4 -23 -1 -23 14 0 11 -3 26 -6 35 -4 10 -1
16 9 16 8 0 18 -6 20 -12 3 -8 6 -5 6 6 1 13 6 16 19 11 9 -4 22 -7 27 -7z
m385 2 c0 -5 -2 -10 -4 -10 -3 0 -8 5 -11 10 -3 6 -1 10 4 10 6 0 11 -4 11
-10z m-496 -36 c3 -8 2 -12 -4 -9 -6 3 -10 10 -10 16 0 14 7 11 14 -7z m-3920
-20 c3 -8 2 -12 -4 -9 -6 3 -10 10 -10 16 0 14 7 11 14 -7z m3938 -55 c11 -7
-99 -17 -262 -24 -63 -3 -155 -8 -205 -10 -229 -13 -286 -14 -281 -6 3 4 24 9
48 10 65 4 82 6 96 15 7 4 12 2 12 -4 0 -6 5 -8 11 -4 13 7 96 12 317 18 196
6 233 12 241 40 5 20 6 20 9 -4 2 -14 8 -28 14 -31z m449 -11 c-13 -4 -28 -5
-33 -1 -7 4 -8 1 -4 -6 5 -8 3 -12 -5 -10 -8 1 -23 1 -34 0 -14 -1 -16 -4 -7
-10 7 -4 26 -7 42 -6 17 1 30 -2 30 -6 0 -21 -63 -179 -76 -190 -7 -6 -12 -15
-9 -19 10 -16 -22 -28 -86 -34 -69 -7 -111 -13 -144 -22 -14 -4 -11 1 9 15 21
14 54 22 118 27 48 3 88 11 88 16 0 10 -100 3 -145 -9 -14 -4 -6 10 27 43 53
57 86 113 94 167 4 20 12 37 18 38 6 0 18 2 26 5 73 20 144 22 91 2z m66 16
c-3 -3 -12 -4 -19 -1 -8 3 -5 6 6 6 11 1 17 -2 13 -5z m323 -8 c0 -3 -4 -8
-10 -11 -5 -3 -10 -1 -10 4 0 6 5 11 10 11 6 0 10 -2 10 -4z m-545 -53 c-8
-43 -13 -53 -25 -53 -6 0 -5 11 0 26 17 43 10 52 -7 9 -35 -86 -132 -200 -217
-253 -20 -12 -19 -13 9 -8 17 3 62 8 100 10 39 3 92 8 120 11 49 7 49 6 32
-12 -19 -22 -23 -38 -5 -27 6 4 3 -5 -8 -19 -10 -15 -23 -27 -28 -27 -5 0 -1
9 9 20 10 11 14 20 9 20 -5 0 -17 -8 -26 -17 -8 -10 -26 -26 -39 -35 -13 -10
-18 -18 -12 -18 6 0 16 7 23 15 7 8 17 15 23 15 6 0 0 -11 -13 -25 -13 -14
-18 -25 -12 -25 7 0 47 34 89 75 53 52 84 75 102 76 26 1 25 1 -3 8 -26 5 -27
8 -13 19 8 7 31 14 50 15 42 2 38 17 -4 17 l-29 0 19 38 c10 20 27 63 37 95
25 80 37 72 14 -10 -16 -54 -16 -64 -4 -48 8 11 17 30 21 43 10 41 26 24 21
-23 -4 -28 -1 -46 6 -49 6 -2 3 -5 -8 -5 -15 -1 -16 -4 -7 -15 7 -9 8 -17 2
-20 -5 -3 -12 0 -14 6 -3 8 -6 6 -6 -4 -1 -10 5 -18 12 -18 6 0 0 -8 -15 -18
-16 -9 -28 -20 -28 -25 0 -4 -4 -5 -10 -2 -5 3 -7 0 -4 -8 3 -8 -1 -21 -8 -28
-7 -8 -21 -27 -31 -42 -25 -38 -55 -75 -94 -114 -40 -38 -44 -54 -6 -18 15 14
31 25 35 25 5 0 8 5 8 10 0 6 11 22 25 36 14 14 38 44 52 67 27 43 53 73 53
62 0 -29 -179 -241 -219 -258 -14 -7 -41 -22 -60 -34 -23 -16 -49 -23 -82 -23
-33 0 -49 -4 -49 -12 0 -9 -4 -8 -10 2 -6 10 -10 11 -10 3 0 -7 -8 -13 -17
-13 -15 0 -16 2 -3 10 11 7 0 9 -38 7 -36 -2 -51 1 -48 9 3 7 -5 9 -19 6 -31
-5 -105 28 -105 47 0 13 -2 13 -9 2 -7 -10 -13 -11 -30 -2 -24 13 -26 22 -9
39 7 7 9 12 6 12 -4 0 -14 -8 -24 -17 -17 -17 -17 -17 -12 3 4 16 2 20 -11 17
-9 -2 -28 8 -43 22 -15 14 -33 25 -39 25 -7 0 -10 3 -6 6 10 11 -20 34 -45 34
-16 0 -19 3 -10 9 11 6 9 9 -7 14 -11 2 -22 2 -24 -2 -2 -3 -2 -1 -1 6 2 6 -4
17 -11 23 -8 7 -13 16 -10 20 3 5 -4 12 -16 15 -14 5 -18 10 -11 17 13 13 -6
60 -21 51 -5 -3 -3 -9 4 -14 11 -7 11 -9 1 -9 -13 0 -33 40 -25 53 2 4 -4 7
-14 8 -16 0 -16 1 2 9 19 8 19 9 -3 9 -13 1 -21 5 -17 10 3 5 -1 16 -9 24 -11
11 -12 17 -3 27 9 10 9 11 0 6 -9 -5 -13 0 -12 16 0 13 3 17 6 11 2 -7 9 -13
14 -13 6 0 7 6 3 13 -5 9 -4 9 6 0 8 -7 20 -9 29 -4 22 10 44 8 48 -4 2 -6
-11 -12 -29 -13 -18 -2 -36 -6 -40 -10 -4 -4 12 -6 35 -4 l42 3 23 -59 c12
-32 37 -76 56 -98 18 -21 31 -46 29 -54 -4 -13 -3 -13 5 -1 8 11 4 23 -13 45
-28 37 -75 135 -75 156 0 8 16 -14 35 -50 20 -35 42 -71 51 -80 9 -8 0 15 -20
53 -20 37 -36 73 -36 80 0 7 15 13 34 14 32 3 36 -1 58 -45 12 -26 34 -65 49
-87 29 -43 130 -128 167 -139 37 -12 24 8 -19 29 -53 25 -132 112 -170 186
-28 56 -42 115 -19 79 6 -10 10 -11 10 -2 0 6 5 12 11 12 5 0 7 -4 4 -10 -3
-5 0 -10 8 -10 7 0 31 -25 52 -55 48 -70 118 -129 170 -144 62 -17 65 -13 8
14 -67 31 -144 108 -177 179 -30 63 -33 78 -10 50 15 -19 16 -19 10 1 -6 19
-5 19 7 3 8 -10 17 -15 20 -11 4 3 7 1 7 -5 0 -7 -8 -13 -17 -13 -17 -1 -17
-2 0 -6 9 -2 15 -10 11 -16 -3 -7 3 -2 14 11 30 34 35 27 11 -19 -26 -53 -9
-43 28 16 15 25 32 45 37 45 5 0 2 -8 -7 -18 -24 -26 -21 -33 8 -22 14 5 25 6
25 2 0 -4 5 1 11 11 5 9 7 22 3 29 -4 7 -3 8 5 4 19 -12 3 -47 -48 -101 -25
-27 -33 -38 -16 -25 16 14 33 29 37 35 14 19 17 -2 7 -39 -6 -20 -8 -45 -6
-54 2 -9 10 12 17 47 10 49 21 71 47 97 37 37 48 42 39 18 -4 -11 -1 -14 12
-9 15 4 23 -4 37 -35 23 -52 38 -52 20 0 -13 38 -13 40 6 40 11 0 17 -4 14
-10 -3 -5 -3 -10 2 -10 15 0 30 15 46 45 22 41 21 21 -2 -43 -22 -60 -28 -69
-85 -131 l-41 -44 35 19 c61 33 138 121 161 185 20 56 25 60 73 68 4 0 5 -16
1 -36z m-1275 12 c7 -9 8 -15 2 -15 -5 0 -12 7 -16 15 -3 8 -4 15 -2 15 2 0 9
-7 16 -15z m170 5 c0 -6 9 -6 25 0 14 5 25 6 25 1 0 -5 -7 -12 -16 -15 -24 -9
-94 -7 -94 3 0 5 10 7 22 3 14 -3 19 -2 14 6 -4 7 -1 12 8 12 9 0 16 -4 16
-10z m-265 -10 c3 -5 -1 -10 -10 -10 -9 0 -13 5 -10 10 3 6 8 10 10 10 2 0 7
-4 10 -10z m54 -1 c-18 -11 -39 -11 -39 0 0 5 12 9 26 9 18 0 22 -3 13 -9z
m131 7 c0 -2 -7 -6 -15 -10 -8 -3 -15 -1 -15 4 0 6 7 10 15 10 8 0 15 -2 15
-4z m1030 -5 c0 -3 -4 -12 -9 -19 -6 -11 -9 -9 -13 5 -3 12 0 20 8 20 8 0 14
-3 14 -6z m-1575 -11 c3 -6 -4 -10 -17 -10 -18 0 -20 2 -8 10 19 12 18 12 25
0z m65 3 c0 -5 -12 -9 -27 -10 -19 -1 -22 1 -12 8 17 11 39 12 39 2z m203 0
c-34 -2 -93 -2 -130 0 -37 2 -9 3 62 3 72 0 102 -1 68 -3z m1707 -3 c0 -5 -2
-10 -4 -10 -3 0 -8 5 -11 10 -3 6 -1 10 4 10 6 0 11 -4 11 -10z m-670 -15 c-7
-9 -15 -13 -17 -11 -7 7 7 26 19 26 6 0 6 -6 -2 -15z m-182 -16 c-19 -13 -28
-11 -28 5 0 9 7 12 21 9 16 -4 17 -8 7 -14z m295 6 c-3 -9 -8 -14 -10 -11 -3
3 -2 9 2 15 9 16 15 13 8 -4z m-2057 -30 c-8 -42 11 -49 20 -7 10 48 13 48 11
1 -2 -47 -2 -47 -37 -47 -19 0 -29 3 -22 5 6 3 12 19 12 37 0 30 6 46 18 46 2
0 1 -16 -2 -35z m1677 -8 c18 -4 17 -5 -5 -6 -23 -1 -28 3 -27 22 1 15 3 17 6
5 2 -9 14 -19 26 -21z m14 27 c-3 -3 -12 -4 -19 -1 -8 3 -5 6 6 6 11 1 17 -2
13 -5z m33 -14 c0 -11 -4 -20 -9 -20 -6 0 -9 9 -8 20 1 11 5 20 9 20 4 0 8 -9
8 -20z m-96 -6 c3 -8 2 -12 -4 -9 -6 3 -10 10 -10 16 0 14 7 11 14 -7z m-1850
-26 c-3 -4 7 -15 22 -24 22 -15 27 -15 35 -3 7 11 9 11 9 -4 0 -10 5 -15 10
-12 6 3 10 -1 10 -9 0 -9 -2 -16 -5 -16 -12 0 -72 34 -98 56 l-28 24 25 -2
c13 -1 22 -6 20 -10z m2847 -31 c-8 -8 -11 -5 -11 9 0 27 14 41 18 19 2 -9 -1
-22 -7 -28z m-2696 -27 c8 0 15 -5 15 -11 0 -6 -6 -9 -14 -6 -7 3 -19 0 -25
-6 -8 -8 -11 -2 -11 24 1 28 2 31 11 17 5 -10 17 -18 24 -18z m175 4 c0 -2
-21 -4 -47 -4 -27 0 -43 4 -36 8 12 8 83 4 83 -4z m328 9 c-21 -2 -57 -2 -80
0 -24 2 -7 4 37 4 44 0 63 -2 43 -4z m510 -88 c-10 -10 -108 -14 -108 -4 0 5
26 9 57 9 31 0 54 -2 51 -5z m-2527 -52 c13 -16 12 -17 -3 -4 -17 13 -22 21
-14 21 2 0 10 -8 17 -17z m3997 -3 c-7 -10 -14 -17 -17 -15 -4 4 18 35 25 35
2 0 -1 -9 -8 -20z m-703 -109 c3 -5 1 -12 -5 -16 -5 -3 -10 1 -10 9 0 18 6 21
15 7z"/>
<path d="M3941 4284 c0 -11 3 -14 6 -6 3 7 2 16 -1 19 -3 4 -6 -2 -5 -13z"/>
<path d="M3826 4307 c3 -10 9 -15 12 -12 3 3 0 11 -7 18 -10 9 -11 8 -5 -6z"/>
<path d="M3581 4114 c0 -11 3 -14 6 -6 3 7 2 16 -1 19 -3 4 -6 -2 -5 -13z"/>
<path d="M4335 3920 c3 -5 8 -10 11 -10 2 0 4 5 4 10 0 6 -5 10 -11 10 -5 0
-7 -4 -4 -10z"/>
<path d="M3215 4051 c-17 -7 -14 -11 25 -31 25 -12 55 -31 66 -42 12 -11 24
-16 26 -11 8 12 -12 74 -21 69 -4 -3 -17 1 -27 9 -21 16 -39 17 -69 6z"/>
<path d="M5288 3803 c6 -2 18 -2 25 0 6 3 1 5 -13 5 -14 0 -19 -2 -12 -5z"/>
<path d="M5385 3800 c33 -5 83 -11 110 -14 42 -4 45 -3 20 5 -16 5 -66 11
-110 14 -78 4 -79 4 -20 -5z"/>
<path d="M5313 3755 c-7 -8 -9 -16 -4 -19 5 -3 12 1 15 10 4 10 13 13 28 9 18
-5 20 -4 8 4 -20 14 -32 13 -47 -4z"/>
<path d="M5875 3649 c-4 -6 -4 -13 -1 -16 3 -4 6 -1 6 6 0 8 6 11 16 7 8 -3
12 -2 9 4 -8 13 -22 13 -30 -1z"/>
<path d="M5212 3538 c2 -6 10 -14 16 -16 7 -2 10 2 6 12 -7 18 -28 22 -22 4z"/>
<path d="M5620 2169 c0 -5 5 -7 10 -4 6 3 10 8 10 11 0 2 -4 4 -10 4 -5 0 -10
-5 -10 -11z"/>
<path d="M5609 2113 c-13 -16 -12 -17 4 -4 16 13 21 21 13 21 -2 0 -10 -8 -17
-17z"/>
<path d="M5685 2050 c-3 -6 1 -7 9 -4 18 7 21 14 7 14 -6 0 -13 -4 -16 -10z"/>
<path d="M4613 3264 c-17 -9 -40 -25 -50 -37 -18 -21 -18 -21 20 1 42 24 49
19 13 -9 -29 -23 -45 -66 -36 -99 6 -22 7 -20 14 16 4 23 17 51 29 62 25 23
91 44 113 35 8 -3 14 0 14 7 0 9 -14 11 -50 8 -27 -3 -50 -4 -50 -2 0 2 12 10
28 18 23 13 24 15 7 15 -11 0 -34 -7 -52 -15z"/>
<path d="M4660 3205 c-10 -12 -8 -18 10 -33 l22 -18 -23 -1 c-28 -2 -39 -13
-45 -48 -3 -17 0 -31 8 -36 9 -6 9 -9 1 -9 -6 0 -9 -9 -6 -20 4 -15 14 -20 40
-20 39 0 76 16 68 30 -7 12 26 51 37 44 4 -3 8 4 8 15 0 12 -4 21 -10 21 -5 0
-7 7 -4 15 4 8 2 15 -4 15 -6 0 -13 13 -17 28 -5 24 -11 29 -40 30 -18 1 -39
-5 -45 -13z m30 -85 c0 -20 -33 -44 -51 -38 -12 4 27 58 42 58 5 0 9 -9 9 -20z"/>
<path d="M4660 3110 c-8 -5 -12 -11 -9 -14 2 -3 11 -1 19 4 8 5 12 11 9 14 -2
3 -11 1 -19 -4z"/>
<path d="M4610 3195 c-7 -9 -10 -18 -6 -22 3 -3 6 -1 6 5 0 7 5 12 11 12 5 0
7 -4 4 -10 -3 -5 -2 -10 3 -10 5 0 12 9 15 20 6 24 -15 27 -33 5z"/>
<path d="M4095 3010 c-16 -16 -26 -30 -22 -30 3 0 21 14 39 30 18 17 28 30 22
30 -6 0 -23 -13 -39 -30z"/>
<path d="M4188 3026 c-21 -8 -38 -11 -38 -8 0 3 -14 -7 -31 -24 -38 -35 -69
-103 -69 -150 0 -48 28 -114 62 -147 26 -26 31 -28 64 -17 l35 12 -43 21 c-79
40 -112 132 -74 206 24 45 83 91 117 91 21 0 28 4 23 13 -4 6 -4 9 0 5 4 -3 6
-8 4 -11 -1 -3 5 -14 15 -25 10 -11 20 -40 22 -67 5 -62 15 -71 15 -13 0 57
-17 106 -40 118 -22 12 -16 12 -62 -4z m-47 -322 l24 -27 -27 18 c-16 9 -28
21 -28 26 0 14 5 11 31 -17z"/>
<path d="M4572 2985 c-19 -42 -14 -53 8 -17 22 36 24 42 12 42 -5 0 -14 -11
-20 -25z"/>
<path d="M4634 3000 c-28 -11 -39 -28 -16 -26 14 1 17 -6 15 -36 -2 -30 1 -38
15 -38 12 0 13 3 5 8 -10 7 -10 14 0 35 6 15 15 27 20 27 4 0 7 9 7 20 0 21
-12 24 -46 10z"/>
<path d="M4210 2945 c7 -8 17 -15 22 -15 5 0 3 7 -6 15 -8 8 -18 15 -22 15 -3
0 -1 -7 6 -15z"/>
<path d="M4250 2880 c0 -5 5 -10 11 -10 5 0 7 5 4 10 -3 6 -8 10 -11 10 -2 0
-4 -4 -4 -10z"/>
<path d="M4230 2858 c0 -9 5 -20 10 -23 13 -8 13 5 0 25 -8 13 -10 13 -10 -2z"/>
<path d="M4280 2825 c0 -8 4 -15 10 -15 5 0 7 7 4 15 -4 8 -8 15 -10 15 -2 0
-4 -7 -4 -15z"/>
<path d="M4256 2813 c-6 -14 -5 -15 5 -6 7 7 10 15 7 18 -3 3 -9 -2 -12 -12z"/>
<path d="M3516 3017 c3 -10 9 -15 12 -12 3 3 0 11 -7 18 -10 9 -11 8 -5 -6z"/>
<path d="M4058 3063 c7 -3 16 -2 19 1 4 3 -2 6 -13 5 -11 0 -14 -3 -6 -6z"/>
<path d="M4848 2983 c7 -3 16 -2 19 1 4 3 -2 6 -13 5 -11 0 -14 -3 -6 -6z"/>
<path d="M4850 2958 c0 -11 28 -10 35 1 3 6 -4 9 -15 8 -11 -1 -20 -5 -20 -9z"/>
<path d="M4850 2860 c0 -6 11 -8 28 -4 39 10 40 14 4 14 -18 0 -32 -5 -32 -10z"/>
<path d="M4998 2853 c7 -3 16 -2 19 1 4 3 -2 6 -13 5 -11 0 -14 -3 -6 -6z"/>
<path d="M4813 2714 c-8 -21 -1 -25 20 -9 15 11 16 13 2 19 -9 3 -18 -1 -22
-10z"/>
<path d="M4898 2615 c2 -14 6 -25 8 -25 2 0 4 11 4 25 0 14 -4 25 -9 25 -4 0
-6 -11 -3 -25z"/>
<path d="M5010 2740 c0 -11 2 -20 4 -20 2 0 6 9 9 20 3 11 1 20 -4 20 -5 0 -9
-9 -9 -20z"/>
<path d="M5077 2744 c-3 -5 1 -15 9 -22 16 -14 18 -5 5 17 -5 7 -11 9 -14 5z"/>
<path d="M5120 2700 c0 -5 5 -10 11 -10 5 0 7 5 4 10 -3 6 -8 10 -11 10 -2 0
-4 -4 -4 -10z"/>
<path d="M5100 2666 c0 -2 7 -7 16 -10 8 -3 12 -2 9 4 -6 10 -25 14 -25 6z"/>
<path d="M5041 2652 c0 -7 -5 -11 -10 -8 -4 3 -1 -10 7 -29 20 -43 22 -41 12
10 -4 22 -8 34 -9 27z"/>
<path d="M5093 2635 c0 -8 6 -16 14 -19 11 -4 11 -1 3 14 -13 24 -17 25 -17 5z"/>
<path d="M5226 2392 c-35 -67 -104 -328 -90 -341 2 -2 11 13 20 35 9 21 43 95
75 163 57 120 72 169 30 100 -25 -40 -27 -33 -6 18 20 48 19 54 -5 18 -22 -33
-25 -30 -10 9 13 34 4 33 -14 -2z"/>
<path d="M4666 2339 c-89 -19 -116 -29 -80 -29 16 0 17 -2 4 -10 -13 -9 -13
-10 0 -10 8 1 24 7 34 15 23 17 36 19 36 5 0 -5 -12 -16 -26 -23 -16 -8 -22
-17 -16 -21 6 -3 13 -2 17 4 3 5 15 10 26 10 11 0 17 -4 14 -10 -3 -5 1 -10
10 -10 11 0 15 5 12 14 -4 9 5 16 26 21 18 4 35 7 40 6 4 0 7 4 7 10 0 6 7 9
15 5 16 -6 19 3 9 28 -7 19 -15 19 -128 -5z"/>
<path d="M4538 2305 c-6 -11 10 -61 17 -53 2 2 1 17 -3 33 -5 16 -11 25 -14
20z"/>
<path d="M4718 2273 c7 -3 16 -2 19 1 4 3 -2 6 -13 5 -11 0 -14 -3 -6 -6z"/>
<path d="M4449 2171 c9 -44 20 -83 25 -88 5 -4 7 -2 4 7 -3 8 -11 48 -18 88
-7 39 -16 72 -20 72 -4 0 0 -36 9 -79z"/>
<path d="M4536 2155 c4 -8 8 -15 10 -15 2 0 4 7 4 15 0 8 -4 15 -10 15 -5 0
-7 -7 -4 -15z"/>
<path d="M4421 2064 c0 -11 3 -14 6 -6 3 7 2 16 -1 19 -3 4 -6 -2 -5 -13z"/>
<path d="M4475 2060 c3 -5 8 -10 11 -10 2 0 4 5 4 10 0 6 -5 10 -11 10 -5 0
-7 -4 -4 -10z"/>
<path d="M4963 1453 c9 -2 25 -2 35 0 9 3 1 5 -18 5 -19 0 -27 -2 -17 -5z"/>
<path d="M4658 1443 c7 -3 16 -2 19 1 4 3 -2 6 -13 5 -11 0 -14 -3 -6 -6z"/>
<path d="M4698 1443 c6 -2 18 -2 25 0 6 3 1 5 -13 5 -14 0 -19 -2 -12 -5z"/>
<path d="M5670 1794 c0 -8 5 -12 10 -9 6 3 10 10 10 16 0 5 -4 9 -10 9 -5 0
-10 -7 -10 -16z"/>
<path d="M5312 1020 c7 -11 17 -20 22 -20 5 0 1 9 -9 20 -10 11 -20 20 -22 20
-2 0 2 -9 9 -20z"/>
<path d="M5386 981 c10 -10 21 -17 23 -15 6 6 -20 34 -32 34 -6 0 -2 -8 9 -19z"/>
<path d="M5420 989 c0 -5 5 -7 10 -4 6 3 10 8 10 11 0 2 -4 4 -10 4 -5 0 -10
-5 -10 -11z"/>
<path d="M5430 970 c-13 -9 -13 -10 0 -10 12 0 12 -2 2 -9 -10 -6 -10 -10 3
-21 8 -7 18 -10 21 -7 3 3 16 2 28 -3 17 -6 23 -5 23 6 0 8 -6 13 -13 10 -17
-7 -28 11 -12 18 9 4 8 5 -2 5 -8 -1 -22 -1 -30 0 -13 1 -13 2 0 11 8 5 11 10
5 10 -5 0 -17 -5 -25 -10z m30 -30 c0 -5 -4 -10 -10 -10 -5 0 -10 5 -10 10 0
6 5 10 10 10 6 0 10 -4 10 -10z"/>
<path d="M5521 904 c0 -11 3 -14 6 -6 3 7 2 16 -1 19 -3 4 -6 -2 -5 -13z"/>
<path d="M5460 899 c0 -5 5 -7 10 -4 6 3 10 8 10 11 0 2 -4 4 -10 4 -5 0 -10
-5 -10 -11z"/>
<path d="M5554 874 c11 -8 25 -14 30 -13 6 0 5 3 -2 6 -6 2 -10 8 -8 12 3 4
-5 8 -17 8 -21 2 -22 1 -3 -13z"/>
<path d="M5600 866 c0 -8 14 -16 33 -19 43 -6 43 -4 2 16 -28 13 -35 14 -35 3z"/>
<path d="M5530 851 c0 -6 4 -13 10 -16 6 -3 7 1 4 9 -7 18 -14 21 -14 7z"/>
<path d="M4670 5714 c0 -5 10 -25 21 -44 40 -64 69 -159 71 -226 1 -35 4 -64
7 -64 2 0 9 7 16 16 7 10 36 20 71 25 l59 8 -62 -3 -63 -2 -6 35 c-15 98 -27
138 -51 182 -25 48 -63 91 -63 73z"/>
<path d="M4248 5433 c7 -3 16 -2 19 1 4 3 -2 6 -13 5 -11 0 -14 -3 -6 -6z"/>
<path d="M4926 5432 c-5 -9 41 -8 51 1 3 4 -5 7 -20 7 -14 0 -28 -4 -31 -8z"/>
<path d="M4745 5341 c-4 -15 -20 -20 -78 -25 -134 -13 -369 -45 -375 -51 -4
-3 -2 -9 4 -13 6 -4 26 -19 45 -33 32 -25 39 -26 142 -24 66 2 113 7 120 14 9
9 -18 10 -108 6 -99 -5 -123 -3 -139 9 -11 9 -17 18 -14 21 3 3 43 10 89 16
46 6 106 17 133 25 26 8 68 14 91 14 37 0 44 -3 49 -25 8 -31 -8 -105 -26
-116 -20 -13 -50 -11 -42 3 5 8 -7 9 -47 5 -30 -4 -85 -9 -124 -12 -38 -4 -76
-8 -82 -10 -7 -3 -13 4 -13 14 0 17 -18 31 -40 31 -11 0 -21 -45 -14 -64 3 -9
14 -16 24 -16 10 0 20 -5 22 -12 5 -15 173 4 238 27 51 18 90 19 90 3 0 -6
-28 -45 -61 -86 -34 -42 -55 -73 -47 -70 26 10 16 -24 -29 -102 l-43 -75 36
40 c19 22 31 30 25 18 -15 -29 -14 -54 1 -28 6 11 29 38 50 60 21 22 41 54 44
72 10 52 21 38 18 -19 -3 -44 -2 -48 5 -24 6 15 13 53 17 85 3 31 11 65 17 76
6 11 10 32 8 48 -3 30 0 31 49 17 19 -6 71 -12 115 -15 60 -3 71 -2 45 5 -19
5 -57 12 -85 15 -132 15 -125 12 -125 61 0 24 9 67 20 96 23 62 23 58 11 58
-5 0 -12 -8 -16 -19z m-268 -207 c-3 -3 -12 -4 -19 -1 -8 3 -5 6 6 6 11 1 17
-2 13 -5z"/>
<path d="M4817 5333 c-3 -5 20 -7 51 -5 98 5 110 9 30 11 -42 0 -79 -2 -81 -6z"/>
<path d="M5008 5333 c7 -3 16 -2 19 1 4 3 -2 6 -13 5 -11 0 -14 -3 -6 -6z"/>
<path d="M4220 5246 c0 -13 27 -41 39 -41 15 0 3 -78 -16 -96 -28 -28 -138
-45 -195 -30 -24 6 -51 14 -62 16 -27 6 -33 15 -9 15 11 0 37 -7 56 -15 20 -8
49 -15 64 -15 22 0 16 6 -32 25 -97 41 -156 12 -95 -46 16 -16 34 -29 39 -29
5 0 22 -5 38 -12 15 -6 31 -11 35 -10 5 1 7 -1 5 -6 -1 -4 13 -27 31 -52 38
-52 43 -46 7 8 l-25 37 46 7 c27 4 54 15 66 27 10 12 25 21 32 21 8 0 19 7 26
15 11 13 9 13 -23 0 -51 -21 -126 -37 -140 -28 -6 3 17 12 51 19 34 7 74 19
89 26 31 15 58 75 50 110 -12 46 -77 92 -77 54z m28 -21 c-3 -3 -9 2 -12 12
-6 14 -5 15 5 6 7 -7 10 -15 7 -18z"/>
<path d="M4218 5149 c12 -11 19 -13 24 -5 13 19 9 24 -16 22 -22 -1 -23 -2 -8
-17z"/>
<path d="M4965 5150 c-16 -7 -13 -9 15 -9 19 0 53 4 75 8 40 9 40 9 -15 9 -30
0 -64 -3 -75 -8z"/>
<path d="M4999 5084 c41 -13 76 -22 78 -20 6 6 -109 46 -130 45 -12 -1 12 -12
52 -25z"/>
<path d="M3235 5084 c-44 -8 -138 -21 -209 -30 -181 -22 -352 -79 -377 -126
-15 -28 -86 -230 -94 -268 -12 -60 11 -21 36 60 33 110 84 207 116 223 49 25
156 56 228 67 220 33 245 35 261 19 22 -23 21 -46 -7 -137 -21 -73 -27 -82
-49 -83 -25 -1 -25 -1 -2 -7 21 -7 22 -8 7 -29 -9 -13 -27 -23 -41 -23 -13 0
-24 -5 -24 -11 0 -6 8 -8 18 -5 9 3 35 8 57 11 22 3 49 7 60 10 11 2 56 7 100
10 44 4 85 11 90 17 7 6 1 8 -15 4 -14 -2 -62 -7 -107 -11 -45 -3 -90 -8 -99
-12 -15 -5 -16 -2 -10 27 3 19 17 57 30 86 13 28 27 74 31 102 6 44 4 52 -14
61 -11 6 -30 11 -43 11 -45 1 5 17 75 25 37 3 67 11 67 16 0 5 -1 8 -2 8 -2
-1 -39 -8 -83 -15z"/>
<path d="M5085 5036 c94 -27 190 -43 163 -26 -16 10 -94 26 -208 44 -19 3 1
-5 45 -18z"/>
<path d="M5326 4954 c22 -22 60 -72 83 -111 24 -40 48 -73 53 -73 15 0 7 19
-47 108 -28 45 -57 82 -65 82 -9 0 -27 7 -40 16 -14 9 -7 -1 16 -22z"/>
<path d="M4569 4943 c-13 -16 -12 -17 4 -4 16 13 21 21 13 21 -2 0 -10 -8 -17
-17z"/>
<path d="M4146 4875 c8 -37 14 -45 14 -19 0 16 2 17 10 4 9 -13 10 -13 10 0 0
8 -5 22 -10 30 -9 13 -10 13 -10 0 0 -13 -1 -13 -10 0 -8 11 -9 7 -4 -15z"/>
<path d="M3223 4813 c9 -2 23 -2 30 0 6 3 -1 5 -18 5 -16 0 -22 -2 -12 -5z"/>
<path d="M3040 4789 c-11 -7 -4 -8 25 -3 50 8 58 14 19 14 -16 0 -36 -5 -44
-11z"/>
<path d="M5480 4767 c0 -3 16 -31 35 -63 58 -97 77 -158 83 -274 6 -115 19
-100 21 25 1 59 -5 82 -32 145 -26 60 -107 186 -107 167z"/>
<path d="M3137 4733 c-2 -5 -7 -21 -11 -38 -6 -28 -5 -29 9 -11 8 11 15 28 15
38 0 19 -6 23 -13 11z"/>
<path d="M4283 4660 c-47 -28 -40 -32 15 -8 57 25 61 28 36 28 -10 0 -34 -9
-51 -20z"/>
<path d="M3418 4633 c12 -2 32 -2 45 0 12 2 2 4 -23 4 -25 0 -35 -2 -22 -4z"/>
<path d="M3554 4395 c-9 -14 -15 -28 -12 -30 2 -2 12 9 22 25 21 36 13 40 -10
5z"/>
<path d="M2175 4207 c-42 -33 -209 -129 -275 -159 -30 -14 -77 -36 -105 -48
-27 -13 -75 -33 -105 -46 l-55 -23 60 0 c64 -1 246 36 309 63 58 24 66 22 66
-24 0 -45 17 -85 49 -114 17 -16 32 -18 95 -14 42 3 81 10 88 15 7 6 22 13 33
15 16 3 12 8 -23 28 -47 26 -96 92 -114 152 -10 36 -3 109 17 161 10 23 -4 21
-40 -6z m109 -316 c3 -5 -1 -11 -9 -15 -9 -3 -15 0 -15 9 0 16 16 20 24 6z
m-73 -21 c6 0 7 5 4 10 -3 6 -1 10 4 10 6 0 11 -6 11 -14 0 -15 -22 -26 -48
-25 -11 0 -12 2 -4 6 6 2 12 12 13 21 0 11 2 12 6 5 2 -7 9 -13 14 -13z m-41
0 c-20 -13 -33 -13 -25 0 3 6 14 10 23 10 15 0 15 -2 2 -10z"/>
<path d="M4045 4149 c-8 -13 -9 -12 38 -38 45 -25 47 -25 47 -6 0 8 -15 24
-32 35 -38 23 -44 24 -53 9z"/>
<path d="M6173 4013 c9 -2 25 -2 35 0 9 3 1 5 -18 5 -19 0 -27 -2 -17 -5z"/>
<path d="M3090 3899 c0 -5 5 -7 10 -4 6 3 10 8 10 11 0 2 -4 4 -10 4 -5 0 -10
-5 -10 -11z"/>
<path d="M2350 3862 c-8 -9 -23 -35 -34 -57 -47 -102 -55 -125 -45 -130 9 -6
102 182 97 196 -2 4 -10 0 -18 -9z"/>
<path d="M3010 3770 c0 -5 5 -10 10 -10 6 0 10 5 10 10 0 6 -4 10 -10 10 -5 0
-10 -4 -10 -10z"/>
<path d="M2996 3731 c-4 -7 -5 -15 -2 -18 9 -9 19 4 14 18 -4 11 -6 11 -12 0z"/>
<path d="M2969 3665 c-10 -20 -12 -33 -5 -32 9 2 36 49 36 63 0 15 -18 -2 -31
-31z"/>
<path d="M1805 3652 c-70 -24 -215 -96 -215 -107 0 -2 39 16 88 41 48 24 123
55 167 69 44 13 71 24 60 24 -11 0 -56 -12 -100 -27z"/>
<path d="M2950 3600 c0 -13 -5 -18 -15 -14 -8 4 -15 1 -15 -7 0 -7 3 -9 7 -6
3 4 12 2 18 -3 10 -8 14 -3 17 20 3 16 1 30 -4 30 -4 0 -8 -9 -8 -20z"/>
<path d="M2930 3550 c0 -6 -5 -8 -12 -4 -8 5 -9 2 -5 -9 3 -10 3 -17 -2 -17
-4 0 -6 -10 -4 -23 3 -15 -5 -32 -22 -51 -19 -20 -25 -35 -21 -51 4 -14 1 -25
-6 -27 -7 -3 -9 -11 -4 -24 7 -16 12 -11 31 31 24 53 24 71 0 39 -8 -10 -15
-14 -15 -7 0 6 9 18 19 25 23 16 63 116 50 124 -5 3 -9 0 -9 -6z"/>
<path d="M2120 3510 c33 -10 163 -11 220 -1 32 6 4 9 -100 9 -86 0 -135 -3
-120 -8z"/>
<path d="M1631 3480 c-115 -32 -145 -51 -161 -102 -7 -24 -18 -49 -23 -55 -14
-18 -3 -16 38 8 49 29 56 16 14 -29 -118 -125 -338 -524 -384 -697 -41 -153
-65 -338 -66 -503 0 -150 2 -189 21 -302 6 -36 16 -94 22 -130 22 -135 117
-409 183 -529 67 -121 162 -251 243 -334 91 -92 219 -195 284 -228 75 -38 412
-112 387 -85 -4 4 -21 8 -38 8 -17 1 -28 5 -25 9 3 5 -2 6 -10 3 -9 -3 -16 -1
-16 5 0 6 -11 11 -25 11 -14 0 -25 4 -25 8 0 5 -49 33 -110 62 -60 30 -110 59
-110 63 0 5 6 5 13 0 18 -15 121 -52 164 -58 21 -4 86 -8 145 -10 89 -3 106
-1 101 11 -3 8 4 18 18 23 l24 10 -23 0 c-38 1 -244 52 -277 69 -59 30 -201
132 -256 184 -30 29 -45 44 -32 34 28 -24 31 -6 3 19 -11 10 -20 23 -20 28 0
6 9 2 20 -8 25 -22 26 -15 3 12 -10 11 -24 18 -32 15 -10 -3 -12 0 -8 12 4 9
2 16 -4 16 -6 0 -7 4 -4 10 3 5 -3 15 -15 22 -11 7 -20 16 -20 21 0 4 5 5 10
2 6 -3 10 -1 10 4 0 6 -7 11 -16 11 -8 0 -12 5 -9 10 3 6 1 10 -4 10 -6 0 -11
5 -11 11 0 5 6 7 13 4 6 -4 4 0 -5 8 -10 8 -14 17 -10 21 4 4 1 6 -7 4 -7 -2
-16 3 -19 11 -3 8 0 11 7 7 7 -5 9 -1 4 9 -4 12 -8 13 -13 5 -5 -8 -9 -7 -13
4 -4 9 -1 16 6 16 7 0 3 7 -7 15 -11 8 -16 15 -10 15 5 0 2 5 -6 10 -12 8 -13
10 -1 10 10 0 7 8 -9 25 -15 16 -19 25 -10 25 9 0 5 9 -10 25 -13 14 -20 25
-17 25 4 0 1 10 -7 23 -8 12 -17 37 -21 55 -4 20 -13 32 -23 33 -10 0 -12 3
-5 5 8 4 9 13 3 29 -5 12 -6 26 -3 29 4 3 1 6 -5 6 -7 0 -11 3 -10 8 1 4 -6
22 -15 40 -13 24 -14 32 -5 32 10 0 9 3 -1 9 -16 10 -41 4 -41 -11 0 -5 4 -6
10 -3 6 4 7 -6 4 -25 -5 -20 -3 -30 6 -30 8 0 11 -9 8 -25 -3 -14 -1 -25 4
-25 6 0 8 -6 5 -14 -3 -7 1 -23 9 -35 13 -18 13 -21 0 -21 -27 0 -80 172 -103
338 -22 157 -25 517 -5 602 66 278 90 356 128 431 32 64 26 76 -7 14 -13 -25
-28 -44 -32 -42 -5 1 -8 6 -7 10 1 9 37 94 56 131 11 23 12 32 1 45 -10 14
-10 14 4 3 14 -10 18 -10 23 3 3 9 0 15 -9 15 -8 0 -15 6 -15 13 1 16 30 55
30 39 0 -7 5 -12 11 -12 6 0 8 9 4 20 -5 14 -2 20 10 20 9 0 13 5 10 10 -6 10
29 68 50 82 6 5 6 8 0 8 -5 0 -4 4 4 9 7 5 15 24 17 42 2 18 12 40 21 49 15
14 16 13 4 -2 -7 -10 -11 -23 -8 -30 4 -8 6 -7 6 5 1 9 5 17 10 17 5 0 9 11 9
25 0 31 -9 26 -58 -37 -22 -27 -40 -43 -40 -34 0 9 3 16 8 16 4 0 14 11 22 24
8 14 41 52 73 85 56 58 61 61 105 60 26 0 90 -7 142 -14 l95 -14 -95 4 c-60 2
-84 1 -65 -5 64 -17 148 -11 197 14 l47 24 -57 7 c-31 4 -82 15 -112 26 -30
10 -62 19 -72 19 -10 0 -18 4 -18 9 0 8 76 -2 108 -14 6 -2 12 0 12 4 0 11
-84 30 -160 36 -37 3 -79 -2 -129 -15z m-161 -2044 c0 -3 -4 -8 -10 -11 -5 -3
-10 -1 -10 4 0 6 5 11 10 11 6 0 10 -2 10 -4z m-30 -28 c0 -6 -6 -5 -15 2 -8
7 -15 14 -15 16 0 2 7 1 15 -2 8 -4 15 -11 15 -16z m30 -78 c0 -5 -5 -10 -11
-10 -5 0 -7 5 -4 10 3 6 8 10 11 10 2 0 4 -4 4 -10z m-15 -40 c9 -16 13 -30
11 -30 -3 0 -12 14 -21 30 -9 17 -13 30 -11 30 3 0 12 -13 21 -30z m62 -62
c-3 -8 -6 -5 -6 6 -1 11 2 17 5 13 3 -3 4 -12 1 -19z m1 -53 c-3 -3 -9 2 -12
12 -6 14 -5 15 5 6 7 -7 10 -15 7 -18z m69 -51 c-3 -3 -12 -4 -19 -1 -8 3 -5
6 6 6 11 1 17 -2 13 -5z m9 -30 c-4 -9 1 -28 9 -41 9 -13 15 -28 13 -33 -2 -4
-13 12 -26 37 -13 25 -18 42 -13 38 6 -3 11 -1 11 4 0 6 3 11 6 11 3 0 3 -7 0
-16z m79 -124 c3 -5 2 -10 -4 -10 -5 0 -13 5 -16 10 -3 6 -2 10 4 10 5 0 13
-4 16 -10z"/>
<path d="M2890 3500 c-8 -26 -7 -41 2 -32 6 6 8 16 5 24 -3 7 -6 11 -7 8z"/>
<path d="M1774 3308 c-69 -60 -119 -113 -175 -188 -27 -36 -52 -69 -57 -75
-18 -23 -21 -45 -6 -45 8 0 13 4 10 9 -3 5 1 12 10 15 8 3 12 10 9 16 -3 5 -2
10 3 10 5 0 21 17 35 38 14 21 76 89 138 150 110 109 131 155 33 70z"/>
<path d="M1642 3300 c0 -14 2 -19 5 -12 2 6 2 18 0 25 -3 6 -5 1 -5 -13z"/>
<path d="M6385 3303 c-16 -2 -59 -8 -95 -14 -36 -6 -85 -13 -110 -16 -25 -3
-47 -8 -50 -10 -9 -9 193 11 228 22 6 3 12 -1 12 -8 0 -8 3 -8 9 2 5 7 14 10
20 7 6 -4 11 -2 11 5 0 8 4 8 15 -1 11 -9 15 -9 15 -1 0 8 5 9 19 1 12 -6 22
-6 26 -1 3 6 14 8 25 6 11 -2 20 0 20 6 0 9 -81 10 -145 2z"/>
<path d="M6540 3302 c0 -4 9 -8 20 -8 11 0 20 4 20 8 0 4 -9 8 -20 8 -11 0
-20 -4 -20 -8z"/>
<path d="M6600 3300 c0 -5 7 -7 15 -4 8 4 15 8 15 10 0 2 -7 4 -15 4 -8 0 -15
-4 -15 -10z"/>
<path d="M6678 3303 c6 -2 18 -2 25 0 6 3 1 5 -13 5 -14 0 -19 -2 -12 -5z"/>
<path d="M2766 3284 c-9 -8 -16 -22 -16 -29 0 -8 -16 -62 -36 -122 -19 -59
-33 -121 -31 -136 3 -20 -2 -31 -14 -38 -10 -5 -16 -16 -13 -24 9 -24 -97
-358 -123 -387 -8 -9 -16 -34 -18 -55 -1 -21 -10 -58 -19 -83 -29 -78 -58
-163 -76 -227 -15 -56 -16 -63 -1 -68 8 -3 21 1 27 9 6 9 15 12 19 8 5 -4 5 1
2 10 -3 10 -2 20 3 23 6 4 10 15 10 26 0 10 4 19 9 19 5 0 12 7 15 16 3 8 2
13 -3 10 -4 -3 -6 6 -3 20 4 20 7 23 14 12 7 -10 8 -8 4 5 -7 22 25 116 54
157 23 32 17 42 -7 13 -11 -14 -10 -9 2 21 8 21 15 47 15 58 0 10 7 21 16 25
10 3 12 8 5 12 -7 5 -2 32 15 81 14 41 36 116 50 165 32 114 36 118 80 99 28
-12 34 -12 34 -1 0 17 -28 43 -57 51 -22 7 -33 36 -13 36 16 0 36 49 64 156
36 140 34 180 -8 138z"/>
<path d="M6535 3260 c-3 -5 -1 -10 4 -10 6 0 11 5 11 10 0 6 -2 10 -4 10 -3 0
-8 -4 -11 -10z"/>
<path d="M6564 3258 c-3 -4 18 -8 45 -8 28 0 51 4 51 9 0 11 -89 10 -96 -1z"/>
<path d="M6675 3260 c3 -5 8 -10 11 -10 2 0 4 5 4 10 0 6 -5 10 -11 10 -5 0
-7 -4 -4 -10z"/>
<path d="M6705 3260 c-3 -5 -1 -10 4 -10 6 0 11 5 11 10 0 6 -2 10 -4 10 -3 0
-8 -4 -11 -10z"/>
<path d="M6080 3243 c0 -11 3 -14 8 -7 4 6 14 14 22 17 10 4 8 6 -7 6 -16 1
-23 -5 -23 -16z"/>
<path d="M6326 3252 c-7 -7 -14 -8 -88 -10 -27 -1 -48 -5 -48 -10 0 -8 165 -6
217 3 18 3 35 11 39 16 4 8 -1 9 -17 4 -35 -11 -62 -12 -80 -3 -9 4 -19 4 -23
0z"/>
<path d="M6480 3249 c0 -5 5 -7 10 -4 6 3 10 8 10 11 0 2 -4 4 -10 4 -5 0 -10
-5 -10 -11z"/>
<path d="M6045 3240 c-3 -6 1 -7 9 -4 18 7 21 14 7 14 -6 0 -13 -4 -16 -10z"/>
<path d="M2898 3224 c-14 -13 -8 -32 19 -64 15 -18 44 -64 65 -104 41 -76 43
-58 6 46 -21 59 -77 135 -90 122z"/>
<path d="M6624 3214 c-5 -2 -49 -6 -97 -9 -49 -4 -86 -9 -83 -12 7 -7 226 8
226 16 0 6 -28 9 -46 5z"/>
<path d="M6680 3210 c0 -5 5 -10 10 -10 6 0 10 5 10 10 0 6 -4 10 -10 10 -5 0
-10 -4 -10 -10z"/>
<path d="M6710 3212 c0 -4 14 -8 30 -7 17 0 30 3 30 7 0 5 -13 8 -30 8 -16 0
-30 -4 -30 -8z"/>
<path d="M6808 3213 c6 -2 18 -2 25 0 6 3 1 5 -13 5 -14 0 -19 -2 -12 -5z"/>
<path d="M1313 3188 c-15 -20 -25 -38 -20 -38 3 0 12 11 21 25 17 26 16 35 -1
13z"/>
<path d="M2871 3167 c0 -10 -17 -66 -36 -124 -19 -58 -35 -115 -35 -127 1 -12
25 -70 56 -131 30 -60 52 -96 48 -80 -3 17 -25 71 -49 120 -26 55 -40 95 -35
104 7 13 36 -32 83 -129 15 -31 15 -13 -1 28 -2 7 1 12 8 10 7 -2 15 3 18 11
3 8 0 11 -7 7 -7 -5 -9 -1 -5 9 9 23 27 3 27 -29 0 -14 3 -23 7 -21 5 3 11 -1
13 -7 4 -9 6 -8 6 2 0 8 -21 60 -49 115 -27 55 -42 91 -33 80 32 -42 104 -206
152 -350 71 -212 115 -401 124 -525 2 -34 3 -35 50 -38 30 -2 47 1 47 8 0 6
-4 9 -9 5 -6 -3 -13 16 -16 42 -17 126 -49 284 -76 374 -60 203 -174 463 -244
559 -18 25 -35 59 -38 75 -2 17 -5 22 -6 12z m0 -212 c8 -16 6 -15 -10 4 -12
13 -21 28 -21 35 0 12 14 -5 31 -39z m-10 -30 c7 -13 3 -12 -10 5 -11 14 -21
30 -21 35 0 11 14 -7 31 -40z m30 -51 c5 -15 8 -29 5 -31 -2 -2 -8 10 -14 26
-13 38 -5 41 9 5z"/>
<path d="M6030 3118 c0 -4 7 -8 15 -8 8 0 15 4 15 8 0 5 -7 9 -15 9 -8 0 -15
-4 -15 -9z"/>
<path d="M6560 3041 c0 -7 -5 -9 -11 -5 -7 4 -10 2 -8 -5 3 -7 8 -12 12 -12 4
1 18 1 32 1 16 0 25 6 25 15 0 8 -4 15 -10 15 -5 0 -10 -5 -10 -11 0 -8 -5 -8
-15 1 -11 9 -15 9 -15 1z"/>
<path d="M6627 3043 c-4 -3 -7 -11 -7 -17 0 -6 5 -5 12 2 6 6 9 14 7 17 -3 3
-9 2 -12 -2z"/>
<path d="M6657 3043 c-4 -3 -7 -11 -7 -17 0 -6 5 -5 12 2 6 6 9 14 7 17 -3 3
-9 2 -12 -2z"/>
<path d="M6685 3040 c-3 -5 -1 -10 4 -10 6 0 11 5 11 10 0 6 -2 10 -4 10 -3 0
-8 -4 -11 -10z"/>
<path d="M6720 3040 c-8 -5 -12 -12 -9 -15 4 -3 12 1 19 10 14 17 11 19 -10 5z"/>
<path d="M1465 3021 c-3 -5 -1 -12 5 -16 5 -3 10 1 10 9 0 18 -6 21 -15 7z"/>
<path d="M6510 3020 c0 -5 5 -10 10 -10 6 0 10 5 10 10 0 6 -4 10 -10 10 -5 0
-10 -4 -10 -10z"/>
<path d="M1516 2974 c-5 -14 -4 -15 9 -4 17 14 19 20 6 20 -5 0 -12 -7 -15
-16z"/>
<path d="M5853 2937 c2 -7 12 -16 23 -22 16 -8 19 -16 14 -41 -4 -17 -10 -36
-14 -42 -13 -22 5 -34 24 -17 17 15 21 15 57 -4 l38 -21 -45 7 c-71 9 -45 -2
95 -42 72 -20 168 -50 214 -66 47 -16 87 -27 89 -24 5 5 -10 11 -148 62 -52
19 -97 37 -100 40 -3 4 3 3 13 0 9 -4 17 -5 17 -3 0 5 -134 91 -140 89 -12 -3
-60 32 -60 44 0 7 -18 21 -41 32 -24 12 -39 15 -36 8z"/>
<path d="M5736 2908 c-22 -31 -20 -52 10 -87 14 -17 21 -31 16 -31 -6 0 -20
12 -31 26 -14 18 -21 22 -21 11 0 -9 11 -24 25 -35 14 -11 25 -26 25 -33 0
-11 -3 -11 -11 1 -7 11 -9 5 -5 -25 12 -89 45 -344 52 -400 7 -55 8 -57 13
-25 7 39 20 29 23 -17 1 -15 7 -35 14 -43 7 -8 14 -40 17 -70 7 -86 28 -254
33 -269 4 -11 7 -12 17 -2 13 13 19 99 8 116 -3 6 -7 33 -8 60 -2 66 -8 104
-21 135 -9 23 -7 26 26 41 29 12 33 17 18 22 -10 4 -26 7 -37 7 -10 0 -19 4
-19 9 0 5 -3 16 -6 24 -4 10 2 16 16 19 l21 3 -20 22 c-12 12 -21 26 -20 30 3
19 -2 34 -9 29 -4 -2 -8 37 -8 87 0 94 -11 227 -19 235 -6 7 -25 -45 -25 -69
0 -10 -4 -19 -10 -19 -25 0 -5 87 22 96 26 8 19 37 -12 44 l-25 6 23 8 c26 9
30 26 4 19 -10 -2 -26 5 -36 16 -18 20 -18 22 -1 41 21 23 35 19 15 -5 -10
-12 -10 -18 0 -30 17 -21 24 -11 26 36 1 38 0 39 -32 39 -23 0 -38 -7 -48 -22z
m124 -605 c0 -7 -4 -13 -10 -13 -5 0 -10 12 -10 28 0 21 2 24 10 12 5 -8 10
-21 10 -27z"/>
<path d="M2725 2890 c3 -5 0 -10 -8 -10 -8 0 -18 -7 -21 -16 -5 -14 -4 -15 9
-4 8 7 15 9 15 4 0 -11 20 18 20 29 0 4 -5 7 -11 7 -5 0 -7 -4 -4 -10z"/>
<path d="M5970 2896 c0 -2 39 -31 88 -63 106 -73 117 -79 109 -66 -12 19 -197
141 -197 129z"/>
<path d="M1505 2879 c-4 -6 -5 -12 -2 -15 2 -3 7 2 10 11 7 17 1 20 -8 4z"/>
<path d="M2707 2843 c-4 -3 -7 -13 -7 -22 1 -13 3 -13 11 2 11 19 8 33 -4 20z"/>
<path d="M6808 2833 c6 -2 18 -2 25 0 6 3 1 5 -13 5 -14 0 -19 -2 -12 -5z"/>
<path d="M6530 2821 c0 -3 -33 -6 -73 -7 -132 -1 -216 -8 -210 -17 7 -12 381
2 405 14 10 6 18 5 20 -2 2 -7 8 -6 16 3 10 13 4 15 -38 17 -35 1 -50 -3 -50
-11 0 -9 -3 -8 -10 2 -9 13 -10 13 -10 0 0 -10 -3 -11 -8 -4 -7 11 -42 15 -42
5z"/>
<path d="M6718 2823 c6 -2 18 -2 25 0 6 3 1 5 -13 5 -14 0 -19 -2 -12 -5z"/>
<path d="M1466 2805 c-9 -26 -7 -32 5 -12 6 10 9 21 6 23 -2 3 -7 -2 -11 -11z"/>
<path d="M2677 2806 c-4 -10 -3 -15 3 -11 6 3 10 1 10 -6 0 -7 3 -10 6 -6 3 3
2 13 -4 22 -8 16 -9 16 -15 1z"/>
<path d="M2920 2811 c0 -6 4 -13 10 -16 6 -3 7 1 4 9 -7 18 -14 21 -14 7z"/>
<path d="M2966 2782 c-2 -4 -1 -14 5 -22 7 -12 9 -10 9 8 0 23 -5 28 -14 14z"/>
<path d="M1436 2723 c-9 -26 -12 -43 -7 -38 11 13 32 77 27 82 -2 2 -11 -17
-20 -44z"/>
<path d="M5886 2739 c-3 -17 -6 -94 -6 -170 0 -138 8 -182 37 -193 12 -5 13 6
9 64 -5 58 -3 72 9 76 9 4 15 11 14 18 -1 6 -1 44 0 84 l1 74 41 -52 c23 -29
50 -55 60 -57 11 -3 16 -10 12 -17 -5 -7 -2 -7 8 1 12 10 20 8 41 -12 14 -13
28 -22 30 -20 2 2 44 5 94 7 l90 2 -4 28 -4 28 59 -6 c55 -6 59 -5 59 14 0 12
-8 23 -18 25 -10 3 -16 2 -14 -2 3 -4 1 -13 -3 -19 -6 -10 -35 -3 -117 26
-159 57 -291 87 -312 70 -13 -11 -14 -11 -7 1 6 11 4 13 -8 8 -18 -7 -47 17
-47 39 0 27 -17 14 -24 -17z m41 -51 c-3 -8 -6 -5 -6 6 -1 11 2 17 5 13 3 -3
4 -12 1 -19z m154 -85 c13 -16 12 -17 -3 -4 -10 7 -18 15 -18 17 0 8 8 3 21
-13z m-141 -13 c0 -5 -5 -10 -11 -10 -5 0 -7 5 -4 10 3 6 8 10 11 10 2 0 4 -4
4 -10z"/>
<path d="M2926 2747 c3 -10 9 -15 12 -12 3 3 0 11 -7 18 -10 9 -11 8 -5 -6z"/>
<path d="M2285 2740 c16 -7 12 -9 -20 -9 -46 -1 -85 -10 -85 -20 0 -3 43 -7
95 -7 52 -1 95 2 95 6 0 11 -64 40 -87 39 -16 0 -16 -1 2 -9z"/>
<path d="M6637 2704 c-2 -2 -146 -13 -169 -14 -10 0 -18 -4 -18 -8 0 -4 35 -5
78 -1 42 4 110 9 150 12 41 3 77 8 80 11 4 5 -115 4 -121 0z"/>
<path d="M2110 2685 c-7 -8 -8 -15 -2 -15 5 0 15 7 22 15 7 8 8 15 2 15 -5 0
-15 -7 -22 -15z"/>
<path d="M6386 2678 c7 -11 54 -10 54 1 0 5 -13 9 -30 9 -16 -1 -27 -5 -24
-10z"/>
<path d="M2130 2660 c-18 -25 -44 -36 -36 -15 3 8 1 15 -4 15 -14 0 -13 -27 1
-36 11 -7 67 41 58 50 -3 3 -11 -3 -19 -14z"/>
<path d="M1955 2663 c-37 -8 -116 -35 -113 -38 2 -2 28 3 58 11 30 8 78 14
108 14 33 0 51 4 47 10 -6 10 -62 12 -100 3z"/>
<path d="M1405 2640 c3 -5 8 -10 11 -10 2 0 4 5 4 10 0 6 -5 10 -11 10 -5 0
-7 -4 -4 -10z"/>
<path d="M1394 2622 c4 -7 2 -19 -4 -27 -7 -9 -8 -15 -2 -15 16 0 24 32 11 44
-9 8 -10 8 -5 -2z"/>
<path d="M1990 2623 c-48 -17 -130 -57 -130 -63 0 -7 155 52 167 64 7 7 -16 7
-37 -1z"/>
<path d="M2163 2545 c-47 -56 -88 -139 -114 -230 -19 -66 -23 -103 -22 -215 0
-152 16 -240 63 -353 49 -117 145 -249 204 -279 13 -6 10 0 -10 19 -39 37
-123 204 -157 313 -27 85 -48 205 -39 215 3 3 14 -3 24 -12 18 -16 19 -16 13
18 -3 18 -15 41 -27 50 -20 15 -21 22 -14 98 8 96 43 211 91 300 27 51 30 60
12 45 l-21 -19 18 28 c9 16 16 36 14 45 -2 12 -11 6 -35 -23z"/>
<path d="M2221 2564 c0 -11 3 -14 6 -6 3 7 2 16 -1 19 -3 4 -6 -2 -5 -13z"/>
<path d="M2951 2569 c-1 -8 12 -83 28 -165 16 -82 32 -174 36 -204 4 -30 11
-64 16 -75 11 -26 2 73 -17 190 -16 96 -62 281 -63 254z"/>
<path d="M1375 2560 c-3 -5 -1 -10 4 -10 6 0 11 5 11 10 0 6 -2 10 -4 10 -3 0
-8 -4 -11 -10z"/>
<path d="M1785 2550 c-4 -12 -5 -24 -2 -27 3 -2 8 5 12 17 4 12 5 24 2 27 -3
2 -8 -5 -12 -17z"/>
<path d="M5961 2529 c6 -12 24 -42 40 -67 22 -34 26 -48 16 -54 -9 -6 -9 -8 2
-8 8 0 20 -8 27 -17 13 -17 14 -17 8 0 -5 15 2 17 65 17 39 0 71 -4 71 -8 0
-4 54 -9 120 -9 103 -2 120 0 120 14 0 12 -7 14 -35 10 -38 -6 -49 9 -12 16
12 3 -23 4 -77 4 l-100 -2 -12 30 c-7 17 -13 24 -14 17 0 -7 -5 -10 -11 -6
-16 9 -30 -18 -17 -33 8 -10 6 -13 -5 -13 -8 0 -18 11 -21 25 -4 14 -11 25
-17 25 -7 0 -8 -7 -4 -17 12 -33 10 -36 -25 -40 -34 -3 -36 -2 -73 67 -21 38
-43 70 -48 70 -6 0 -5 -9 2 -21z"/>
<path d="M1370 2509 c7 -11 14 -19 16 -16 7 7 -7 37 -17 37 -6 0 -5 -9 1 -21z"/>
<path d="M2819 2519 c-10 -6 -7 -9 14 -9 29 0 35 5 14 13 -8 3 -20 1 -28 -4z"/>
<path d="M6255 2523 c-63 -9 -48 -23 26 -23 86 0 122 14 62 23 -21 4 -42 6
-48 5 -5 0 -23 -3 -40 -5z"/>
<path d="M2815 2490 c-7 -12 36 -20 54 -10 14 8 14 10 1 10 -8 1 -23 3 -32 5
-10 2 -20 0 -23 -5z"/>
<path d="M1359 2483 c0 -5 -2 -18 -5 -30 -2 -12 0 -24 4 -27 5 -3 9 10 9 29 0
30 -6 49 -8 28z"/>
<path d="M6358 2475 c-2 -3 -33 -11 -69 -19 l-64 -14 80 1 c67 2 80 5 83 20 3
15 -17 24 -30 12z"/>
<path d="M2840 2446 c-6 -9 -10 -21 -7 -28 4 -9 6 -7 6 4 1 9 7 18 14 21 6 2
9 7 6 11 -3 4 -12 0 -19 -8z"/>
<path d="M2855 2410 c3 -5 8 -10 11 -10 2 0 4 5 4 10 0 6 -5 10 -11 10 -5 0
-7 -4 -4 -10z"/>
<path d="M795 2390 c-3 -5 -1 -10 4 -10 6 0 11 5 11 10 0 6 -2 10 -4 10 -3 0
-8 -4 -11 -10z"/>
<path d="M2868 2373 c7 -3 16 -2 19 1 4 3 -2 6 -13 5 -11 0 -14 -3 -6 -6z"/>
<path d="M6096 2349 c-32 -5 -61 -11 -64 -14 -8 -8 55 -4 158 9 94 13 95 13
30 13 -36 0 -92 -3 -124 -8z"/>
<path d="M1340 2331 c0 -6 4 -13 10 -16 6 -3 7 1 4 9 -7 18 -14 21 -14 7z"/>
<path d="M2195 2330 c-3 -5 -1 -10 4 -10 6 0 11 5 11 10 0 6 -2 10 -4 10 -3 0
-8 -4 -11 -10z"/>
<path d="M2120 2302 c0 -15 16 -30 35 -34 11 -2 19 -10 17 -17 -6 -29 -7 -189
-1 -186 3 3 9 46 12 97 4 51 9 105 13 119 6 25 4 27 -35 27 -23 0 -41 -2 -41
-6z"/>
<path d="M1331 2233 c-2 -65 -1 -289 2 -326 1 -9 6 -16 11 -14 14 5 10 88 -5
97 -8 5 -5 10 10 15 11 3 21 10 21 15 0 5 -7 6 -17 3 -10 -4 -14 -2 -10 4 4 6
1 13 -5 16 -8 3 -3 9 12 15 14 6 18 11 10 11 -13 1 -16 13 -14 64 1 34 4 74 7
89 2 15 0 25 -4 22 -5 -3 -9 -1 -9 5 0 5 4 12 10 16 5 3 7 12 3 20 -12 32 -21
12 -22 -52z"/>
<path d="M6150 2290 c-31 -7 -29 -7 20 -8 30 -1 73 3 95 7 38 8 37 9 -20 9
-33 -1 -76 -4 -95 -8z"/>
<path d="M788 2283 c7 -3 16 -2 19 1 4 3 -2 6 -13 5 -11 0 -14 -3 -6 -6z"/>
<path d="M6389 2266 c-2 -2 -50 -6 -106 -8 -57 -1 -103 -5 -103 -8 0 -3 -25
-5 -54 -5 -57 0 -96 -19 -88 -43 2 -7 9 -9 15 -5 7 4 8 0 4 -11 -8 -19 26
-186 43 -214 8 -13 9 -8 5 23 -5 40 -5 40 5 7 6 -18 15 -30 20 -27 7 4 7 13 0
24 -5 10 -7 20 -5 23 3 2 0 33 -6 69 -6 35 -11 75 -11 88 0 14 -3 18 -8 11 -4
-6 -4 -29 0 -50 4 -22 3 -37 -1 -34 -5 3 -12 23 -15 45 -4 22 -11 42 -15 45
-21 13 -5 21 41 23 28 0 49 -3 46 -7 -4 -8 6 -118 19 -208 5 -38 22 -84 31
-84 4 0 4 23 2 50 -6 60 -4 59 22 -11 16 -42 19 -46 15 -19 -3 19 -10 69 -15
110 -5 41 -12 90 -16 108 -6 31 -5 32 24 32 30 0 30 -1 37 -66 4 -36 13 -71
20 -77 7 -7 15 -34 19 -61 10 -67 16 -81 27 -64 7 10 9 10 9 1 0 -7 7 -13 15
-13 10 0 15 10 15 30 0 17 5 30 11 30 5 0 7 -5 4 -10 -4 -6 9 -9 34 -7 23 2
42 -1 44 -7 3 -7 12 -7 27 2 21 13 22 12 16 -5 -6 -15 -5 -16 6 -5 16 16 15
147 -2 227 -11 51 -14 56 -33 51 -46 -11 -288 -9 -299 2 -9 9 7 11 63 8 41 -2
121 0 179 5 58 5 139 12 180 15 139 11 110 23 -56 24 -88 0 -163 -2 -165 -4z
m-322 -108 c-3 -8 -6 -5 -6 6 -1 11 2 17 5 13 3 -3 4 -12 1 -19z m27 -93 c5
-22 4 -26 -4 -15 -5 8 -10 24 -10 34 0 26 6 18 14 -19z"/>
<path d="M788 2253 c7 -3 16 -2 19 1 4 3 -2 6 -13 5 -11 0 -14 -3 -6 -6z"/>
<path d="M5951 2241 c-7 -5 -22 -6 -32 -4 -14 4 -19 0 -19 -13 0 -16 2 -17 10
-4 7 11 10 6 10 -20 1 -48 44 -297 53 -306 8 -9 8 13 -2 84 -4 28 -4 52 0 52
8 0 21 -43 24 -78 1 -12 11 -30 21 -38 10 -9 13 -12 5 -8 -9 4 -12 2 -9 -6 7
-21 28 -24 29 -3 0 16 1 16 9 -2 19 -44 6 34 -36 220 -14 59 -40 135 -47 135
-1 0 -8 -4 -16 -9z"/>
<path d="M6000 2242 c0 -4 11 -9 25 -10 14 -1 25 3 25 8 0 6 -11 10 -25 10
-14 0 -25 -4 -25 -8z"/>
<path d="M840 2219 c0 -5 5 -7 10 -4 6 3 10 8 10 11 0 2 -4 4 -10 4 -5 0 -10
-5 -10 -11z"/>
<path d="M2564 2176 c3 -32 8 -61 11 -64 10 -10 5 93 -6 108 -7 11 -9 -1 -5
-44z"/>
<path d="M790 2189 c0 -5 5 -7 10 -4 6 3 10 8 10 11 0 2 -4 4 -10 4 -5 0 -10
-5 -10 -11z"/>
<path d="M2227 2168 c-14 -53 -19 -138 -10 -138 6 0 13 35 16 77 6 80 4 101
-6 61z"/>
<path d="M2277 2148 c-16 -38 -25 -74 -32 -128 -4 -29 -1 -36 14 -37 10 -1 31
-13 46 -27 68 -64 225 1 225 93 0 22 -5 31 -16 31 -11 0 -15 -6 -11 -19 2 -11
-7 -31 -23 -50 l-28 -31 -20 32 c-12 18 -26 46 -32 62 -9 26 -13 28 -48 22
-67 -11 -75 -11 -79 2 -3 7 1 10 11 6 9 -3 16 -1 16 6 0 6 -4 8 -10 5 -13 -8
-13 11 1 37 6 11 8 22 5 25 -2 3 -11 -10 -19 -29z m146 -187 c16 -16 -74 -14
-97 2 -14 11 -9 12 35 11 28 -1 56 -7 62 -13z"/>
<path d="M791 2096 c0 -36 3 -66 7 -66 8 0 9 116 0 125 -3 3 -6 -23 -7 -59z"/>
<path d="M1631 2084 c0 -43 4 -101 9 -129 5 -32 6 -4 3 75 -6 141 -13 174 -12
54z"/>
<path d="M2420 2060 c0 -5 7 -10 16 -10 8 0 12 5 9 10 -3 6 -10 10 -16 10 -5
0 -9 -4 -9 -10z"/>
<path d="M1750 2012 c0 -23 4 -42 9 -42 6 0 7 17 4 38 -8 51 -13 53 -13 4z"/>
<path d="M2790 1981 c0 -16 6 -21 25 -21 16 0 25 6 25 15 0 8 -4 15 -9 15 -5
0 -16 3 -25 6 -12 4 -16 0 -16 -15z"/>
<path d="M2211 1974 c0 -11 3 -14 6 -6 3 7 2 16 -1 19 -3 4 -6 -2 -5 -13z"/>
<path d="M2958 1983 c-27 -2 -48 -7 -48 -11 0 -4 59 -6 130 -4 79 2 128 7 125
13 -6 9 -107 10 -207 2z"/>
<path d="M2538 1973 c-43 -7 -33 -18 14 -17 23 0 44 6 46 12 4 12 -8 13 -60 5z"/>
<path d="M2252 1945 c0 -16 2 -22 5 -12 2 9 2 23 0 30 -3 6 -5 -1 -5 -18z"/>
<path d="M3043 1953 c26 -2 67 -2 90 0 23 2 2 3 -48 3 -49 0 -68 -1 -42 -3z"/>
<path d="M2619 1931 c-1 -3 -1 -9 0 -13 2 -18 -30 -217 -40 -245 -6 -18 -9
-38 -7 -45 3 -7 13 11 22 40 10 28 21 52 25 52 8 0 2 -32 -24 -137 -9 -33 -10
-55 -4 -59 6 -3 6 -10 1 -17 -14 -19 -21 -56 -11 -63 5 -3 9 0 9 7 0 7 3 10 6
7 3 -4 -3 -24 -13 -45 -19 -39 -20 -63 -2 -63 6 0 8 4 5 9 -4 5 -2 11 2 13 24
9 121 335 107 358 -3 4 1 11 7 13 10 4 10 6 1 6 -15 1 -17 47 -3 56 6 3 10 21
11 38 0 18 3 39 7 47 9 19 62 24 62 6 0 -19 -28 -214 -41 -281 -8 -43 -8 -60
0 -63 14 -5 14 -23 0 -20 -6 2 -13 -5 -14 -15 -2 -12 1 -17 10 -13 8 3 17 0
21 -5 8 -14 -16 -100 -26 -94 -5 3 -6 -3 -3 -14 3 -10 -2 -32 -11 -49 -20 -38
-20 -42 -1 -42 43 0 119 272 135 487 10 125 16 146 37 118 13 -18 13 -18 13 0
0 18 1 18 15 -1 14 -19 14 -19 15 1 1 19 1 19 14 2 12 -16 14 -16 20 -1 3 8 6
17 6 18 0 3 -14 3 -202 9 -82 2 -149 1 -149 -2z m58 -233 c-3 -8 -6 -5 -6 6
-1 11 2 17 5 13 3 -3 4 -12 1 -19z m90 -180 c-3 -7 -5 -2 -5 12 0 14 2 19 5
13 2 -7 2 -19 0 -25z"/>
<path d="M2976 1908 c-3 -18 -8 -80 -11 -138 -9 -157 -45 -350 -86 -460 -67
-179 -174 -328 -310 -429 -45 -34 -79 -61 -75 -61 14 0 147 82 184 113 24 20
18 10 -18 -27 -36 -38 -45 -52 -27 -41 15 10 58 50 94 89 36 39 58 58 49 41
l-17 -30 23 25 c13 14 34 39 48 55 14 17 51 52 83 79 69 58 69 75 0 20 l-47
-39 22 35 c62 95 130 248 145 325 6 28 5 27 -12 -7 -22 -48 -36 -62 -21 -23
18 47 28 115 19 121 -5 3 -9 -2 -9 -10 0 -51 -140 -399 -155 -384 -3 3 8 34
24 69 60 129 112 361 127 572 6 91 6 97 -12 98 -18 0 -18 1 1 9 11 5 14 9 7 9
-7 1 -10 6 -7 11 3 6 2 10 -4 10 -6 0 -12 -15 -15 -32z m-135 -785 c-12 -20
-14 -14 -5 12 4 9 9 14 11 11 3 -2 0 -13 -6 -23z m-11 -53 c-22 -31 -49 -54
-35 -29 10 17 47 59 52 59 3 0 -5 -13 -17 -30z"/>
<path d="M3018 1934 c-9 -9 3 -42 17 -48 7 -2 21 4 30 14 17 19 16 20 -9 30
-32 12 -31 12 -38 4z"/>
<path d="M880 1921 c0 -5 5 -13 10 -16 6 -3 10 -2 10 4 0 5 -4 13 -10 16 -5 3
-10 2 -10 -4z"/>
<path d="M1476 1921 c-4 -7 -5 -15 -2 -18 9 -9 19 4 14 18 -4 11 -6 11 -12 0z"/>
<path d="M2465 1920 c-3 -5 -1 -10 4 -10 6 0 11 5 11 10 0 6 -2 10 -4 10 -3 0
-8 -4 -11 -10z"/>
<path d="M2493 1918 c-4 -8 25 -12 58 -9 19 2 30 -45 18 -77 -4 -10 -10 -32
-13 -48 -11 -66 -44 -164 -69 -206 -14 -24 -45 -57 -69 -73 -24 -16 -45 -31
-47 -32 -2 -2 -2 -6 2 -9 12 -12 74 17 105 49 60 62 101 192 106 339 1 26 5
51 9 54 17 18 3 25 -44 22 -28 -2 -53 -6 -56 -10z"/>
<path d="M2732 1870 c0 -14 2 -19 5 -12 2 6 2 18 0 25 -3 6 -5 1 -5 -13z"/>
<path d="M1340 1870 c0 -5 5 -10 10 -10 6 0 10 5 10 10 0 6 -4 10 -10 10 -5 0
-10 -4 -10 -10z"/>
<path d="M2122 1860 c0 -14 2 -19 5 -12 2 6 2 18 0 25 -3 6 -5 1 -5 -13z"/>
<path d="M1488 1830 c2 -22 8 -42 12 -45 10 -6 1 66 -9 77 -4 4 -5 -10 -3 -32z"/>
<path d="M910 1841 c0 -11 4 -22 9 -25 4 -3 6 6 3 19 -5 30 -12 33 -12 6z"/>
<path d="M3026 1848 c3 -4 11 -5 19 -1 21 7 19 12 -4 10 -11 0 -18 -5 -15 -9z"/>
<path d="M1344 1823 c4 -16 7 -36 7 -47 0 -18 21 -46 34 -46 4 0 5 6 2 14 -3
8 -1 16 4 18 5 2 1 13 -11 26 -11 12 -17 22 -13 22 5 0 9 9 10 20 1 14 -4 20
-19 20 -17 0 -19 -4 -14 -27z m36 -53 c0 -5 -4 -10 -10 -10 -5 0 -10 5 -10 10
0 6 5 10 10 10 6 0 10 -4 10 -10z"/>
<path d="M6240 1821 c0 -6 4 -13 10 -16 6 -3 7 1 4 9 -7 18 -14 21 -14 7z"/>
<path d="M3022 1801 c2 -8 13 -17 24 -21 15 -6 20 -4 20 11 0 11 -6 19 -13 19
-7 0 -13 -6 -13 -12 0 -9 -4 -8 -11 2 -8 12 -10 12 -7 1z"/>
<path d="M2732 1745 c-7 -33 -19 -85 -28 -115 -23 -81 -105 -284 -115 -288
-19 -7 -8 -22 16 -22 14 0 30 9 39 23 19 29 70 212 91 326 19 102 16 171 -3
76z"/>
<path d="M800 1781 c0 -6 4 -13 10 -16 6 -3 7 1 4 9 -7 18 -14 21 -14 7z"/>
<path d="M931 1774 c0 -11 3 -14 6 -6 3 7 2 16 -1 19 -3 4 -6 -2 -5 -13z"/>
<path d="M6045 1750 l-30 -8 27 -1 c15 0 30 4 33 9 3 6 5 9 3 9 -2 -1 -16 -5
-33 -9z"/>
<path d="M810 1749 c0 -4 7 -22 15 -40 8 -19 14 -27 14 -19 0 14 -28 72 -29
59z"/>
<path d="M1509 1738 c-7 -22 -3 -45 7 -41 6 2 10 13 7 24 -5 16 -11 25 -14 17z"/>
<path d="M1350 1720 c0 -5 5 -10 11 -10 5 0 7 5 4 10 -3 6 -8 10 -11 10 -2 0
-4 -4 -4 -10z"/>
<path d="M1381 1707 c-1 -11 -5 -15 -13 -11 -8 5 -9 2 -5 -10 4 -10 7 -24 7
-31 0 -7 10 -12 24 -11 20 1 22 4 13 15 -7 8 -11 16 -10 17 1 2 -2 14 -7 26
-7 19 -9 19 -9 5z"/>
<path d="M1517 1677 c-3 -8 1 -27 8 -41 8 -15 17 -42 21 -62 3 -19 10 -37 15
-40 15 -9 10 29 -10 73 -11 23 -17 44 -14 46 3 3 1 13 -5 22 -8 15 -10 15 -15
2z"/>
<path d="M6575 1650 l-40 -7 52 -2 c28 0 55 4 58 9 7 11 -9 11 -70 0z"/>
<path d="M6125 1620 c-3 -5 -1 -10 4 -10 6 0 11 5 11 10 0 6 -2 10 -4 10 -3 0
-8 -4 -11 -10z"/>
<path d="M1565 1510 c3 -5 8 -10 11 -10 2 0 4 5 4 10 0 6 -5 10 -11 10 -5 0
-7 -4 -4 -10z"/>
<path d="M6050 1513 c0 -4 5 -15 10 -23 8 -13 10 -13 10 2 0 9 -4 20 -10 23
-5 3 -10 3 -10 -2z"/>
<path d="M2733 1488 c-6 -8 -6 -23 -2 -38 9 -25 9 -25 5 2 -2 15 2 29 8 31 6
2 8 7 5 11 -3 4 -11 1 -16 -6z"/>
<path d="M1590 1450 c0 -5 5 -10 11 -10 5 0 7 5 4 10 -3 6 -8 10 -11 10 -2 0
-4 -4 -4 -10z"/>
<path d="M2706 1449 c-2 -8 -11 -34 -20 -59 -21 -59 -21 -77 -2 -60 16 12 42
118 32 127 -3 3 -7 0 -10 -8z"/>
<path d="M2567 1433 c-4 -3 -7 -13 -7 -22 1 -13 3 -13 11 2 11 19 8 33 -4 20z"/>
<path d="M1611 1414 c0 -11 3 -14 6 -6 3 7 2 16 -1 19 -3 4 -6 -2 -5 -13z"/>
<path d="M1653 1316 c7 -14 15 -26 19 -26 11 0 -7 43 -20 48 -7 2 -7 -5 1 -22z"/>
<path d="M2489 1276 c-19 -18 -44 -38 -55 -44 -10 -6 -16 -14 -11 -18 4 -4 16
1 27 11 11 10 20 14 20 8 0 -5 -11 -16 -25 -23 -14 -7 -25 -17 -25 -21 0 -4
-22 -21 -50 -39 -59 -38 -64 -46 -15 -26 86 36 207 148 190 176 -9 15 -17 12
-56 -24z"/>
<path d="M2573 1293 c-7 -3 -13 -11 -13 -20 0 -27 -122 -144 -184 -174 -94
-47 -175 -38 -269 27 -49 35 -63 41 -51 23 11 -18 107 -75 149 -89 89 -29 211
7 310 93 41 35 91 100 97 126 3 14 -18 21 -39 14z"/>
<path d="M3190 1279 c0 -5 5 -7 10 -4 6 3 10 8 10 11 0 2 -4 4 -10 4 -5 0 -10
-5 -10 -11z"/>
<path d="M1676 1271 c-4 -6 -2 -11 3 -11 6 0 11 -7 11 -15 0 -8 4 -15 8 -15 5
0 14 -12 21 -26 6 -15 14 -24 17 -21 3 3 -8 26 -24 52 -18 28 -32 43 -36 36z"/>
<path d="M2389 1193 c-13 -15 -12 -15 9 -4 23 12 28 21 13 21 -5 0 -15 -7 -22
-17z"/>
<path d="M1752 1150 c7 -10 14 -18 15 -16 6 6 -9 36 -18 36 -5 0 -4 -9 3 -20z"/>
<path d="M3145 1000 c-10 -11 -15 -20 -11 -20 11 0 39 30 34 36 -3 2 -13 -5
-23 -16z"/>
<path d="M2764 944 c-62 -70 -63 -71 -39 -54 20 15 60 59 83 92 25 34 5 18
-44 -38z"/>
<path d="M3097 950 c-18 -25 -115 -130 -121 -130 -2 0 -39 -34 -82 -75 -43
-41 -72 -75 -66 -75 21 0 312 274 312 294 0 14 -30 4 -43 -14z"/>
<path d="M1610 690 c42 -39 80 -65 80 -57 0 2 -28 25 -62 51 -62 46 -62 46
-18 6z"/>
<path d="M2270 610 c0 -5 5 -10 11 -10 5 0 7 5 4 10 -3 6 -8 10 -11 10 -2 0
-4 -4 -4 -10z"/>
</g>
</svg>
