<?xml version="1.0" standalone="no"?>
<!DOCTYPE svg PUBLIC "-//W3C//DTD SVG 20010904//EN"
 "http://www.w3.org/TR/2001/REC-SVG-20010904/DTD/svg10.dtd">
<svg version="1.0" xmlns="http://www.w3.org/2000/svg"
 width="100.000000pt" height="100.000000pt" viewBox="0 0 100.000000 100.000000"
 preserveAspectRatio="xMidYMid meet">

<g transform="translate(0.000000,100.000000) scale(0.100000,-0.100000)"
fill="#000000" stroke="none">
<path d="M276 884 c-98 -30 -176 -143 -176 -254 0 -122 100 -237 223 -258 39
-7 42 -10 49 -49 23 -135 150 -234 285 -220 172 18 282 188 227 349 -30 89
-114 160 -207 176 -39 7 -42 10 -49 49 -21 125 -138 224 -262 222 -23 0 -63
-7 -90 -15z m185 -77 c118 -63 140 -216 44 -312 -96 -96 -249 -74 -312 44 -25
48 -30 120 -12 168 14 37 66 92 104 109 48 21 126 17 176 -9z m271 -268 c71
-36 111 -131 94 -224 -9 -47 -76 -120 -123 -136 -19 -6 -59 -9 -89 -7 -92 8
-158 69 -179 165 -6 29 -4 34 22 45 15 7 40 20 55 31 l28 18 16 -34 c16 -34
16 -37 -6 -71 -17 -29 -20 -39 -10 -51 10 -13 18 -11 54 10 l41 24 39 -24 c30
-18 43 -21 53 -13 11 9 9 19 -11 53 l-25 41 25 41 c20 35 22 42 9 53 -12 10
-22 8 -51 -10 -34 -22 -37 -22 -71 -6 l-34 16 18 28 c11 15 24 40 31 55 11 26
16 28 45 22 17 -4 49 -16 69 -26z"/>
<path d="M338 723 c-13 -45 -16 -48 -61 -61 -61 -17 -60 -40 3 -58 42 -12 47
-17 58 -59 15 -57 41 -58 57 -3 12 45 18 51 63 63 55 16 54 42 -3 57 -42 11
-47 16 -59 58 -18 63 -41 64 -58 3z"/>
</g>
</svg>
