<?xml version="1.0" standalone="no"?>
<!DOCTYPE svg PUBLIC "-//W3C//DTD SVG 20010904//EN"
 "http://www.w3.org/TR/2001/REC-SVG-20010904/DTD/svg10.dtd">
<svg version="1.0" xmlns="http://www.w3.org/2000/svg"
 width="50.000000pt" height="50.000000pt" viewBox="0 0 400.000000 300.000000"
 preserveAspectRatio="xMidYMid meet">

<g transform="translate(0.000000,300.000000) scale(0.100000,-0.100000)"
fill="#000000" stroke="none">
<path d="M2234 2095 c-12 -29 7 -35 115 -35 l108 0 56 -209 c32 -116 57 -216
57 -223 0 -8 -21 -24 -46 -36 -127 -62 -215 -195 -232 -353 -7 -60 -9 -64 -32
-64 l-25 0 -5 145 c-5 157 -14 184 -68 225 -25 18 -45 20 -233 23 -186 3 -207
1 -227 -15 -32 -26 -38 -73 -14 -103 20 -24 24 -25 199 -30 170 -5 178 -6 178
-25 0 -19 -8 -20 -172 -25 -187 -5 -205 -11 -219 -65 -8 -31 17 -72 52 -85 14
-6 97 -10 185 -10 l160 0 -3 -22 -3 -23 -284 -3 -284 -2 -117 85 c-121 87
-150 100 -150 66 0 -13 40 -48 123 -109 l122 -90 296 -1 c286 -2 296 -1 322
19 34 27 37 80 7 110 -18 18 -33 20 -183 20 -124 0 -168 3 -182 14 -16 12 -17
16 -6 30 11 13 39 16 176 16 149 0 164 2 189 21 30 24 36 78 10 103 -8 9 -16
17 -17 18 -1 1 -83 4 -182 7 -171 6 -180 7 -180 26 0 19 8 20 192 23 l192 2
33 -29 33 -29 5 -150 c6 -173 14 -192 82 -192 56 0 74 23 81 106 8 95 39 173
94 234 47 52 124 105 145 98 6 -2 32 -80 57 -174 41 -151 48 -169 69 -172 15
-2 22 2 22 12 0 9 -20 91 -45 182 -25 92 -43 170 -39 173 12 12 141 4 189 -13
65 -22 138 -76 177 -132 36 -49 68 -59 68 -20 0 39 -100 140 -173 176 -75 36
-164 54 -232 45 l-50 -6 -65 241 -64 240 -128 0 c-103 0 -130 -3 -134 -15z"/>
<path d="M2652 1944 c-29 -14 -52 -29 -52 -33 0 -3 9 -38 19 -76 11 -39 24
-90 31 -114 l11 -43 60 4 c78 6 112 36 128 115 17 88 14 121 -14 148 -34 35
-112 35 -183 -1z m153 -35 c4 -5 4 -38 0 -71 -8 -69 -37 -108 -79 -108 -22 0
-27 7 -40 51 -30 98 -30 114 -4 126 30 15 115 16 123 2z"/>
<path d="M2214 1938 c-68 -10 -213 -62 -297 -105 -100 -53 -124 -113 -68 -175
l28 -32 119 -1 c106 -2 128 -6 202 -34 124 -46 205 -39 260 23 56 64 50 170
-15 246 -58 67 -132 93 -229 78z m156 -77 c89 -64 103 -185 26 -232 -44 -27
-88 -24 -191 12 -78 28 -104 32 -197 33 -120 1 -146 13 -134 59 4 19 25 34 88
65 200 96 334 117 408 63z"/>
<path d="M1090 1763 c-38 -20 -82 -78 -78 -102 6 -30 35 -23 56 14 12 19 33
40 47 45 28 11 562 14 589 4 19 -7 21 -54 2 -54 -7 0 -34 -11 -60 -25 -46 -24
-52 -25 -255 -25 -230 0 -273 -7 -354 -61 -54 -35 -119 -115 -115 -138 6 -31
35 -22 66 19 17 23 49 55 71 72 70 51 112 58 341 58 l207 0 75 35 c42 19 78
42 82 51 12 30 6 72 -13 95 l-19 24 -304 3 c-273 2 -306 1 -338 -15z"/>
<path d="M1261 1520 c-67 -14 -125 -47 -171 -96 -62 -67 -84 -124 -84 -215 -1
-68 3 -84 34 -145 80 -157 265 -218 424 -140 57 28 130 99 123 119 -8 25 -37
17 -74 -20 -60 -60 -105 -78 -193 -78 -85 1 -133 20 -189 77 -51 50 -75 112
-75 188 0 149 118 265 269 263 72 -1 122 -21 176 -70 46 -41 67 -78 84 -143 8
-34 16 -45 31 -45 16 0 19 7 17 41 -2 53 -42 132 -90 180 -71 69 -185 103
-282 84z"/>
<path d="M2733 1523 c-7 -3 -13 -13 -13 -22 0 -13 16 -22 59 -34 123 -34 202
-134 202 -254 1 -144 -101 -258 -241 -270 -251 -23 -388 279 -208 459 46 45
49 51 35 65 -15 15 -19 14 -53 -12 -43 -33 -90 -104 -105 -160 -18 -63 -6
-172 24 -230 57 -114 175 -181 302 -173 89 6 156 39 218 108 160 178 67 465
-168 518 -22 5 -46 7 -52 5z"/>
</g>
</svg>
