<?xml version="1.0" standalone="no"?>
<!DOCTYPE svg PUBLIC "-//W3C//DTD SVG 20010904//EN"
 "http://www.w3.org/TR/2001/REC-SVG-20010904/DTD/svg10.dtd">
<svg version="1.0" xmlns="http://www.w3.org/2000/svg"
 width="90.000000pt" height="90.000000pt" viewBox="0 0 500.000000 500.000000"
 preserveAspectRatio="xMidYMid meet">

<g transform="translate(0.000000,500.000000) scale(0.100000,-0.100000)"
fill="#000000" stroke="none">
<path d="M2631 3974 c-54 -28 -111 -97 -111 -136 0 -10 -7 -18 -15 -18 -8 0
-24 -9 -36 -21 -16 -16 -28 -19 -58 -14 -28 5 -43 1 -61 -13 -14 -11 -42 -25
-63 -31 -43 -15 -77 -46 -77 -73 0 -10 -5 -18 -10 -18 -6 0 -16 -12 -23 -27
-7 -16 -24 -46 -39 -69 -14 -22 -32 -61 -39 -85 -7 -24 -22 -55 -35 -69 -20
-23 -34 -69 -35 -113 0 -10 -7 -21 -15 -24 -8 -3 -14 -14 -14 -25 0 -11 -6
-32 -14 -46 -7 -15 -23 -60 -35 -99 -14 -44 -28 -73 -36 -73 -7 0 -27 -11 -43
-25 -17 -14 -37 -25 -45 -25 -9 0 -28 -11 -44 -24 -25 -21 -35 -23 -104 -19
-123 8 -231 -25 -333 -103 -104 -79 -237 -280 -222 -337 4 -16 19 -33 39 -43
17 -9 34 -18 36 -20 2 -2 -6 -15 -18 -30 -31 -40 -42 -90 -30 -140 16 -61 47
-87 111 -90 83 -4 104 -16 111 -63 12 -96 105 -229 189 -272 86 -44 196 -30
282 36 l46 35 113 0 c78 0 119 4 132 13 16 11 53 12 170 7 202 -9 313 0 335
27 20 26 86 38 125 23 37 -14 78 -5 117 28 17 14 40 26 51 27 11 0 25 8 31 18
17 26 -5 52 -43 52 -17 0 -31 5 -31 11 0 7 16 11 40 10 38 -1 40 -2 60 -56 27
-71 66 -131 130 -195 63 -65 129 -101 207 -114 307 -49 591 250 545 574 -14
98 -62 201 -128 274 l-46 51 26 21 c33 26 33 34 -1 65 -40 37 -143 66 -253 69
l-95 3 -26 58 c-15 33 -36 67 -48 78 -16 15 -18 23 -10 38 6 11 8 26 5 34 -3
9 -1 12 4 9 13 -8 13 65 1 98 -5 14 -26 41 -46 60 l-37 36 33 40 34 40 23 -22
c19 -18 35 -22 85 -21 34 0 88 8 120 17 45 14 57 22 57 38 0 12 -8 23 -19 26
-11 3 -21 13 -24 23 -2 10 -15 23 -28 30 -23 11 -23 10 -5 -4 11 -9 14 -16 7
-16 -7 0 -10 -4 -7 -9 4 -5 3 -17 -1 -28 -6 -14 -9 -11 -13 16 -7 47 -27 52
-22 6 3 -21 0 -35 -7 -35 -6 0 -11 11 -11 24 0 14 -4 28 -10 31 -6 4 -10 -7
-10 -27 l-1 -33 -14 33 c-8 18 -21 32 -32 32 -35 0 3 20 46 25 58 5 61 12 9
20 -24 4 -55 16 -70 26 -14 11 -34 19 -45 19 -10 0 -31 9 -48 20 -16 11 -40
20 -51 20 -12 0 -27 7 -34 15 -7 8 -19 15 -26 15 -8 0 -14 3 -14 8 0 4 -15 13
-32 21 -18 8 -42 22 -53 31 -11 9 -44 30 -73 46 -37 21 -50 33 -46 44 3 8 8
42 11 75 13 170 -163 287 -316 209z m231 -144 l17 -34 11 25 10 24 -3 -25 c-2
-24 -5 -25 -74 -28 -46 -2 -73 1 -73 8 0 5 9 10 20 10 24 0 39 27 34 59 -4 22
-3 23 18 9 13 -8 31 -30 40 -48z m67 -20 c0 -10 -3 -8 -9 5 -12 27 -12 43 0
25 5 -8 9 -22 9 -30z m-166 -37 c-7 -2 -19 -2 -25 0 -7 3 -2 5 12 5 14 0 19
-2 13 -5z m160 0 c-7 -2 -19 -2 -25 0 -7 3 -2 5 12 5 14 0 19 -2 13 -5z m-70
-10 c-7 -2 -19 -2 -25 0 -7 3 -2 5 12 5 14 0 19 -2 13 -5z m-67 -34 c12 -21
-14 -32 -60 -25 -72 11 -56 29 31 35 12 0 25 -4 29 -10z m114 -14 c0 -17 -2
-18 -24 -9 -23 9 -20 24 4 24 11 0 20 -7 20 -15z m-603 -11 c-3 -3 -12 -4 -19
-1 -8 3 -5 6 6 6 11 1 17 -2 13 -5z m538 -44 c10 -32 -3 -42 -31 -24 -27 18
-31 9 -9 -23 10 -15 11 -20 2 -19 -22 2 -22 -16 0 -31 20 -13 23 -13 33 8 8
14 9 24 2 28 -6 4 -3 15 8 29 26 32 31 14 9 -36 -26 -59 -55 -71 -108 -41 -33
18 -41 28 -41 51 0 16 4 27 9 24 5 -4 11 -3 13 1 3 8 86 51 100 52 4 1 9 -8
13 -19z m-249 -62 l29 -33 -32 29 c-31 28 -38 36 -30 36 2 0 16 -15 33 -32z
m-388 -5 c-9 -10 -25 -34 -37 -53 -11 -19 -21 -30 -21 -24 0 13 57 94 67 94 3
0 -1 -8 -9 -17z m680 -28 c-6 -14 -13 -23 -15 -21 -5 5 15 46 22 46 3 0 -1
-11 -7 -25z m-529 -24 c7 -5 11 -13 7 -19 -9 -15 5 -44 18 -39 7 3 13 -4 13
-15 2 -27 11 -34 25 -20 7 7 17 12 22 12 6 0 0 -7 -13 -16 -32 -23 -66 -6 -75
36 -5 25 -10 31 -25 27 -10 -2 -25 -1 -32 4 -11 8 -10 12 5 24 23 17 35 18 55
6z m352 -8 c13 -16 12 -17 -3 -4 -17 13 -22 21 -14 21 2 0 10 -8 17 -17z m434
-12 c3 -5 1 -12 -5 -16 -5 -3 -10 1 -10 9 0 18 6 21 15 7z m-368 -17 c-3 -3
-12 -4 -19 -1 -8 3 -5 6 6 6 11 1 17 -2 13 -5z m50 0 c-3 -3 -12 -4 -19 -1 -8
3 -5 6 6 6 11 1 17 -2 13 -5z m427 -45 c-3 -5 -17 -8 -32 -8 -17 1 -21 3 -9 6
9 2 17 8 17 13 0 5 7 7 15 4 8 -4 12 -10 9 -15z m-359 2 c3 -5 22 -15 43 -22
20 -6 45 -18 54 -26 10 -9 24 -13 32 -10 8 3 19 0 25 -7 9 -11 79 -38 103 -40
3 -1 10 -4 14 -8 4 -5 22 -8 41 -8 41 0 41 -9 4 -49 l-29 -31 -48 25 c-59 31
-105 32 -170 1 -57 -26 -65 -25 -125 29 -20 18 -42 34 -50 37 -10 3 -4 17 21
49 50 64 72 80 85 60z m-155 -15 c0 -12 -33 -35 -41 -30 -6 3 -2 12 8 20 18
13 33 18 33 10z m-83 -62 c26 -35 28 -74 4 -82 -8 -3 -11 0 -7 6 6 10 -18 72
-28 72 -2 0 -2 -17 1 -39 3 -23 1 -41 -6 -45 -7 -5 -11 2 -11 16 0 14 -7 33
-15 44 -14 18 -15 16 -9 -18 8 -46 -8 -51 -31 -10 l-16 27 4 -32 c4 -41 -5
-42 -20 -3 -8 20 -18 30 -32 30 -32 0 -25 20 9 27 17 3 30 9 30 14 0 5 7 9 15
9 8 0 15 4 15 9 0 5 16 9 36 8 28 -1 41 -8 61 -33z m870 -51 c-3 -10 -5 -4 -5
12 0 17 2 24 5 18 2 -7 2 -21 0 -30z m33 -13 c0 -5 -2 -10 -4 -10 -3 0 -8 5
-11 10 -3 6 -1 10 4 10 6 0 11 -4 11 -10z m-749 -65 c24 -19 49 -35 56 -35 20
0 25 -19 9 -36 -12 -12 -13 -19 -4 -34 9 -14 9 -22 -1 -33 -9 -12 -19 -13 -48
-5 -39 10 -197 6 -224 -6 -11 -5 -19 -1 -23 10 -8 21 60 123 89 134 12 4 27
15 34 24 22 26 64 19 112 -19z m305 20 c17 -13 16 -14 -14 -4 -18 6 -52 9 -75
6 -27 -4 -36 -2 -26 4 22 14 93 11 115 -6z m-841 -15 c-3 -5 -10 -10 -16 -10
-5 0 -9 5 -9 10 0 6 7 10 16 10 8 0 12 -4 9 -10z m118 -77 c-7 -2 -21 -2 -30
0 -10 3 -4 5 12 5 17 0 24 -2 18 -5z m876 -59 c27 -34 27 -88 1 -114 -28 -28
-44 -25 -24 5 9 13 14 30 11 37 -3 8 -9 2 -15 -14 -21 -52 -86 -57 -111 -9
-16 28 -13 86 3 100 12 10 14 8 10 -11 -2 -13 -2 -17 2 -10 3 6 9 10 14 7 4
-2 15 4 25 15 25 28 60 25 84 -6z m-1116 -11 c4 -3 -3 -11 -15 -17 -31 -16
-34 -34 -4 -29 22 5 18 -2 -27 -50 -58 -61 -77 -60 -58 4 19 63 80 117 104 92z
m833 -55 c16 -34 19 -50 11 -75 l-10 -32 -17 22 c-9 12 -23 39 -29 60 -24 73
12 93 45 25z m-841 -38 c-4 -7 2 -9 18 -5 30 8 103 -22 130 -52 24 -28 31 -80
18 -130 -13 -46 -69 -113 -95 -113 -14 0 -14 4 4 28 12 16 24 47 27 69 6 46
-11 109 -30 111 -6 0 -21 3 -32 6 -11 2 -24 5 -28 5 -4 1 -3 10 3 20 5 11 10
22 10 25 0 11 -36 6 -49 -6 -10 -11 -11 -10 -7 5 3 9 8 24 11 32 2 8 9 15 15
15 6 0 8 -5 5 -10z m505 -20 c-8 -5 -31 -10 -51 -10 -28 0 -57 -15 -135 -70
-54 -39 -100 -75 -102 -80 -2 -5 23 -11 55 -13 l58 -3 -67 -2 c-87 -3 -89 11
-7 74 108 83 168 114 218 114 34 0 42 -3 31 -10z m88 -16 c4 -25 -146 -154
-179 -154 -17 0 -13 5 19 23 48 25 152 113 152 128 0 5 -10 14 -22 19 -23 10
-23 10 2 7 17 -1 26 -9 28 -23z m-829 -13 c-15 -21 -20 -39 -17 -62 5 -29 4
-30 -9 -14 -18 26 -16 48 8 79 28 36 45 33 18 -3z m1412 -102 c16 -34 28 -64
25 -67 -3 -3 -7 -3 -9 -1 -1 2 -11 18 -23 34 -33 48 -45 75 -39 85 10 16 13
13 46 -51z m-176 -101 c42 -84 100 -200 129 -258 66 -128 79 -161 62 -154 -7
3 -30 41 -51 84 -37 75 -54 96 -56 68 0 -12 -109 207 -109 220 0 3 7 -3 15
-14 28 -37 15 0 -35 98 -54 107 -55 108 -40 108 5 0 44 -69 85 -152z m-919 77
c-4 -18 -13 -38 -20 -44 -12 -10 -12 -6 0 26 7 21 14 49 15 63 1 19 2 20 6 7
3 -11 2 -34 -1 -52z m-336 -54 c22 -12 65 -25 95 -28 56 -6 85 -22 43 -24 -46
-2 -84 3 -117 17 -18 8 -38 11 -45 7 -6 -3 -8 -3 -4 2 9 10 -11 37 -22 30 -9
-6 -30 49 -30 79 0 15 6 9 20 -20 13 -26 35 -49 60 -63z m-239 53 c37 -18 74
-65 110 -138 17 -33 37 -68 45 -77 17 -19 18 -29 2 -29 -7 0 -28 25 -46 55
-39 65 -85 102 -155 126 -29 10 -47 19 -42 20 6 0 -1 5 -15 9 -22 7 -20 8 15
9 24 0 63 -10 95 -25 l55 -25 -25 26 c-14 15 -45 38 -70 51 -45 25 -17 23 31
-2z m879 -14 c0 -5 -12 -10 -27 -9 l-28 1 25 8 c14 4 26 8 28 9 1 1 2 -3 2 -9z
m698 -35 l22 -45 -21 -11 c-24 -13 -21 -15 -48 38 -27 53 -26 63 2 63 17 0 28
-11 45 -45z m-1913 -62 c-31 -32 -72 -82 -92 -111 -46 -66 -57 -60 -13 7 28
44 142 161 156 161 3 0 -20 -26 -51 -57z m2241 46 c110 -20 85 -43 -41 -37
l-70 3 55 10 55 9 -55 12 c-70 15 -24 18 56 3z m-1311 -89 c-4 -6 -2 -16 3
-23 14 -16 5 -57 -19 -87 l-20 -25 16 33 c19 39 12 72 -16 72 -24 0 -25 16 -1
29 22 14 45 14 37 1z m-930 -50 c-20 -28 -50 -74 -67 -103 -16 -28 -26 -41
-23 -27 10 35 51 105 87 145 44 51 45 43 3 -15z m1755 -4 c-1 -14 -60 -83 -60
-70 0 6 7 35 16 64 15 50 17 53 30 35 8 -10 14 -24 14 -29z m-141 -13 c-7 -10
-15 -20 -16 -22 -2 -2 -3 5 -3 17 0 14 6 22 16 22 14 0 15 -3 3 -17z m107
-104 c-70 -78 -108 -164 -114 -257 -4 -72 -14 -104 -28 -90 -12 13 26 184 55
242 32 65 124 182 129 166 2 -6 -17 -33 -42 -61z m-1226 -3 c0 -8 -142 -97
-148 -92 -7 8 -9 6 73 54 74 43 75 44 75 38z m437 -62 c-2 -3 -14 -1 -27 4
-20 7 -21 10 -7 15 10 4 17 17 18 29 1 18 3 15 10 -11 6 -18 8 -35 6 -37z
m639 -13 c-7 -62 -46 -219 -72 -288 -13 -37 -18 -41 -30 -29 -20 20 -19 43 1
26 12 -10 16 -8 24 12 11 29 57 233 67 296 10 63 18 51 10 -17z m874 -60 c0
-32 -5 -25 -19 24 -9 36 -9 38 4 21 8 -11 15 -31 15 -45z m-2133 -1 c59 -10
153 -43 153 -54 0 -3 -19 3 -42 13 -24 10 -56 21 -73 25 -43 11 -19 -9 30 -24
95 -30 314 -161 335 -201 7 -12 8 -19 3 -16 -130 80 -170 102 -235 127 -43 17
-88 31 -100 31 -18 1 -17 3 7 8 28 6 26 8 -30 23 -111 31 -237 42 -342 29 -52
-6 -104 -16 -115 -22 -28 -15 -35 -3 -12 22 31 35 55 43 144 49 108 6 198 3
277 -10z m966 5 c-4 -5 -28 -36 -55 -67 -27 -32 -47 -61 -44 -66 6 -10 -28
-45 -36 -37 -2 3 -28 -16 -57 -40 -57 -49 -90 -70 -97 -62 -3 3 11 14 30 26
46 29 208 200 200 212 -9 15 25 48 46 46 10 -1 16 -6 13 -12z m817 -25 c35
-25 60 -77 60 -124 0 -20 4 -36 10 -36 13 0 24 46 23 94 0 25 3 33 8 25 7 -12
9 -11 9 1 1 13 2 13 9 0 25 -45 19 -147 -12 -177 -13 -13 -14 -11 -10 14 4 22
2 25 -6 13 -6 -8 -11 -23 -11 -32 0 -47 -99 -109 -170 -107 -22 0 -21 2 10 13
l34 13 -29 6 c-17 3 -38 12 -48 19 -16 12 -13 13 25 11 l43 -4 -31 15 c-34 15
-58 41 -28 29 10 -3 -1 12 -23 34 -31 31 -44 54 -52 92 -15 69 -4 95 20 50 10
-19 21 -51 24 -71 8 -46 23 -58 74 -63 77 -8 114 66 64 133 -22 30 -38 72 -28
72 4 0 19 -9 35 -20z m206 -109 c3 -47 1 -59 -5 -41 l-9 25 -1 -25 c-1 -14 -6
-32 -11 -40 -8 -11 -8 -7 -3 15 4 17 7 61 7 99 -2 90 17 62 22 -33z m-1286 53
c0 -2 -9 -4 -20 -4 -11 0 -20 4 -20 9 0 5 9 7 20 4 11 -3 20 -7 20 -9z m-9
-54 c10 -6 19 -16 19 -23 0 -8 -3 -7 -9 2 -5 8 -29 18 -53 21 -39 7 -40 8 -10
9 18 0 42 -4 53 -9z m360 -138 c-20 -65 -52 -122 -70 -122 -5 0 11 39 35 87
24 48 44 94 44 102 0 8 3 12 6 9 3 -4 -4 -37 -15 -76z m-1070 13 c39 -22 41
-25 19 -25 -27 0 -70 25 -70 41 0 13 3 12 51 -16z m335 -66 c32 -11 95 -29
139 -40 78 -18 79 -19 22 -13 -60 6 -162 35 -207 60 -36 19 -22 17 46 -7z
m-312 -38 c-3 -3 -15 6 -27 18 l-22 24 27 -19 c14 -10 24 -21 22 -23z m1712
-52 c21 -10 56 -19 79 -19 34 -1 37 -2 21 -11 -31 -19 -111 -5 -156 26 -71 49
-37 52 56 4z"/>
<path d="M980 1485 l0 -165 30 0 29 0 3 108 3 107 40 -52 c54 -73 79 -72 131
3 l39 57 3 -112 3 -111 34 0 35 0 0 165 0 165 -33 0 c-29 0 -38 -8 -86 -75
-30 -41 -57 -75 -60 -75 -4 0 -31 34 -60 75 -46 63 -58 75 -82 75 l-29 0 0
-165z"/>
<path d="M1521 1628 c-59 -40 -76 -72 -76 -143 0 -71 17 -103 75 -142 45 -31
115 -31 161 0 39 26 79 97 79 142 0 41 -38 114 -72 139 -16 11 -49 21 -80 24
-44 3 -59 0 -87 -20z m147 -73 c24 -28 30 -91 12 -126 -12 -22 -61 -49 -89
-49 -12 0 -35 13 -53 29 -28 25 -33 36 -33 76 0 40 5 51 34 77 28 25 39 29 70
24 21 -3 45 -16 59 -31z"/>
<path d="M1860 1620 c0 -29 2 -30 45 -30 l45 0 0 -135 0 -135 30 0 30 0 0 135
0 135 40 0 c38 0 40 2 40 30 l0 30 -115 0 -115 0 0 -30z"/>
<path d="M2279 1627 c-53 -35 -79 -82 -79 -140 0 -101 75 -174 170 -165 85 8
143 75 143 164 0 124 -137 207 -234 141z m120 -51 c68 -36 66 -152 -4 -184
-42 -19 -65 -14 -101 22 -39 39 -45 80 -17 126 28 48 73 61 122 36z"/>
<path d="M2830 1485 l0 -165 74 0 c91 0 132 14 151 51 20 39 19 72 -5 102 -19
24 -19 27 -3 55 14 25 15 33 3 61 -18 45 -56 61 -145 61 l-75 0 0 -165z m168
73 c3 -22 -2 -29 -21 -33 -14 -4 -38 -5 -53 -3 -25 3 -29 8 -32 36 l-3 33 53
-3 c49 -3 53 -5 56 -30z m-7 -98 c21 -12 25 -50 7 -68 -7 -7 -34 -12 -60 -12
l-48 0 0 38 c0 21 3 42 7 45 10 11 72 8 94 -3z"/>
<path d="M3190 1620 c0 -16 5 -30 10 -30 6 0 10 -42 10 -105 0 -63 -4 -105
-10 -105 -5 0 -10 -13 -10 -30 0 -30 1 -30 55 -30 54 0 55 0 55 30 0 17 -4 30
-10 30 -6 0 -10 42 -10 105 0 63 4 105 10 105 6 0 10 14 10 30 0 30 -1 30 -55
30 -54 0 -55 0 -55 -30z"/>
<path d="M3420 1485 l0 -165 30 0 c29 0 30 1 30 49 0 32 6 56 18 71 l17 22 60
-71 c55 -65 63 -71 98 -71 l39 0 -19 24 c-10 13 -45 54 -77 91 l-59 66 74 75
73 74 -40 0 c-36 0 -46 -7 -104 -65 -35 -36 -68 -65 -72 -65 -4 0 -8 29 -8 65
l0 65 -30 0 -30 0 0 -165z"/>
<path d="M3820 1485 l0 -165 100 0 100 0 0 30 0 30 -65 0 -65 0 0 45 0 45 60
0 c57 0 60 1 60 25 0 24 -3 25 -60 25 l-60 0 0 35 0 35 65 0 65 0 0 30 0 30
-100 0 -100 0 0 -165z"/>
<path d="M1591 1176 c-16 -20 -4 -43 30 -55 40 -14 40 -45 -1 -39 -16 3 -30 1
-30 -4 0 -14 28 -21 55 -14 18 5 25 13 25 32 0 19 -8 28 -35 40 -19 8 -35 18
-35 23 0 13 25 20 51 14 15 -4 20 -3 15 5 -10 16 -61 15 -75 -2z"/>
<path d="M1795 1125 c0 -51 3 -65 15 -65 12 0 15 14 15 65 0 51 -3 65 -15 65
-12 0 -15 -14 -15 -65z"/>
<path d="M1950 1125 c0 -37 4 -65 10 -65 6 0 10 20 10 45 0 25 3 45 8 45 4 0
21 -21 37 -45 42 -63 55 -59 55 20 0 75 -17 89 -22 18 l-3 -48 -34 48 c-48 66
-61 62 -61 -18z"/>
<path d="M2197 1172 c-36 -40 -9 -112 42 -112 16 0 34 6 40 14 9 11 5 13 -25
12 -42 -1 -60 18 -51 56 8 31 31 42 59 27 16 -9 19 -8 16 3 -7 21 -62 22 -81
0z"/>
<path d="M2400 1125 l0 -65 40 0 c22 0 40 5 40 10 0 6 -13 10 -30 10 -23 0
-30 4 -30 20 0 16 7 20 30 20 17 0 30 5 30 10 0 6 -13 10 -30 10 -20 0 -30 5
-30 15 0 10 10 15 30 15 17 0 30 5 30 10 0 6 -18 10 -40 10 l-40 0 0 -65z"/>
<path d="M2751 1176 c-8 -10 -9 -16 -1 -21 5 -3 10 -2 10 3 0 6 7 13 15 16 30
11 28 -25 -4 -64 -17 -21 -31 -41 -31 -44 0 -3 18 -6 40 -6 22 0 40 5 40 10 0
6 -12 10 -26 10 l-26 0 26 31 c29 34 32 49 14 67 -16 16 -43 15 -57 -2z"/>
<path d="M2940 1171 c-32 -61 24 -143 68 -99 16 16 16 90 0 106 -18 18 -56 14
-68 -7z m64 -24 c8 -34 -4 -67 -24 -67 -25 0 -43 64 -23 83 14 15 41 6 47 -16z"/>
<path d="M3147 1184 c-4 -4 -7 -14 -7 -22 0 -13 2 -13 18 0 18 17 42 14 42 -5
-1 -7 -14 -28 -30 -47 -17 -19 -30 -38 -30 -42 0 -4 18 -8 40 -8 22 0 40 5 40
10 0 6 -11 10 -26 10 l-25 0 27 36 c22 28 25 40 17 52 -11 18 -54 28 -66 16z"/>
<path d="M3341 1176 c-7 -8 -8 -17 -3 -20 6 -3 15 1 22 9 7 8 16 12 21 9 16
-10 9 -33 -21 -67 -16 -19 -30 -37 -30 -41 0 -3 21 -6 46 -6 27 0 43 4 39 10
-3 6 -15 10 -26 10 -25 0 -24 12 1 35 30 27 23 69 -11 73 -14 2 -31 -4 -38
-12z"/>
</g>
</svg>
